<?xml version="1.0" encoding="UTF-8"?>
<svg id="Capa_2" data-name="Capa 2" xmlns="http://www.w3.org/2000/svg" viewBox="0 0 156.74 225.34">
  <defs>
    <style>
      .cls-1 {
        fill: #231f20;
        fill-rule: evenodd;
        stroke-width: 0px;
      }
    </style>
  </defs>
  <g id="Layer_1" data-name="Layer 1">
    <path class="cls-1" d="M148.74,71.49h-25.03v19.14c0,2.21-1.79,4-4,4s-4-1.79-4-4v-19.14H41.03v19.14c0,2.21-1.79,4-4,4s-4-1.79-4-4v-19.14H8v145.85h140.74V71.49h0ZM102.57,146.94v54.97c0,.97-.4,1.86-1.04,2.5s-1.53,1.04-2.5,1.04-1.86-.4-2.5-1.04c-.64-.64-1.04-1.53-1.04-2.5v-39.34l-.25-.25c-1.97-1.98-5.8-5.85-7.9-12.78-1.76-5.79-1.4-12.9-.01-19.79,1.87-9.28,5.62-18.18,8.6-22.9.3-.56.76-1.03,1.3-1.36.53-.32,1.15-.5,1.81-.5.97,0,1.86.4,2.5,1.04.64.64,1.04,1.53,1.04,2.5v38.42h0ZM68.8,148.52v53.39c0,.97-.4,1.86-1.04,2.5s-1.53,1.04-2.5,1.04-1.86-.4-2.5-1.04h0c-.64-.64-1.04-1.53-1.04-2.5v-53.39c-2.25-.74-4.2-2.18-5.59-4.05-1.41-1.9-2.25-4.24-2.25-6.77v-29.99c0-.72.3-1.38.77-1.85.48-.48,1.13-.77,1.85-.77s1.38.3,1.85.77c.48.48.77,1.13.77,1.85v21.12h3.51v-21.12c0-.72.3-1.38.77-1.85.48-.48,1.13-.77,1.85-.77s1.38.3,1.85.77c.48.48.77,1.13.77,1.85v21.12h3.51v-21.12c0-.72.3-1.38.77-1.85.48-.48,1.13-.77,1.85-.77s1.38.3,1.85.77c.48.48.77,1.13.77,1.85v29.99c0,2.53-.84,4.87-2.25,6.77-1.39,1.87-3.34,3.3-5.6,4.05h0ZM33.03,63.49v-18.16c0-12.47,5.1-23.81,13.31-32.02C54.56,5.1,65.9,0,78.37,0s23.81,5.1,32.02,13.31c8.22,8.22,13.31,19.55,13.31,32.02v18.16h29.03c2.21,0,4,1.79,4,4v153.85c0,2.21-1.79,4-4,4H4c-2.21,0-4-1.79-4-4V67.49c0-2.21,1.79-4,4-4h29.03ZM115.71,63.49v-18.16c0-10.26-4.2-19.6-10.97-26.37-6.77-6.77-16.1-10.97-26.37-10.97s-19.6,4.2-26.37,10.97c-6.77,6.77-10.97,16.1-10.97,26.37v18.16h74.68Z"/>
  </g>
</svg>