<?xml version="1.0" encoding="UTF-8"?>
<svg id="Capa_2" data-name="Capa 2" xmlns="http://www.w3.org/2000/svg" viewBox="0 0 198.62 215.56">
  <defs>
    <style>
      .cls-1 {
        fill: #231f20;
        fill-rule: evenodd;
        stroke-width: 0px;
      }
    </style>
  </defs>
  <g id="Layer_1" data-name="Layer 1">
    <path class="cls-1" d="M17.2,173.32v-18.58c0-2.76,2.24-5,5-5h35.88c-5.47-6.83-9.64-13.86-12.19-21.15-3.74-10.66-4.03-21.73.07-33.3.09-.24.19-.48.31-.7.74-1.51,1.54-3.04,2.39-4.58.87-1.58,1.78-3.1,2.71-4.58,1.47-2.33,4.55-3.03,6.88-1.56,2.33,1.47,3.03,4.55,1.56,6.88-.86,1.36-1.67,2.73-2.44,4.11-.7,1.26-1.39,2.59-2.08,3.99-3.2,9.21-2.95,18,.02,26.46,2.92,8.32,8.48,16.45,16.01,24.43h2.92c-1.3-2.43-2.4-4.92-3.31-7.45-3.27-9.14-4.02-18.8-2.39-27.4,1.68-8.86,5.88-16.63,12.45-21.68,2.32-1.78,4.9-3.22,7.73-4.23.9-.32,1.84-.3,2.67,0,.94.26,1.81.61,2.6,1.04,4.38,2.4,6.78,7.21,7.8,12.38.9,4.51.74,9.45-.06,13.04.98.51,1.92,1.03,2.8,1.57,7,4.27,11.08,9.58,12.75,15.5,1.55,5.49.97,11.35-1.32,17.24h5.36c13.54-9.76,19.84-18.9,21.95-28.65,1.8-8.37.64-17.57-1.68-28.14l-.82.53c-4.38,2.82-9.22,5.94-8.9,11.72h0c.14,2.43-1.53,4.66-3.98,5.16-.27.06-.54.1-.81.12-3.06.31-7.09-1.31-10.38-4.26-2.98-2.66-5.63-6.53-6.55-11.05-.12-.57-.21-1.15-.27-1.73-1.12-10.95.95-14.59,3.63-19.32,1.2-2.12,2.57-4.53,3.65-8.48,1.24-4.53,1.23-10.63-1.98-16.63-2.54-4.75-7.12-9.48-14.68-13.44-2.42-1.26-3.37-4.24-2.13-6.68,2.46-4.81.39-7.75-1.81-10.89-1.09-1.56-2.21-3.14-3.14-4.92-11,9.8-7.86,22.88-5.56,32.45,2.18,9.04,3.85,15.99-3.13,19.51-.74.51-1.45,1.02-2.15,1.53h0s-.01,0-.01,0c-.73.53-1.51,1.13-2.37,1.79-2.17,1.69-5.3,1.31-6.99-.86-1.69-2.17-1.31-5.3.86-6.99.79-.61,1.66-1.27,2.63-1.98h0c.9-.67,1.81-1.31,2.72-1.93.23-.16.47-.3.72-.41.05-.03-.81-3.63-1.95-8.36-3.33-13.83-8.04-33.43,15.49-47.15,2.38-1.38,5.44-.57,6.82,1.82.39.68.61,1.41.66,2.15h0c.2,2.81,1.92,5.26,3.58,7.61,3.36,4.78,6.54,9.32,4.33,16.74,7.28,4.56,12.01,9.89,14.92,15.32,4.6,8.59,4.6,17.38,2.8,23.94-1.42,5.2-3.11,8.18-4.59,10.78-1.8,3.17-3.18,5.61-2.38,13.43.02.25.06.49.11.72.4,1.97,1.53,3.74,2.87,5.1,2.12-6.45,7.55-9.95,12.59-13.19,2.22-1.43,4.34-2.79,5.47-4.13,1.78-2.1,4.93-2.37,7.03-.59.86.73,1.41,1.69,1.64,2.71,3.72,15.09,6.16,27.84,3.52,40.09-2,9.28-6.81,17.94-16,26.58h39.38c2.76,0,5,2.24,5,5v18.58h12.2c2.76,0,5,2.24,5,5v32.24c0,2.76-2.24,5-5,5H5c-2.76,0-5-2.24-5-5v-32.24c0-2.76,2.24-5,5-5h12.2ZM154.31,205.56v-22.24H44.32v22.24h109.99ZM164.31,183.32v22.24h24.32v-22.24h-24.32ZM34.32,205.56v-22.24H10v22.24h24.32ZM134.3,173.32v-13.58h-69.97v13.58h69.97ZM144.3,159.74v13.58h27.12v-13.58h-27.12ZM54.33,173.32v-13.58h-27.12v13.58h27.12ZM83.52,149.74h23.72c.31-.62.6-1.24.86-1.85,2.01-4.68,2.63-9.2,1.49-13.23-1.13-4-4.07-7.71-9.22-10.85-1.49-.91-3.15-1.76-5-2.56-.16-.06-.32-.14-.48-.22-1.93-1.06-2.64-3.49-1.58-5.42.22-.39.41-.96.58-1.66.63-2.63.76-6.44.05-10.02-.61-3.08-1.81-5.82-3.8-6.91h-.01c-1.56.67-2.99,1.52-4.27,2.51-4.95,3.81-8.15,9.86-9.48,16.84-1.37,7.24-.72,15.44,2.07,23.25,1.26,3.52,2.95,6.94,5.07,10.13Z"/>
  </g>
</svg>