<?xml version="1.0" encoding="UTF-8"?>
<svg id="Capa_2" data-name="Capa 2" xmlns="http://www.w3.org/2000/svg" viewBox="0 0 335.55 191.75">
  <defs>
    <style>
      .cls-1 {
        fill: #231f20;
        fill-rule: evenodd;
        stroke-width: 0px;
      }
    </style>
  </defs>
  <g id="Layer_1" data-name="Layer 1">
    <path class="cls-1" d="M31.17,76.34c2.64,5.15,4.27,12.13,4.27,19.72s-1.63,14.57-4.27,19.72h36.08c1.49,0,3.12-1.73,4.56-4.53,1.95-3.79,3.16-9.16,3.16-15.19s-1.21-11.4-3.16-15.19c-1.44-2.8-3.07-4.53-4.56-4.53H31.17ZM108.08,191.75h-32.31c-9.24,0-17.82-4.28-25.24-11.85-7.24-7.38-13.4-17.96-17.94-30.71-.92-2.6.45-5.45,3.05-6.37,2.6-.92,5.45.45,6.37,3.05,4.06,11.39,9.42,20.7,15.63,27.03,5.54,5.65,11.71,8.84,18.13,8.84,10.89,0,21.03-9.13,28.63-23.9,8.11-15.76,13.13-37.67,13.13-61.97s-5.02-46.21-13.13-61.97c-7.6-14.77-17.74-23.9-28.63-23.9-8.8,0-17.15,6.01-24.05,16.15-6.84,10.05-12.15,23.98-15.11,40.18h30.63c5.54,0,10.26,3.8,13.43,9.95,2.65,5.15,4.29,12.15,4.29,19.76s-1.64,14.61-4.29,19.76c-3.16,6.15-7.89,9.95-13.43,9.95H17.72s-.13,0-.13,0c-5.48-.06-10.16-3.85-13.3-9.95-2.65-5.15-4.29-12.15-4.29-19.76s1.64-14.61,4.29-19.76c3.16-6.15,7.89-9.95,13.43-9.95h.03s.01,0,.01,0h8.72c3.14-18.34,9.14-34.26,17-45.81C52.25,7.64,63.42,0,75.77,0h32.31c14.93,0,28.17,11.21,37.49,29.33,5.3,10.31,9.39,22.94,11.8,37.01h17.39c3.14-18.32,9.14-34.23,16.99-45.78C200.52,7.66,211.7,0,224.04,0h35.85c14.93,0,28.17,11.21,37.49,29.33,5.3,10.31,9.39,22.94,11.8,37.01h8.65c5.54,0,10.26,3.8,13.43,9.95,2.65,5.15,4.29,12.15,4.29,19.76s-1.64,14.61-4.29,19.76c-3.16,6.15-7.89,9.95-13.43,9.95h-8.71c-2.42,13.92-6.48,26.42-11.74,36.64-9.32,18.12-22.56,29.33-37.49,29.33h-35.85c-9.23,0-17.81-4.28-25.23-11.84-7.24-7.38-13.4-17.95-17.94-30.69-.92-2.6.45-5.45,3.05-6.37s5.45.45,6.37,3.05c4.06,11.38,9.42,20.69,15.63,27.02,5.54,5.64,11.71,8.84,18.12,8.84,10.89,0,21.03-9.13,28.63-23.9,8.11-15.76,13.13-37.67,13.13-61.97s-5.02-46.21-13.13-61.97c-7.6-14.77-17.74-23.9-28.63-23.9-8.81,0-17.16,6.01-24.06,16.15-6.84,10.05-12.14,23.98-15.1,40.19h35.1c5.54,0,10.26,3.8,13.43,9.95,2.65,5.15,4.29,12.15,4.29,19.76s-1.64,14.61-4.29,19.76c-3.16,6.15-7.89,9.95-13.43,9.95h-62.68c-2.42,13.92-6.48,26.42-11.74,36.64-9.32,18.12-22.56,29.33-37.49,29.33h0ZM99.1,181.75h8.98c10.89,0,21.03-9.13,28.63-23.9,5.28-10.26,9.24-23.12,11.37-37.54.02-.18.04-.35.08-.52,1.09-7.59,1.68-15.61,1.68-23.91s-.57-16.05-1.63-23.53c-.04-.19-.07-.39-.08-.58-2.12-14.55-6.1-27.52-11.42-37.85-7.6-14.77-17.74-23.9-28.63-23.9h-8.98c5.34,4.91,10.12,11.47,14.16,19.33,8.81,17.13,14.26,40.66,14.26,66.54s-5.45,49.42-14.26,66.54c-4.04,7.86-8.83,14.42-14.16,19.33h0ZM247.37,181.75h12.52c10.89,0,21.03-9.13,28.63-23.9,8.11-15.76,13.13-37.67,13.13-61.97s-5.02-46.21-13.13-61.97c-7.6-14.77-17.74-23.9-28.63-23.9h-12.52c5.34,4.91,10.12,11.47,14.16,19.33,8.81,17.13,14.26,40.66,14.26,66.54s-5.45,49.42-14.26,66.54c-4.04,7.86-8.83,14.42-14.16,19.33h0ZM22.28,80.86c-1.44-2.8-3.07-4.53-4.56-4.53s-3.12,1.73-4.56,4.53c-1.95,3.79-3.16,9.16-3.16,15.19s1.21,11.4,3.16,15.19c1.44,2.8,3.07,4.53,4.56,4.53s3.12-1.73,4.56-4.53c1.95-3.79,3.16-9.16,3.16-15.19s-1.21-11.4-3.16-15.19h0ZM317.84,115.78c1.49,0,3.12-1.73,4.56-4.53,1.95-3.79,3.16-9.16,3.16-15.19s-1.21-11.4-3.16-15.19c-1.44-2.8-3.07-4.53-4.56-4.53h-7.25c.69,6.31,1.06,12.84,1.06,19.54s-.38,13.48-1.1,19.9h7.29ZM219.98,115.78c1.49,0,3.12-1.73,4.56-4.53,1.95-3.79,3.16-9.16,3.16-15.19s-1.21-11.4-3.16-15.19c-1.44-2.8-3.07-4.53-4.56-4.53h-61.21c.69,6.31,1.06,12.84,1.06,19.54s-.38,13.48-1.1,19.9h61.25Z"/>
  </g>
</svg>