<?xml version="1.0" encoding="UTF-8"?>
<svg id="Capa_2" data-name="Capa 2" xmlns="http://www.w3.org/2000/svg" viewBox="0 0 129.22 129.22">
  <defs>
    <style>
      .cls-1 {
        fill: #e6e7e8;
        fill-rule: evenodd;
        stroke-width: 0px;
      }
    </style>
  </defs>
  <g id="Layer_1" data-name="Layer 1">
    <path class="cls-1" d="M129.22,65.75v63.47h-63.47v-63.47h63.47ZM45.21,114.6h-3.21l-12.48-14.84-11.25,15.43v-35.4h2.41v27.91l20.3-27.91h3.05l-13.07,17.89,14.25,16.93h0ZM45.21,48.85h-3.21l-12.48-14.84-11.25,15.43V14.03h2.41v27.91l20.3-27.91h3.05l-13.07,17.89,14.25,16.93h0ZM84.02,114.6h3.21l12.48-14.84,11.25,15.43v-35.4h-2.41v27.91l-20.3-27.91h-3.05l13.07,17.89-14.25,16.93h0ZM84.02,48.85h3.21l12.48-14.84,11.25,15.43V14.03h-2.41v27.91l-20.3-27.91h-3.05l13.07,17.89-14.25,16.93h0ZM65.75,0h63.47v63.47h-63.47V0h0ZM0,0v63.47h63.47V0H0ZM63.47,129.22v-63.47H0v63.47h63.47Z"/>
  </g>
</svg>