<?xml version="1.0" encoding="UTF-8"?>
<svg id="Capa_2" data-name="Capa 2" xmlns="http://www.w3.org/2000/svg" viewBox="0 0 1057.25 129.84">
  <defs>
    <style>
      .cls-1 {
        fill: #e6e7e8;
        fill-rule: evenodd;
        stroke-width: 0px;
      }
    </style>
  </defs>
  <g id="Layer_1" data-name="Layer 1">
    <path class="cls-1" d="M0,129.69V.46h9.48v81.42L90.55.27l13.29.05-58.59,58.65,58.65,70.72-12.26.03-53.35-63.73-28.81,29.01v34.69H0ZM538.1,0l59.81,129h7.02L664.68.15l-9.8-.03c-17.11,39.07-37.79,77.1-53.46,116.89L547.97.12l-9.87-.12h0ZM995.97,129.69v-46.47L941.7.46h11.34l47.44,72.5L1045.93,1.19l11.32.08-51.95,81.75v46.66h-9.34ZM854.38,129.69l-.47-119.86h-45.67V.46h101.96v9.36h-46.82l-.49,119.86h-8.51ZM305.36,129.69v-46.47L251.09.46h11.34l47.44,72.5L355.33,1.19l11.32.08-51.95,81.75v46.66h-9.34ZM673.21,129.59L733.03.31h7.02l59.74,129.13-9.8.03c-17.11-39.16-37.79-77.27-53.46-117.14l-53.46,117.14-9.87.12h0ZM494.28.46h8.69v73.41c0,12.78-1.51,22.93-4.49,30.45-3.01,7.49-7.78,13.61-15.59,18.31-7.84,4.71-18.08,7.07-30.81,7.07s-22.45-2.04-30.29-6.15c-7.87-4.11-13.47-10.03-16.82-17.81-3.35-7.78-4.39-18.4-4.39-31.87V.46h8.69v68.11c0,1.26.01,2.49.04,3.7v5.66c0,10.37,1.39,18.55,4.13,24.55,2.75,5.99,7.33,10.55,13.78,13.72,6.42,3.17,14.72,4.74,24.82,4.74s18.82-1.82,25.25-5.45c6.4-3.62,10.83-8.34,13.3-14.11,2.45-5.79,3.68-13.61,3.68-23.46V.46h0ZM117.36,129.84L177.23.46h6.91l59.8,129.22-9.8.03c-17.11-39.16-37.79-77.27-53.46-117.14l-53.46,117.14-9.87.12Z"/>
  </g>
</svg>