<?xml version="1.0" encoding="UTF-8"?>
<svg id="Capa_2" data-name="Capa 2" xmlns="http://www.w3.org/2000/svg" viewBox="0 0 179.83 231.04">
  <defs>
    <style>
      .cls-1 {
        fill: #231f20;
        fill-rule: evenodd;
        stroke-width: 0px;
      }
    </style>
  </defs>
  <g id="Layer_1" data-name="Layer 1">
    <path class="cls-1" d="M161.72,108.5c-.15-.1-.3-.21-.43-.33-.47-.35-.95-.68-1.45-1-5.65-3.6-12.22-4.58-18.28-3.24-6.06,1.34-11.61,4.99-15.22,10.63h0c-3.6,5.65-4.58,12.22-3.24,18.28,1.34,6.06,4.99,11.61,10.63,15.22h0c5.65,3.61,12.22,4.58,18.28,3.24,6.06-1.34,11.61-4.99,15.22-10.63,3.6-5.65,4.58-12.22,3.24-18.28-1.18-5.36-4.17-10.31-8.74-13.88h0ZM63.82,138.06c1.38-4.89,1.91-10.11,1.89-15.48-.03-5.6-.66-11.4-1.58-17.21-.35-2.17,1.14-4.22,3.31-4.56,1.06-.17,2.09.1,2.9.67l30.66,19.57c1.86,1.18,2.4,3.64,1.22,5.5-.55.86-1.36,1.43-2.27,1.69h0c-5.69,1.63-11.23,3.5-16.29,5.82-4.96,2.27-9.54,5.01-13.47,8.43-1.67,1.45-4.19,1.27-5.64-.39-1-1.15-1.23-2.7-.73-4.03h0ZM73.68,122.54c.01,2.67-.1,5.31-.36,7.91,2.25-1.33,4.6-2.55,7.03-3.66,2.97-1.36,6.03-2.56,9.15-3.65l-16.36-10.45c.33,3.3.53,6.59.55,9.84h0ZM156.74,50.63c-.08.17-.18.33-.3.47-1.1,1.59-2.72,2.62-4.49,3.01-1.76.39-3.67.14-5.34-.84-.17-.08-.33-.18-.47-.3-1.59-1.1-2.62-2.72-3.01-4.49-.41-1.85-.11-3.85.99-5.58,1.1-1.72,2.8-2.84,4.64-3.25,1.76-.39,3.67-.14,5.34.84.17.08.33.18.47.3,1.59,1.1,2.62,2.72,3.01,4.49.39,1.76.14,3.67-.84,5.34h0ZM152.4,48.19c.36-.56.45-1.22.32-1.82-.13-.61-.5-1.16-1.06-1.52h0c-.56-.36-1.22-.46-1.82-.32-.61.13-1.16.5-1.52,1.06-.36.56-.46,1.22-.32,1.83.13.61.5,1.16,1.06,1.52h0c.56.36,1.22.46,1.82.32.61-.13,1.16-.5,1.52-1.06h0ZM136.91,38.31c.36-.56.46-1.22.32-1.83-.13-.61-.5-1.16-1.06-1.52-.56-.36-1.22-.46-1.83-.32-.61.13-1.16.5-1.52,1.06h0c-.36.57-.45,1.22-.32,1.83.13.61.5,1.16,1.06,1.52h0c.56.36,1.22.46,1.82.32.61-.13,1.16-.5,1.52-1.06h0ZM142.09,35.41c.41,1.85.11,3.85-.99,5.58-1.1,1.72-2.8,2.84-4.64,3.25-1.76.39-3.67.14-5.34-.84-.17-.08-.33-.18-.47-.3-1.59-1.1-2.62-2.72-3.01-4.49s-.14-3.67.84-5.34c.08-.17.18-.33.3-.47,1.1-1.59,2.72-2.62,4.49-3.01,1.85-.41,3.85-.11,5.58.99,1.72,1.1,2.84,2.79,3.25,4.64h0ZM121.42,28.43c.36-.56.46-1.22.32-1.83-.13-.61-.5-1.16-1.06-1.52-.56-.36-1.22-.46-1.83-.32-.61.13-1.16.5-1.52,1.06-.36.56-.46,1.22-.32,1.83.13.61.5,1.16,1.06,1.52.56.36,1.22.46,1.83.32.61-.13,1.16-.5,1.52-1.06h0ZM126.61,25.53c.41,1.85.11,3.85-.99,5.58-1.1,1.72-2.79,2.84-4.64,3.25-1.85.41-3.85.11-5.58-.99-1.72-1.1-2.84-2.79-3.25-4.64-.41-1.85-.11-3.85.99-5.58,1.1-1.72,2.79-2.84,4.64-3.25,1.85-.41,3.85-.11,5.58.99,1.72,1.1,2.84,2.8,3.25,4.64h0ZM109.51,110.87c.56.36,1.22.46,1.82.32.61-.13,1.16-.5,1.52-1.06.36-.56.46-1.22.32-1.83-.13-.61-.5-1.16-1.06-1.52h0c-.56-.36-1.22-.46-1.82-.32-.61.13-1.16.5-1.52,1.06h0c-.36.57-.45,1.22-.32,1.83.13.61.5,1.16,1.06,1.52h0ZM112.41,116.06c1.85-.41,3.54-1.52,4.64-3.25,1.1-1.72,1.4-3.73.99-5.58-.39-1.76-1.42-3.39-3.01-4.49-.15-.12-.31-.22-.47-.3-1.67-.98-3.57-1.23-5.34-.84-1.76.39-3.39,1.42-4.49,3.01-.12.15-.22.31-.3.47-.98,1.67-1.23,3.57-.84,5.34.39,1.76,1.42,3.39,3.01,4.49.15.12.31.22.47.3,1.67.98,3.57,1.23,5.34.84h0ZM91.59,105.33c1.67.98,3.57,1.23,5.34.84,1.76-.39,3.39-1.42,4.49-3.01.12-.15.22-.31.3-.47.98-1.67,1.23-3.57.84-5.34-.41-1.85-1.52-3.54-3.25-4.64-1.72-1.1-3.73-1.4-5.58-.99-1.85.41-3.54,1.52-4.64,3.25-1.1,1.72-1.4,3.73-.99,5.58.39,1.76,1.42,3.39,3.01,4.49.15.12.31.22.47.3h0ZM94.03,100.99c.56.36,1.22.45,1.82.32.61-.13,1.16-.5,1.52-1.06h0c.36-.57.46-1.22.32-1.83-.13-.61-.5-1.16-1.06-1.52-.56-.36-1.22-.46-1.83-.32-.61.13-1.16.5-1.52,1.06-.36.56-.46,1.22-.32,1.83.13.61.5,1.16,1.06,1.52h0ZM78.54,91.1c.56.36,1.22.46,1.83.32.61-.13,1.16-.5,1.52-1.06.36-.56.46-1.22.32-1.83-.13-.61-.5-1.16-1.06-1.52-.56-.36-1.22-.46-1.83-.32-.61.13-1.16.5-1.52,1.06-.36.56-.46,1.22-.32,1.83.13.61.5,1.16,1.06,1.52h0ZM81.44,96.29c-1.85.41-3.85.11-5.58-.99-1.72-1.1-2.84-2.79-3.25-4.64-.41-1.85-.11-3.85.99-5.58,1.1-1.72,2.79-2.84,4.64-3.25,1.85-.41,3.85-.11,5.58.99,1.72,1.1,2.84,2.79,3.25,4.64.41,1.85.11,3.85-.99,5.58-1.1,1.72-2.79,2.84-4.64,3.25h0ZM72.94,65.73c.56.36,1.22.46,1.82.32.61-.13,1.16-.5,1.52-1.06.36-.56.46-1.22.32-1.83-.13-.61-.5-1.16-1.06-1.52-.56-.36-1.22-.46-1.83-.32-.61.13-1.16.5-1.52,1.06h0c-.36.57-.45,1.22-.32,1.83.13.61.5,1.16,1.06,1.52h0ZM75.84,70.92c-1.76.39-3.67.14-5.34-.84-.17-.08-.33-.18-.47-.3-1.59-1.1-2.62-2.72-3.01-4.49-.39-1.76-.14-3.67.84-5.34.08-.17.18-.33.3-.47,1.1-1.59,2.72-2.62,4.49-3.01,1.85-.41,3.85-.11,5.58.99,1.72,1.1,2.84,2.79,3.25,4.64.41,1.85.11,3.85-.99,5.58-1.1,1.72-2.79,2.84-4.64,3.25h0ZM116.96,99.73c-.17-.08-.33-.18-.47-.3-1.59-1.1-2.62-2.72-3.01-4.49-.41-1.85-.11-3.85.99-5.58,1.1-1.72,2.79-2.84,4.64-3.25,1.85-.41,3.85-.11,5.58.99,1.72,1.1,2.84,2.8,3.25,4.64.39,1.76.14,3.67-.84,5.34-.08.17-.18.33-.3.47-1.1,1.59-2.72,2.62-4.49,3.01s-3.67.14-5.34-.84h0ZM119.4,95.39c.56.36,1.22.45,1.82.32.61-.13,1.16-.5,1.52-1.06h0c.36-.57.45-1.22.32-1.83-.13-.61-.5-1.16-1.06-1.52-.56-.36-1.22-.46-1.83-.32-.61.13-1.16.5-1.52,1.06-.36.56-.46,1.22-.32,1.83.13.61.5,1.16,1.06,1.52h0ZM103.91,85.5c.56.36,1.22.46,1.83.32.61-.13,1.16-.5,1.52-1.06.36-.56.46-1.22.32-1.83-.13-.61-.5-1.16-1.06-1.52h0c-.56-.36-1.22-.46-1.82-.32-.61.13-1.16.5-1.52,1.06h0c-.36.57-.45,1.22-.32,1.83.13.61.5,1.16,1.06,1.52h0ZM106.81,90.69c-1.85.41-3.85.11-5.58-.99-1.72-1.1-2.84-2.8-3.25-4.64-.39-1.76-.14-3.67.84-5.34.08-.17.18-.33.3-.47,1.1-1.59,2.72-2.62,4.49-3.01s3.67-.14,5.34.84c.17.08.33.18.47.3,1.59,1.1,2.62,2.72,3.01,4.49.41,1.85.11,3.85-.99,5.58-1.1,1.72-2.79,2.84-4.64,3.25h0ZM88.42,75.61c.56.36,1.22.46,1.83.32.61-.13,1.16-.5,1.52-1.06h0c.36-.57.45-1.22.32-1.83-.13-.61-.5-1.16-1.06-1.52h0c-.56-.36-1.22-.46-1.82-.32-.61.13-1.16.5-1.52,1.06-.36.56-.46,1.22-.32,1.83.13.61.5,1.16,1.06,1.52h0ZM91.32,80.8c-1.85.41-3.85.11-5.58-.99-1.72-1.1-2.84-2.79-3.25-4.64-.41-1.85-.11-3.85.99-5.58,1.1-1.72,2.8-2.84,4.64-3.25,1.76-.39,3.67-.14,5.34.84.17.08.33.18.47.3,1.59,1.1,2.62,2.72,3.01,4.49s.14,3.67-.84,5.34c-.08.17-.18.33-.3.47-1.1,1.59-2.72,2.62-4.49,3.01h0ZM96.05,34.03c.36-.56.46-1.22.32-1.83-.13-.61-.5-1.16-1.06-1.52-.56-.36-1.22-.46-1.83-.32-.61.13-1.16.5-1.52,1.06h0c-.36.57-.45,1.22-.32,1.83.13.61.5,1.16,1.06,1.52h0c.56.36,1.22.46,1.82.32.61-.13,1.16-.5,1.52-1.06h0ZM101.24,31.12c.41,1.85.11,3.85-.99,5.58-1.1,1.72-2.8,2.84-4.64,3.25-1.76.39-3.67.14-5.34-.84-.17-.08-.33-.18-.47-.3-1.59-1.1-2.62-2.72-3.01-4.49-.39-1.76-.14-3.67.84-5.34.08-.17.18-.33.3-.47,1.1-1.59,2.72-2.62,4.49-3.01,1.85-.41,3.85-.11,5.58.99,1.72,1.1,2.84,2.79,3.25,4.64h0ZM82.82,50.24c.56.36,1.22.46,1.83.32.61-.13,1.16-.5,1.52-1.06.36-.56.46-1.22.32-1.83-.13-.61-.5-1.16-1.06-1.52-.56-.36-1.22-.46-1.83-.32-.61.13-1.16.5-1.52,1.06-.36.56-.46,1.22-.32,1.83.13.61.5,1.16,1.06,1.52h0ZM85.72,55.43c-1.85.41-3.85.11-5.58-.99-1.72-1.1-2.84-2.79-3.25-4.64-.41-1.85-.11-3.85.99-5.58,1.1-1.72,2.79-2.84,4.64-3.25,1.85-.41,3.85-.11,5.58.99,1.72,1.1,2.84,2.79,3.25,4.64.41,1.85.11,3.85-.99,5.58-1.1,1.72-2.8,2.84-4.64,3.25h0ZM162.34,76c-.08.17-.18.33-.3.47-1.1,1.59-2.72,2.62-4.49,3.01-1.76.39-3.67.14-5.34-.84-.17-.08-.33-.18-.47-.3-1.59-1.1-2.62-2.72-3.01-4.49-.41-1.85-.11-3.85.99-5.58,1.1-1.72,2.79-2.84,4.64-3.25,1.76-.39,3.67-.14,5.34.84.17.08.33.18.47.3,1.59,1.1,2.62,2.72,3.01,4.49.39,1.76.14,3.67-.84,5.34h0ZM158,73.56c.36-.56.45-1.22.32-1.82-.13-.61-.5-1.16-1.06-1.52h0c-.56-.36-1.22-.46-1.82-.32-.61.13-1.16.5-1.52,1.06-.36.56-.46,1.22-.32,1.83.13.61.5,1.16,1.06,1.52h0c.56.36,1.22.46,1.82.32.61-.13,1.16-.5,1.52-1.06h0ZM144.76,89.78c.56.36,1.22.46,1.83.32.61-.13,1.16-.5,1.52-1.06.36-.56.46-1.22.32-1.83-.13-.61-.5-1.16-1.06-1.52h0c-.56-.36-1.22-.46-1.82-.32-.61.13-1.16.5-1.52,1.06h0c-.36.57-.45,1.22-.32,1.83.13.61.5,1.16,1.06,1.52h0ZM147.66,94.97c-1.85.41-3.85.11-5.58-.99-1.72-1.1-2.84-2.8-3.25-4.64-.39-1.76-.14-3.67.84-5.34.08-.17.18-.33.3-.47,1.1-1.59,2.72-2.62,4.49-3.01s3.67-.14,5.34.84c.17.08.33.18.47.3,1.59,1.1,2.62,2.72,3.01,4.49.41,1.85.11,3.85-.99,5.58-1.1,1.72-2.79,2.84-4.64,3.25h0ZM142.51,63.68c.36-.56.46-1.22.32-1.83-.13-.61-.5-1.16-1.06-1.52h0c-.56-.36-1.22-.46-1.82-.32-.61.13-1.16.5-1.52,1.06h0c-.36.57-.45,1.22-.32,1.83.13.61.5,1.16,1.06,1.52.56.36,1.22.46,1.83.32.61-.13,1.16-.5,1.52-1.06h0ZM147.69,60.78c.41,1.85.11,3.85-.99,5.58-1.1,1.72-2.79,2.84-4.64,3.25-1.85.41-3.85.11-5.58-.99-1.72-1.1-2.84-2.79-3.25-4.64-.39-1.76-.14-3.67.84-5.34.08-.17.18-.33.3-.47,1.1-1.59,2.72-2.62,4.49-3.01s3.67-.14,5.34.84c.17.08.33.18.47.3,1.59,1.1,2.62,2.72,3.01,4.49h0ZM129.28,79.9c.56.36,1.22.46,1.83.32.61-.13,1.16-.5,1.52-1.06h0c.36-.57.45-1.22.32-1.83-.13-.61-.5-1.16-1.06-1.52h0c-.56-.36-1.22-.46-1.82-.32-.61.13-1.16.5-1.52,1.06-.36.56-.46,1.22-.32,1.83.13.61.5,1.16,1.06,1.52h0ZM132.18,85.09c-1.85.41-3.85.11-5.58-.99-1.72-1.1-2.84-2.79-3.25-4.64-.41-1.85-.11-3.85.99-5.58,1.1-1.72,2.8-2.84,4.64-3.25,1.76-.39,3.67-.14,5.34.84.17.08.33.18.47.3,1.59,1.1,2.62,2.72,3.01,4.49s.14,3.67-.84,5.34c-.08.17-.18.33-.3.47-1.1,1.59-2.72,2.62-4.49,3.01h0ZM131.37,56.23c-.08.17-.18.33-.3.47-1.1,1.59-2.72,2.62-4.49,3.01-1.85.41-3.85.11-5.58-.99-1.72-1.1-2.84-2.79-3.25-4.64-.39-1.76-.14-3.67.84-5.34.08-.17.18-.33.3-.47,1.1-1.59,2.72-2.62,4.49-3.01s3.67-.14,5.34.84c.17.08.33.18.47.3,1.59,1.1,2.62,2.72,3.01,4.49.39,1.76.14,3.67-.84,5.34h0ZM127.02,53.79c.36-.56.45-1.22.32-1.82-.13-.61-.5-1.16-1.06-1.52h0c-.56-.36-1.22-.46-1.82-.32-.61.13-1.16.5-1.52,1.06h0c-.36.57-.46,1.22-.32,1.83.13.61.5,1.16,1.06,1.52.56.36,1.22.46,1.83.32.61-.13,1.16-.5,1.52-1.06h0ZM115.88,46.35c-.08.17-.18.33-.3.47-1.1,1.59-2.72,2.62-4.49,3.01-1.76.39-3.67.14-5.34-.84-.17-.08-.33-.18-.47-.3-1.59-1.1-2.62-2.72-3.01-4.49-.41-1.85-.11-3.85.99-5.58,1.1-1.72,2.8-2.84,4.64-3.25,1.76-.39,3.67-.14,5.34.84.17.08.33.18.47.3,1.59,1.1,2.62,2.72,3.01,4.49s.14,3.67-.84,5.34h0ZM111.54,43.9c.36-.56.45-1.22.32-1.82-.13-.61-.5-1.16-1.06-1.52h0c-.56-.36-1.22-.46-1.82-.32-.61.13-1.16.5-1.52,1.06-.36.56-.46,1.22-.32,1.83.13.61.5,1.16,1.06,1.52h0c.56.36,1.22.46,1.82.32.61-.13,1.16-.5,1.52-1.06h0ZM113.8,70.02c.56.36,1.22.46,1.82.32.61-.13,1.16-.5,1.52-1.06.36-.56.46-1.22.32-1.83-.13-.61-.5-1.16-1.06-1.52h0c-.56-.36-1.22-.46-1.82-.32-.61.13-1.16.5-1.52,1.06h0c-.36.57-.45,1.22-.32,1.83.13.61.5,1.16,1.06,1.52h0ZM116.69,75.2c-1.76.39-3.67.14-5.34-.84-.17-.08-.33-.18-.47-.3-1.59-1.1-2.62-2.72-3.01-4.49s-.14-3.67.84-5.34c.08-.17.18-.33.3-.47,1.1-1.59,2.72-2.62,4.49-3.01,1.76-.39,3.67-.14,5.34.84.17.08.33.18.47.3,1.59,1.1,2.62,2.72,3.01,4.49.41,1.85.11,3.85-.99,5.58-1.1,1.72-2.8,2.84-4.64,3.25h0ZM95.87,64.48c-.17-.08-.33-.18-.47-.3-1.59-1.1-2.62-2.72-3.01-4.49-.39-1.76-.14-3.67.84-5.34.08-.17.18-.33.3-.47,1.1-1.59,2.72-2.62,4.49-3.01,1.85-.41,3.85-.11,5.58.99,1.72,1.1,2.84,2.8,3.25,4.64.39,1.76.14,3.67-.84,5.34-.08.17-.18.33-.3.47-1.1,1.59-2.72,2.62-4.49,3.01s-3.67.14-5.34-.84h0ZM98.32,60.13c.56.36,1.22.45,1.82.32.61-.13,1.16-.5,1.52-1.06h0c.36-.57.46-1.22.32-1.83-.13-.61-.5-1.16-1.06-1.52-.56-.36-1.22-.46-1.83-.32-.61.13-1.16.5-1.52,1.06h0c-.36.57-.45,1.22-.32,1.83.13.61.5,1.16,1.06,1.52h0ZM49.9,145.05c.2-.4.39-.8.58-1.2,1.54-3.24,2.74-6.33,3.65-9.3h0c.03-.1.06-.21.08-.31,2.64-11.89.64-22.39-1.34-32.84-1.21-6.34-2.41-12.65-2.45-18.94-.04-6.59.44-13.29,1.79-19.88,1.32-6.43,3.47-12.75,6.8-18.76l.11-.19.18-.32h0s.35-.61.35-.61h0s.18-.3.18-.3l.19-.32h0s.37-.6.37-.6h0s.22-.36.22-.36c.05-.07.11-.15.16-.23l.2-.32h-.01c9.93-15.56,24.19-26.22,39.62-30.49,14.8-4.1,30.7-2.3,44.86,6.7.12.09.24.18.37.25l.1.06h0s.11.06.11.06h0c14.03,8.97,22.35,22.49,24.94,37.49,2.5,14.47-.29,30.33-8.36,44.9-7.15-4.04-15.25-5.06-22.77-3.4-7.93,1.75-15.21,6.49-20,13.8-.16.21-.3.43-.42.66-4.62,7.42-5.85,16.02-4.1,23.95l.08.35c-2.3.64-4.69,1.24-7.1,1.84-10.27,2.58-20.59,5.18-30.22,12.5-.14.1-.27.2-.4.32-2.28,2.05-4.58,4.44-6.9,7.23-.28.34-.56.68-.84,1.03l-20.03-12.79h0ZM74.21,165.37c-.08.12-.16.23-.25.34-1.13,1.54-2.26,3.19-3.4,4.97h0s-37.36,58.52-37.36,58.52c-1.18,1.86-3.64,2.4-5.5,1.22-8.62-5.5-17.23-11-25.85-16.5-1.86-1.18-2.4-3.64-1.22-5.5l37.19-58.26c.05-.09.1-.18.16-.27,2.14-3.37,3.88-6.51,5.29-9.47,1.38-2.91,2.43-5.59,3.21-8.09,2.21-10.2.38-19.85-1.45-29.45-1.27-6.65-2.53-13.29-2.57-20.38-.04-7.1.48-14.35,1.95-21.51,1.47-7.18,3.89-14.27,7.63-21.03.04-.08.08-.16.12-.24l.18-.32h0c.13-.23.27-.47.4-.7h0s.08-.13.08-.13c.04-.08.08-.16.13-.23l.19-.32h0c.14-.23.28-.46.42-.7h0s.21-.34.21-.34h0s.02-.03.02-.03c.06-.12.12-.23.19-.34l.2-.32h.01s0,0,0,0c11.02-17.26,26.94-29.11,44.22-33.89,16.93-4.69,35.14-2.62,51.35,7.72l.3.18h0s.15.09.15.09h0s.04.03.04.03c16.08,10.27,25.6,25.74,28.57,42.9,2.86,16.53-.4,34.61-9.77,51.04,4.71,4.5,7.83,10.22,9.18,16.33,1.78,8.05.48,16.78-4.3,24.28-4.79,7.5-12.16,12.35-20.22,14.13-7.93,1.75-16.53.52-23.95-4.1-.23-.12-.45-.26-.66-.42-4.81-3.15-8.5-7.37-10.96-12.14-2.7.77-5.31,1.43-7.92,2.09-9.47,2.38-18.99,4.78-27.31,11.09-1.96,1.77-3.96,3.85-5.99,6.3-.9,1.09-1.81,2.24-2.71,3.47h0ZM65.21,164.28l-19.17-12.24c-.42.7-.86,1.41-1.32,2.13-.06.1-.12.19-.19.28l-35.05,54.9,19.13,12.21,35.23-55.18h0c.46-.72.92-1.42,1.37-2.09Z"/>
  </g>
</svg>