<?xml version="1.0" encoding="UTF-8"?>
<svg id="Capa_2" data-name="Capa 2" xmlns="http://www.w3.org/2000/svg" viewBox="0 0 226.14 227.32">
  <defs>
    <style>
      .cls-1 {
        fill: #231f20;
        fill-rule: evenodd;
        stroke-width: 0px;
      }
    </style>
  </defs>
  <g id="Layer_1" data-name="Layer 1">
    <path class="cls-1" d="M65.22,0c18.22,0,33.59,14.98,44.8,35.97,12.78,23.93,20.36,56,20.36,81.66,0,17.87-3.43,31.34-9.75,41.29,1.2-.37,2.55-.29,3.75.33,5.5,2.83,12.04,5.05,18.68,6.61,2.78.65,5.57,1.18,8.31,1.59v-32.31l-14.01-10.22c-2.22-1.62-2.71-4.73-1.09-6.95s4.73-2.71,6.95-1.09l8.15,5.95v-34.6c0-2.76,2.24-5,5-5s5,2.24,5,5v15.65l9.95-10.19c1.92-1.97,5.08-2.02,7.05-.1,1.97,1.92,2.02,5.08.1,7.05l-17.1,17.51v25.47l15.24-14.97c1.96-1.93,5.12-1.9,7.05.06,1.93,1.96,1.9,5.12-.06,7.05l-22.23,21.83v10.8c.79.03,1.57.04,2.34.04,14.8,0,27.69-5.84,36.96-15.3.07-.08.14-.16.22-.24,9.55-9.87,15.26-23.63,15.26-38.84,0-.9,0-1.48-.01-1.76-.5-14.07-7.07-26.81-17.76-36.06-10.85-9.38-25.97-15.18-43.41-15.18-1.25,0-2.2.01-2.84.03-2.8.1-5.88.26-9.23.5-3.24.24-6.45.54-9.47.94-2.73.36-5.23-1.57-5.59-4.3-.36-2.73,1.57-5.23,4.3-5.59,3.46-.45,6.83-.78,10.05-1.01,3.11-.23,6.37-.39,9.58-.5,1.38-.05,2.44-.07,3.19-.07,19.92,0,37.33,6.74,49.93,17.64,12.76,11.03,20.59,26.32,21.2,43.25.04,1.01.05,1.71.05,2.11,0,17.85-6.76,34.06-18.07,45.75-.1.1-.2.2-.3.29-11.11,11.34-26.48,18.34-44.06,18.34-.76,0-1.54-.01-2.34-.04v24.14c11.74,3.9,23.25,9.05,34.25,15.52,2.37,1.39,3.17,4.44,1.78,6.82s-4.44,3.17-6.82,1.78c-11.29-6.65-23.17-11.82-35.27-15.6-.28-.06-.55-.15-.81-.25-15.45-4.74-31.24-7.22-46.65-7.59-15.29-.37-30.18,1.34-43.93,4.97-.27.1-.56.18-.85.23-12.11,3.27-23.31,8.04-33.12,14.2-2.33,1.47-5.41.77-6.88-1.56s-.77-5.41,1.56-6.88c9.74-6.12,20.74-10.96,32.57-14.45v-17.26c-16.01-.98-29.35-5.1-39.22-13.87C6.44,158.34,0,142.12,0,117.63S7.6,59.91,20.39,35.98C31.61,14.99,46.99,0,65.22,0h0ZM151.36,177.54c-3.47-.47-7.03-1.12-10.57-1.95-7.36-1.72-14.69-4.23-20.99-7.47-1.7-.87-2.68-2.59-2.7-4.37-1.45,1.74-3,3.34-4.67,4.82-11.08,9.86-26.53,13.84-45.25,14.09v14.46c13-2.89,26.79-4.22,40.88-3.89,14.29.34,28.9,2.4,43.29,6.28v-21.98h0ZM67.19,139.02l17.92-18.18c1.93-1.96,5.09-1.99,7.05-.06,1.96,1.93,1.99,5.09.06,7.05l-25.03,25.4v19.44c16.34-.24,29.57-3.51,38.61-11.55,9.36-8.32,14.58-22.13,14.58-43.48,0-24.23-7.13-54.47-19.15-76.97-9.56-17.89-22.03-30.66-36.01-30.66s-26.47,12.77-36.04,30.67c-12.03,22.5-19.18,52.73-19.18,76.96,0,21.35,5.24,35.16,14.61,43.48,7.91,7.03,19.01,10.41,32.58,11.31v-38.68l-23.94-26.08c-1.87-2.03-1.73-5.18.29-7.05,2.03-1.87,5.18-1.73,7.05.29l16.6,18.08v-55.34c0-2.76,2.24-5,5-5s5,2.24,5,5v18.96l8.64-8.81c1.93-1.96,5.09-1.99,7.05-.06,1.96,1.93,1.99,5.09.06,7.05l-15.75,16.05v42.17Z"/>
  </g>
</svg>