<?xml version="1.0" encoding="UTF-8"?>
<svg id="Capa_2" data-name="Capa 2" xmlns="http://www.w3.org/2000/svg" viewBox="0 0 239.97 227.79">
  <defs>
    <style>
      .cls-1 {
        fill: #231f20;
        fill-rule: evenodd;
        stroke-width: 0px;
      }
    </style>
  </defs>
  <g id="Layer_1" data-name="Layer 1">
    <path class="cls-1" d="M119.43,85.58c20.22.1,32.57,15.78,44.43,30.84,2.74,3.48,5.45,6.92,8.01,9.87h0s1.53,1.75,1.53,1.75c14.33,16.46,23.84,27.38,23.84,48.16,0,11.47-1.84,20.67-5.93,28.29-4.16,7.77-10.51,13.68-19.46,18.47-10.69,5.72-27.26,4.53-42.4,3.43-5.54-.4-10.88-.78-15.59-.78-6.17,0-11.97.57-17.52,1.11-14.46,1.42-27.46,2.69-39.71-5.21-6.97-4.5-12.27-10.29-15.83-17.41-3.51-7.02-5.3-15.21-5.3-24.6,0-17.46,11.7-30.85,24.45-45.44,2.32-2.65,4.68-5.35,6.65-7.7,3.66-4.35,6.76-8.91,9.72-13.27,10.15-14.94,18.78-27.64,43.09-27.52h0ZM222.81,74.36c-4.55-2.86-10.58-2.82-16.66-.44-6.61,2.6-13.15,7.9-18.05,15.29-.26.4-.47.72-.62.95-4.52,7.18-6.59,14.83-6.27,21.47.29,6.04,2.6,11.16,6.87,13.99l.28.19c4.55,2.86,10.58,2.82,16.66.44,6.61-2.6,13.15-7.9,18.05-15.29.26-.4.47-.72.62-.95,4.52-7.18,6.59-14.83,6.27-21.47-.29-6.04-2.6-11.16-6.87-13.99l-.28-.19h0ZM202.52,64.63c-8.42,3.31-16.67,9.93-22.74,19.08-.2.3-.44.68-.73,1.14-5.63,8.95-8.2,18.67-7.79,27.25.44,9.18,4.25,17.14,11.32,21.84l.48.3c7.4,4.66,16.65,4.81,25.6,1.29,8.42-3.31,16.67-9.93,22.74-19.08.2-.3.44-.68.73-1.14,5.63-8.95,8.2-18.67,7.79-27.25-.44-9.18-4.25-17.14-11.32-21.84l-.48-.3c-7.4-4.66-16.65-4.81-25.6-1.29h0ZM11.84,65.76l-.48.3C4.29,70.76.49,78.72.04,87.91c-.41,8.58,2.16,18.3,7.79,27.25.29.47.54.85.74,1.14,6.07,9.15,14.32,15.77,22.74,19.08,8.96,3.52,18.2,3.37,25.6-1.3l.48-.3c7.08-4.7,10.88-12.66,11.32-21.84.42-8.58-2.15-18.3-7.79-27.25-.29-.47-.54-.85-.74-1.14-6.07-9.15-14.32-15.77-22.74-19.08-8.96-3.52-18.2-3.37-25.6,1.3h0ZM33.81,73.76c-6.07-2.39-12.11-2.43-16.66.44l-.28.19c-4.27,2.83-6.58,7.95-6.87,13.99-.32,6.64,1.75,14.29,6.26,21.47.15.23.35.55.62.95,4.91,7.39,11.45,12.69,18.05,15.29,6.07,2.39,12.11,2.43,16.66-.44l.28-.19c4.27-2.83,6.58-7.95,6.87-13.99.32-6.64-1.75-14.29-6.26-21.47-.15-.23-.35-.55-.62-.95-4.91-7.39-11.45-12.69-18.05-15.29h0ZM76.95.16c8.68-1.01,17.08,2.84,23.66,9.89,6.17,6.61,10.75,16.13,12.29,27.01.08.57.14,1.02.18,1.35,1.23,10.49-.65,20.37-4.72,27.94-4.35,8.09-11.22,13.63-19.64,14.83l-.56.08c-8.68,1.01-17.08-2.84-23.66-9.89-6.17-6.61-10.75-16.13-12.29-27.01-.08-.57-.14-1.02-.18-1.35-1.23-10.49.65-20.37,4.72-27.94C61.1,6.98,67.96,1.43,76.39.24l.56-.08h0ZM93.3,16.84c4.85,5.2,8.47,12.8,9.71,21.58.04.26.08.63.14,1.12.99,8.44-.44,16.23-3.59,22.08-2.87,5.33-7.15,8.95-12.22,9.67l-.33.04c-5.36.63-10.78-2-15.22-6.76-4.85-5.2-8.47-12.8-9.71-21.58-.04-.26-.08-.63-.14-1.12-.99-8.44.44-16.23,3.59-22.08,2.87-5.33,7.15-8.95,12.22-9.67l.33-.04c5.36-.63,10.78,2,15.22,6.76h0ZM161.73.97c8.53,1.46,15.38,7.58,19.55,16.3,3.9,8.15,5.47,18.64,3.79,29.56l-.16.97c-1.82,10.64-6.44,19.8-12.49,26.06-6.51,6.73-14.69,10.22-23.07,8.93l-.06-.02-.29-.05h-.04c-8.53-1.46-15.38-7.58-19.55-16.3-3.9-8.15-5.47-18.64-3.79-29.56l.16-.97c1.82-10.64,6.44-19.8,12.49-26.06,6.51-6.73,14.69-10.22,23.07-8.93l.06.02.29.05h.04ZM172.3,21.57c3.06,6.4,4.27,14.83,2.89,23.78l-.12.78c-1.47,8.62-5.11,15.94-9.83,20.82-4.27,4.41-9.39,6.74-14.4,5.97h0s-.19-.02-.19-.02h0c-5.16-.89-9.46-4.93-12.25-10.76-3.06-6.4-4.27-14.83-2.89-23.78l.12-.78c1.47-8.62,5.11-15.94,9.83-20.82,4.27-4.41,9.39-6.74,14.4-5.97h0s.19.02.19.02h0c5.16.89,9.46,4.93,12.25,10.76h0ZM156.01,122.59c-10.41-13.22-21.24-26.98-36.62-27.06-19.02-.09-26.27,10.58-34.81,23.14-3.09,4.55-6.34,9.33-10.35,14.09-2.48,2.95-4.64,5.42-6.77,7.85-11.45,13.1-21.95,25.12-21.95,38.88,0,7.88,1.41,14.58,4.2,20.15,2.74,5.46,6.85,9.94,12.32,13.47,9.37,6.04,20.73,4.93,33.38,3.69,5.94-.58,12.14-1.19,18.46-1.19,4.87,0,10.47.4,16.29.82,13.8.99,28.89,2.08,37.01-2.26,7.17-3.83,12.18-8.44,15.36-14.37,3.25-6.07,4.71-13.75,4.71-23.6,0-17.05-8.53-26.84-21.38-41.6l-1.53-1.76v-.02c-2.94-3.39-5.63-6.79-8.33-10.23Z"/>
  </g>
</svg>