<?xml version="1.0" encoding="UTF-8"?>
<svg id="Capa_2" data-name="Capa 2" xmlns="http://www.w3.org/2000/svg" viewBox="0 0 261.85 227.32">
  <defs>
    <style>
      .cls-1 {
        fill: #231f20;
        fill-rule: evenodd;
        stroke-width: 0px;
      }
    </style>
  </defs>
  <g id="Layer_1" data-name="Layer 1">
    <path class="cls-1" d="M2.86,222.31c-1.92-1.97-1.88-5.13.1-7.05,1.97-1.92,5.13-1.88,7.05.1.81.83,1.63,1.34,2.42,1.62.82.3,1.66.39,2.45.38h.12c1.09.01,2.29-.17,3.42-.83,1.25-.74,2.53-2.13,3.7-4.57l.05-.09h0c1.84-3.62,4.12-6.16,6.57-7.88,3.11-2.18,6.42-3.01,9.5-3.05,2.64-.03,5.62.46,8.57,2.2h.01s0,0,0,0c2.79,1.64,5.46,4.36,7.58,8.73h0c1.05,2.05,2.21,3.4,3.41,4.24,1.28.9,2.63,1.24,3.87,1.25,1.09.01,2.29-.17,3.42-.83,1.25-.74,2.53-2.13,3.7-4.57l.05-.09h0c1.84-3.62,4.12-6.16,6.57-7.88,3.11-2.18,6.42-3.01,9.5-3.05,2.64-.03,5.62.46,8.57,2.2,2.83,1.67,5.52,4.41,7.65,8.83,1.18,2.44,2.45,3.83,3.7,4.57,1.12.66,2.32.85,3.42.83h.12c1.09.01,2.29-.17,3.42-.83,1.25-.74,2.53-2.13,3.7-4.57l.05-.09h0c1.84-3.62,4.12-6.16,6.57-7.88,3.11-2.18,6.42-3.01,9.5-3.05,2.64-.03,5.62.46,8.57,2.2h.01s0,0,0,0c2.79,1.64,5.46,4.36,7.58,8.73h0c1.05,2.05,2.22,3.4,3.41,4.24,1.28.9,2.63,1.24,3.87,1.25,1.09.01,2.29-.17,3.42-.83,1.25-.74,2.53-2.13,3.7-4.57l.05-.09h0c1.84-3.62,4.12-6.16,6.57-7.88,3.11-2.18,6.42-3.01,9.5-3.05,2.64-.03,5.62.46,8.57,2.2,2.83,1.67,5.52,4.41,7.65,8.83,1.18,2.44,2.45,3.83,3.7,4.57,1.12.66,2.32.85,3.42.83h.12c1.09.01,2.29-.17,3.42-.83,1.25-.74,2.53-2.13,3.7-4.57l.05-.09h0c1.84-3.62,4.12-6.16,6.57-7.88,3.11-2.18,6.42-3.01,9.5-3.05,2.64-.03,5.62.46,8.57,2.2,2.81,1.65,5.48,4.37,7.6,8.73h0c1.05,2.05,2.21,3.4,3.41,4.24,1.28.9,2.63,1.24,3.87,1.25.79,0,1.63-.08,2.45-.38.79-.29,1.61-.79,2.42-1.62,1.92-1.97,5.08-2.02,7.05-.1,1.97,1.92,2.02,5.08.1,7.05-1.95,2.02-4.06,3.28-6.17,4.05-2.08.75-4.11.99-5.96.97-3.08-.04-6.39-.86-9.5-3.05-2.45-1.72-4.73-4.26-6.57-7.88h0s-.05-.1-.05-.1c-1.18-2.44-2.45-3.83-3.7-4.57-1.12-.66-2.32-.85-3.42-.83-1.25.02-2.6.35-3.87,1.25-1.19.84-2.36,2.19-3.41,4.25h0c-2.12,4.36-4.8,7.07-7.6,8.73-2.93,1.73-5.89,2.22-8.51,2.2-2.62.02-5.58-.47-8.51-2.2-2.83-1.67-5.52-4.41-7.65-8.83-1.18-2.44-2.45-3.83-3.7-4.57-1.12-.66-2.32-.85-3.42-.83-1.25.02-2.6.36-3.87,1.25-1.19.84-2.36,2.19-3.41,4.25h0c-2.12,4.36-4.8,7.07-7.6,8.73-2.95,1.74-5.93,2.23-8.57,2.2-3.08-.04-6.39-.86-9.5-3.05-2.45-1.72-4.73-4.26-6.57-7.88h0s-.05-.1-.05-.1c-1.17-2.43-2.46-3.82-3.72-4.57h0c-1.12-.66-2.32-.85-3.4-.83-1.25.02-2.6.36-3.87,1.25-1.19.84-2.36,2.19-3.41,4.25h0c-2.12,4.36-4.8,7.07-7.6,8.73-2.93,1.73-5.89,2.22-8.51,2.2-2.62.02-5.58-.47-8.51-2.2-2.83-1.67-5.52-4.41-7.65-8.83-1.18-2.44-2.45-3.83-3.7-4.57-1.12-.66-2.32-.85-3.42-.83-1.25.02-2.6.36-3.87,1.25-1.19.84-2.36,2.19-3.41,4.25h0c-2.12,4.36-4.8,7.07-7.6,8.73-2.95,1.74-5.93,2.23-8.57,2.2-3.08-.04-6.39-.86-9.5-3.05-2.45-1.72-4.73-4.26-6.57-7.88h0s-.05-.1-.05-.1c-1.17-2.43-2.46-3.82-3.72-4.57h0c-1.12-.66-2.32-.85-3.4-.83-1.25.02-2.6.36-3.87,1.25-1.19.84-2.36,2.19-3.41,4.25h0c-2.12,4.36-4.8,7.07-7.6,8.73-2.93,1.73-5.89,2.22-8.51,2.2-1.84.02-3.85-.22-5.91-.97-2.11-.76-4.22-2.03-6.17-4.05h0ZM70.85,149.22h81.56v-20.02h-81.56v20.02h0ZM152.41,159.22h-81.56v13.19c1.39-1.93,2.94-3.42,4.56-4.56,3.11-2.19,6.42-3.01,9.5-3.05,2.64-.03,5.62.46,8.57,2.2,2.83,1.67,5.52,4.41,7.65,8.83,1.18,2.44,2.45,3.83,3.7,4.57,1.12.66,2.32.85,3.42.83h.12c1.09.01,2.29-.17,3.42-.83,1.25-.74,2.53-2.13,3.7-4.57l.05-.09h0c1.84-3.62,4.12-6.16,6.57-7.88,3.11-2.18,6.42-3.01,9.5-3.05,2.64-.03,5.62.46,8.57,2.2,2.81,1.65,5.48,4.37,7.6,8.73h0c1.05,2.05,2.22,3.4,3.41,4.24.41.29.82.51,1.23.69v-21.45h0ZM258.64,57.68c0,4.1-1.68,7.82-4.39,10.53-2.71,2.69-6.43,4.36-10.54,4.36s-7.83-1.67-10.54-4.36c-2.71-2.7-4.39-6.43-4.39-10.53v-4.33c0-6.39-2.62-12.2-6.83-16.42-4.22-4.22-10.03-6.83-16.42-6.83s-12.2,2.62-16.42,6.83c-4.22,4.22-6.83,10.03-6.83,16.42v36.76h68.81c2.76,0,5,2.24,5,5s-2.24,5-5,5h-68.81v65.08c1.5.33,3.04.9,4.58,1.8,2.83,1.67,5.52,4.41,7.65,8.83,1.18,2.44,2.45,3.83,3.7,4.57,1.12.66,2.32.85,3.42.83h.12c1.09.01,2.29-.17,3.42-.83,1.25-.74,2.53-2.13,3.7-4.57l.05-.09h0c1.84-3.62,4.12-6.16,6.57-7.88,3.11-2.18,6.42-3.01,9.5-3.05,2.64-.03,5.62.46,8.57,2.2,2.81,1.65,5.48,4.37,7.6,8.73h0c1.05,2.05,2.21,3.4,3.41,4.24,1.28.9,2.63,1.24,3.87,1.25.79,0,1.63-.08,2.45-.38.79-.29,1.61-.79,2.42-1.62,1.92-1.97,5.08-2.02,7.05-.1,1.97,1.92,2.02,5.08.1,7.05-1.95,2.02-4.06,3.28-6.17,4.05-2.08.75-4.11.99-5.96.97-3.08-.04-6.39-.86-9.5-3.05-2.45-1.72-4.73-4.26-6.57-7.88h0s-.05-.1-.05-.1c-1.18-2.44-2.45-3.83-3.7-4.57-1.12-.66-2.32-.85-3.42-.83-1.25.02-2.6.35-3.87,1.25-1.19.84-2.36,2.19-3.41,4.25h0c-2.12,4.36-4.8,7.07-7.6,8.73-2.93,1.73-5.89,2.22-8.51,2.2-2.62.02-5.58-.47-8.51-2.2-2.83-1.67-5.52-4.41-7.65-8.83-1.18-2.44-2.45-3.83-3.7-4.57-1.12-.66-2.32-.85-3.42-.83-.1,0-.2,0-.3,0-.21.03-.43.06-.64.06-.97.14-1.97.5-2.93,1.18-1.19.84-2.36,2.19-3.41,4.25h0c-2.12,4.36-4.8,7.07-7.6,8.73-1.59.94-3.18,1.51-4.73,1.84-.31.09-.63.15-.95.17-.99.15-1.96.2-2.89.19-3.08-.04-6.39-.86-9.5-3.05-2.45-1.72-4.73-4.26-6.57-7.88h0s-.05-.1-.05-.1c-1.18-2.44-2.45-3.83-3.7-4.57-1.12-.66-2.32-.85-3.42-.83-1.25.02-2.6.35-3.87,1.25-1.19.84-2.36,2.19-3.41,4.25h0c-2.12,4.36-4.8,7.07-7.6,8.73-2.93,1.73-5.89,2.22-8.51,2.2-2.62.02-5.58-.47-8.51-2.2-2.83-1.67-5.52-4.41-7.65-8.83-1.18-2.44-2.45-3.83-3.7-4.57-1.12-.66-2.32-.85-3.42-.83-1.25.02-2.6.35-3.87,1.25-1.19.84-2.36,2.19-3.41,4.25h0c-2.12,4.36-4.8,7.07-7.6,8.73-.71.42-1.41.76-2.12,1.04-.29.14-.59.25-.91.33-1.93.64-3.81.84-5.55.82-3.08-.04-6.39-.86-9.5-3.05-2.45-1.72-4.73-4.26-6.57-7.88h0s-.05-.1-.05-.1c-1.18-2.44-2.45-3.83-3.7-4.57-1.12-.66-2.32-.85-3.42-.83-1.25.02-2.6.35-3.87,1.25-1.19.84-2.36,2.19-3.41,4.25h0c-2.12,4.36-4.8,7.07-7.6,8.73-2.93,1.73-5.89,2.22-8.51,2.2-1.84.02-3.85-.22-5.91-.97-2.11-.76-4.22-2.03-6.17-4.05-1.92-1.97-1.88-5.13.1-7.05,1.97-1.92,5.13-1.88,7.05.1.81.83,1.63,1.34,2.42,1.62.82.3,1.66.39,2.45.38h.12c1.09.01,2.29-.17,3.42-.83,1.25-.74,2.53-2.13,3.7-4.57l.05-.09h0c1.84-3.62,4.12-6.16,6.57-7.88,3.11-2.18,6.42-3.01,9.5-3.05.89-.01,1.82.04,2.77.17v-64.87H5c-2.76,0-5-2.24-5-5s2.24-5,5-5h35.99v-36.99c0-14.61,5.97-27.89,15.6-37.52S79.5,0,94.11,0s27.89,5.97,37.51,15.6c9.62,9.62,15.6,22.9,15.6,37.51v4.57c0,4.1-1.68,7.82-4.39,10.53-2.71,2.69-6.43,4.36-10.54,4.36s-7.83-1.67-10.54-4.36c-2.71-2.7-4.39-6.43-4.39-10.53v-4.33c0-6.39-2.62-12.2-6.83-16.42-4.22-4.22-10.03-6.83-16.42-6.83s-12.2,2.62-16.42,6.83c-4.22,4.22-6.83,10.03-6.83,16.42v36.77h81.56s0-37.01,0-37.01c0-14.61,5.97-27.89,15.6-37.52S190.92,0,205.53,0s27.89,5.97,37.51,15.6c9.62,9.62,15.6,22.9,15.6,37.51v4.57h0ZM238.78,57.68c0,1.36.54,2.58,1.42,3.46.89.88,2.13,1.43,3.51,1.43s2.62-.55,3.51-1.43c.88-.88,1.42-2.1,1.42-3.46v-4.57c0-11.85-4.85-22.63-12.67-30.44-7.82-7.82-18.59-12.67-30.44-12.67s-22.63,4.85-30.45,12.67c-7.82,7.82-12.67,18.6-12.67,30.45v122.22c1.81-3.41,4.01-5.83,6.37-7.49,1.14-.8,2.31-1.42,3.49-1.89V53.35c0-9.15,3.74-17.46,9.76-23.49,6.02-6.02,14.34-9.76,23.49-9.76s17.46,3.74,23.49,9.76c6.02,6.02,9.76,14.34,9.76,23.49v4.33h0ZM152.41,119.2v-19.11h-81.56s0,19.11,0,19.11h81.56ZM127.36,57.68v-4.33c0-9.15-3.74-17.46-9.76-23.49-6.02-6.02-14.34-9.76-23.49-9.76s-17.46,3.74-23.49,9.76c-6.02,6.02-9.76,14.34-9.76,23.49v127.82c-1-.13-2.05-.49-3.04-1.19-1.19-.84-2.36-2.19-3.41-4.25h0c-1.02-2.1-2.17-3.82-3.4-5.22V53.12c0-11.85,4.85-22.63,12.67-30.45s18.6-12.67,30.45-12.67,22.63,4.85,30.44,12.67c7.82,7.82,12.67,18.59,12.67,30.44v4.57c0,1.36-.54,2.58-1.42,3.46-.89.88-2.13,1.43-3.51,1.43s-2.62-.55-3.51-1.43c-.88-.88-1.42-2.1-1.42-3.46Z"/>
  </g>
</svg>