<?xml version="1.0" encoding="UTF-8"?>
<svg id="Capa_2" data-name="Capa 2" xmlns="http://www.w3.org/2000/svg" viewBox="0 0 734.35 321.34">
  <defs>
    <style>
      .cls-1, .cls-2 {
        stroke-width: 0px;
      }

      .cls-2 {
        fill: #004a2f;
      }
    </style>
  </defs>
  <g id="Capa_1-2" data-name="Capa 1">
    <g>
      <path class="cls-2" d="M440,0v70.78h-71V0h71ZM405.23,36.08c-5.3,6.35-10.28,12.31-15.25,18.27.36.36.73.72,1.09,1.08,7.22-3.27,9.92-11.52,16.21-16.23,3.93,5.18,7.8,10.3,12.29,16.21,1.6-19.27.67-37.56-2.69-39.86v29.63c-7.56-8.73-13.96-17.62-20.51-26.38-.99-1.33-2.73-2.1-4.12-3.13-.32.39-.64.79-.97,1.18,4.57,6.29,9.13,12.58,13.96,19.24Z"/>
      <path class="cls-2" d="M366,0c.21,1.3.61,2.6.61,3.89.04,21.12.03,42.25,0,63.37,0,1.12-.24,2.25-.4,3.61-1.47.14-2.76.37-4.05.37-20.63.02-41.25,0-61.88.02-2.41,0-4.63.21-4.6-3.42.18-22.62.22-45.23.31-67.85,23.33,0,46.67,0,70,0ZM344.64,55.46c.32-.45.64-.9.95-1.35-3.41-4.06-6.86-8.09-10.22-12.19-5.89-7.18-5.6-4.6-.28-12.18,3.09-4.4,6.31-8.7,9.47-13.04-.44-.43-.89-.85-1.33-1.28-1.31,1.11-2.89,2.02-3.9,3.37-5.87,7.87-11.59,15.84-17.39,23.76-.68.93-1.56,1.71-2.96,3.24,0-9.38.06-17.7-.06-26.01-.02-1.33-.83-2.65-1.28-3.98l-1.44.41v39.41c4.55-6.17,8.34-11.31,12.12-16.44,6.41,4.6,9.05,12.97,16.32,16.29Z"/>
      <path class="cls-1" d="M0,179c2.07-.33,4.14-.65,6.68-1.06v56.8c2.12-1.93,3.41-3.01,4.6-4.2,15.98-16.05,32.04-32.01,47.82-48.25,3.5-3.6,7.02-5.06,11.66-3.81-13.11,13.04-26.26,26.12-39.76,39.55,13.94,16.82,27.17,32.79,40.8,49.24-4.58,1.1-7.7.77-10.71-2.94-11-13.58-22.34-26.87-33.66-40.4-6.79,6.55-13.51,12.88-19.99,19.43-.82.83-.57,2.84-.58,4.31-.05,6.48-.02,12.96-.02,20.32-2.52-.37-4.67-.68-6.82-1,0-29.33,0-58.67,0-88Z"/>
      <path class="cls-2" d="M366.32,144.59h-70.11v-70.23h70.11v70.23ZM316.25,129.03c4.57-6.14,8.38-11.26,12.21-16.41,6.17,5.11,9.18,12.79,15.94,16.47.42-.4.84-.79,1.26-1.19-5.01-6.08-10.02-12.16-15.12-18.35,4.74-6.55,9.28-12.82,13.82-19.09-.39-.43-.77-.86-1.16-1.29-1.31,1.04-2.91,1.86-3.88,3.15-4.99,6.65-9.82,13.43-14.72,20.16-1.58,2.17-3.21,4.32-5.63,7.58,0-9.92.06-18.24-.06-26.55-.02-1.36-.77-2.71-1.19-4.07-.5.12-1,.24-1.5.37v39.24Z"/>
      <path class="cls-2" d="M369.43,74.26h70.17v70.2h-70.17v-70.2ZM390.07,127.79c.49.5.98,1,1.48,1.5,6.38-4.16,9.71-11.57,15.78-16.71,3.95,5.39,7.71,10.52,11.47,15.64,1.11-12.5,1.14-24.58,1.04-36.65,0-.74-1.08-1.48-1.66-2.22-.39.13-.78.27-1.18.4v30.38c-1.89-2.38-2.93-3.59-3.86-4.87-5.6-7.67-11.12-15.38-16.8-22.99-.97-1.3-2.58-2.13-3.89-3.17-.4.42-.79.83-1.19,1.25,4.63,6.39,9.25,12.77,13.96,19.27-5.22,6.26-10.19,12.21-15.16,18.17Z"/>
      <path class="cls-1" d="M277.81,178.48h6.97c0,8.37-.12,16.49.03,24.61.22,11.97-.11,24.02,1.17,35.89,1.51,13.94,9.76,21.25,23.9,22.2,5.69.38,11.85.09,17.17-1.73,13.24-4.52,16.63-15.9,16.91-28.37.36-15.65.13-31.31.16-46.97,0-1.8,0-3.6,0-5.63h5.54c.18,1.13.5,2.23.5,3.34.02,16.82-.13,33.65,0,50.47.23,30.01-19.41,37.02-41.29,35.17-4.88-.41-9.86-1.8-14.39-3.7-8.11-3.4-13.59-10.07-14.14-18.62-1.41-22.03-1.75-44.12-2.53-66.67Z"/>
      <path class="cls-1" d="M555.77,267.13c-4.71,1.59-6.52-.26-8.16-3.89-11.29-25-22.82-49.89-34.28-74.81-.2-.43-.52-.8-1.1-1.69-.94,1.91-1.77,3.49-2.51,5.11-10.93,23.89-21.93,47.74-32.66,71.72-1.72,3.85-3.88,4.91-7.92,3.73.5-1.32.88-2.56,1.42-3.72,12.55-27.17,25.09-54.35,37.77-81.45.76-1.63,2.62-3.42,4.24-3.73,1.03-.2,3.08,1.95,3.79,3.46,12.66,27.12,25.19,54.3,37.74,81.47.54,1.17,1.05,2.36,1.69,3.8Z"/>
      <path class="cls-1" d="M125.65,187.2c-.99,1.99-1.89,3.67-2.68,5.4-10.77,23.6-21.6,47.16-32.19,70.84-1.74,3.9-3.83,5.46-8.08,3.95.41-1.07.77-2.16,1.25-3.2,12.69-27.47,25.36-54.95,38.18-82.36.7-1.49,2.49-3.13,3.98-3.37,1.04-.16,2.95,1.72,3.6,3.11,12.94,27.72,25.75,55.5,38.58,83.27.34.73.57,1.52.9,2.38-4.24,1.69-6.25.11-7.98-3.74-11.27-25-22.78-49.9-34.23-74.83-.18-.4-.61-.69-1.32-1.46Z"/>
      <path class="cls-1" d="M375.04,178.53c4.77-1.48,6.7.43,8.41,4.23,10.62,23.66,21.5,47.21,32.3,70.79.75,1.63,1.56,3.24,2.7,5.58,2.6-6.03,4.76-11.37,7.19-16.59,9.52-20.51,19.04-41.02,28.85-61.39.9-1.88,3.88-2.76,5.9-4.1l1.29,1.39c-.63,1.58-1.18,3.19-1.89,4.73-12.3,26.55-24.58,53.11-37.03,79.6-.83,1.77-2.8,3.75-4.54,4.09-1.08.21-3.24-2.27-4.03-3.95-12.48-26.65-24.83-53.37-37.2-80.07-.62-1.34-1.22-2.69-1.96-4.31Z"/>
      <path class="cls-1" d="M218.92,267.58h-6.01c0-9.34.17-18.46-.11-27.57-.08-2.65-.92-5.6-2.34-7.82-10.52-16.38-21.28-32.61-31.96-48.9-.9-1.37-1.73-2.79-2.62-4.24,6.11-1.61,6.28-1.56,9.32,3.09,10.03,15.3,20.05,30.59,30.46,46.47,1.31-1.92,2.36-3.36,3.31-4.85,8.56-13.49,17.27-26.88,25.55-40.54,2.43-4.01,5.12-5.2,9.85-3.69-.99,1.63-1.88,3.17-2.83,4.66-9.82,15.45-19.79,30.81-29.36,46.41-1.87,3.05-2.93,6.99-3.12,10.59-.44,8.62-.14,17.27-.14,26.39Z"/>
      <path class="cls-1" d="M698.99,267.58h-5.98c0-9.17.19-18.28-.11-27.37-.09-2.8-.98-5.92-2.48-8.26-10.4-16.25-21.07-32.33-31.64-48.47-.97-1.48-1.84-3.02-2.86-4.7,4.62-1.44,7.28-.28,9.76,3.64,9.67,15.31,19.74,30.38,30.08,46.19,1.31-1.89,2.35-3.3,3.28-4.77,8.56-13.48,17.27-26.86,25.54-40.51,2.41-3.97,5.09-5.26,9.76-3.89-.73,1.33-1.36,2.61-2.12,3.81-8.73,13.76-17.14,27.75-26.35,41.18-5.13,7.47-7.83,15.01-7,24.1.57,6.23.11,12.56.11,19.07Z"/>
      <path class="cls-1" d="M632.69,178.58c.08,1.7.15,3.3.26,5.68h-32.63v83.26h-6.03v-83.09c-9.43,0-18.23-.15-27.02.06-4.3.1-5.93-1.3-4.42-5.91h69.84Z"/>
      <path class="cls-1" d="M519.52,311.25c3.11,2.67,6.21,5.33,9.32,8-.34.58-.69,1.15-1.03,1.73-6.73-7.96-13.94-14.64-25.91-10.13v9.13c-.42-.01-.84-.02-1.26-.03v-27.33c7.86,0,15.93-.3,23.97.12,4.51.23,5.76,4.03,5.81,7.98.04,4.08-.93,7.69-5.72,8.64-1.45.29-2.93.45-4.39.67-.26.41-.52.82-.78,1.23ZM502.23,294.16v13.82c7.23,0,14.15.16,21.07-.06,4.25-.13,5.44-3.27,5.43-6.94,0-3.76-1.53-6.65-5.67-6.77-6.77-.2-13.55-.05-20.83-.05Z"/>
      <path class="cls-1" d="M265.28,306.82h-26.55v11.92h26.59c.01.61.03,1.22.04,1.82-3.31,0-6.61,0-9.92,0-4.99,0-9.99.18-14.96-.14-1.26-.08-3.44-1.71-3.48-2.68-.28-8.27-.16-16.56-.16-25.16h28.62l.06.99h-26.61v11.76h26.32c.02.49.04.99.06,1.48Z"/>
      <path class="cls-1" d="M325.06,321.06c-1.7-.23-4.21-.37-6.62-.92-7.41-1.71-10.44-5.71-10.47-13.55-.04-7.94,2.85-12.22,10.17-13.75,3.84-.8,7.94-.88,11.88-.66,8.76.49,13.41,5.19,13.79,13.34.4,8.68-3.68,13.65-12.49,15.09-1.8.29-3.64.27-6.26.45ZM326.12,294.02c-1.66,0-3.35-.16-4.99.03-9.47,1.11-14.32,8.88-10.7,17.71,3.18,7.74,10.39,7.3,17.05,7.26,8.01-.05,12.3-2.7,13.95-8.09,3.22-10.49-2.64-17.01-15.32-16.9Z"/>
      <path class="cls-1" d="M163.68,294.37v25.51l-1.13-.02v-28.99c9.98,9.39,19.12,17.99,29.39,27.66v-25.43c.38,0,.76.02,1.14.03v27.11c-.39.25-.78.51-1.17.76-9-8.49-17.99-16.97-28.23-26.63Z"/>
      <path class="cls-1" d="M393.47,320.96c-9.04-8.53-18.07-17.06-28.17-26.6v25.11h-1.12v-28.46c9.94,9.28,18.93,17.67,29.11,27.18v-25.24c.46.02.92.04,1.38.07v26.96c-.4.33-.8.66-1.21.98Z"/>
      <path class="cls-1" d="M460.4,319.65c5.26-8.62,10.46-17.28,15.9-25.79.42-.66,3.36-.81,3.7-.28,5.49,8.58,10.76,17.32,15.57,26.76-3.44-8.94-10.79-7.04-17.49-7.28-6.86-.24-13.71-.98-16.5,8.26-.39-.56-.79-1.11-1.18-1.67ZM478.28,293.66c-3.78,6.22-7.05,11.62-10.68,17.6h21.27c-3.63-6.03-6.83-11.34-10.59-17.6Z"/>
      <path class="cls-1" d="M433.72,321.34c-2.65-10.25-10.27-8.02-17.01-8.25-6.75-.23-13.59-.98-16.42,8.21-.36-.52-.72-1.05-1.07-1.57,5.32-8.71,10.58-17.46,16.1-26.05.33-.52,3.51-.25,4,.52,5.36,8.37,10.44,16.92,15.6,25.41-.4.58-.8,1.15-1.2,1.73ZM406.54,311.15h21.15c-3.64-6.02-6.85-11.33-10.56-17.46-3.7,6.11-6.98,11.51-10.58,17.46Z"/>
      <path class="cls-1" d="M230.42,292.76c0,5.89.66,11.88-.17,17.66-1.04,7.29-6.75,10.63-15.76,10.48-8.29-.14-13.61-3.62-14.53-10.72-.73-5.63-.15-11.43,1.02-17.27,0,1.77,0,3.53,0,5.3,0,1.83,0,3.66,0,5.49.04,11.72,5.27,16.49,16.73,15.31,7.25-.75,11.12-4.76,11.35-12.05.15-4.73.03-9.47.03-14.21.44,0,.88,0,1.32,0Z"/>
      <path class="cls-1" d="M305.91,293.05c-5.25,8.74-10.45,17.52-15.89,26.14-.34.54-3.33.41-3.75-.26-5.35-8.53-10.45-17.21-15.61-25.85.46-.3.91-.59,1.37-.89,5.3,8.64,10.59,17.28,16.28,26.56,5.64-9.3,10.9-17.96,16.16-26.62.48.3.95.6,1.43.9Z"/>
      <path class="cls-1" d="M557.43,319.65c0-6.94-.18-13.89.07-20.82.13-3.68-.97-5.18-4.77-4.82-3.06.29-6.16.06-9.24.06,0-.41.02-.81.03-1.22h29.64c.02.41.03.81.05,1.22-3.36,0-6.73.14-10.08-.04-3.02-.16-4.13.96-4.06,4.01.16,7.22.05,14.45.05,21.68-.56-.02-1.11-.05-1.67-.07Z"/>
      <path class="cls-1" d="M431.27,291.56c5.86,5.9,10.69,10.76,16.1,16.21,5.34-5.74,10.05-10.81,14.75-15.87.43.4.87.8,1.3,1.2-2.8,2.98-5.41,6.18-8.46,8.88-4.62,4.09-7.7,8.59-6.43,15.11.16.83-.26,1.78-1.15,2.95,3.2-13.91-9.77-18.51-16.12-28.49Z"/>
      <path class="cls-1" d="M537.66,293.06v26.71c-.25,0-.49,0-.74.01v-26.71c.25,0,.49,0,.74-.01Z"/>
    </g>
  </g>
</svg>