<?xml version="1.0" encoding="UTF-8"?>
<svg id="Capa_2" data-name="Capa 2" xmlns="http://www.w3.org/2000/svg" viewBox="0 0 217.26 226.34">
  <defs>
    <style>
      .cls-1 {
        fill: #231f20;
        fill-rule: evenodd;
        stroke-width: 0px;
      }
    </style>
  </defs>
  <g id="Layer_1" data-name="Layer 1">
    <path class="cls-1" d="M69.01,170.52l18.58-19.34h-37.92l19.34,19.34h0ZM6.27,226.34c-2.76,0-5-2.24-5-5s2.24-5,5-5h58.79v-38.46l-21.38-21.38c-.27.27-.58.5-.93.69-1.75.93-3.61,1.69-5.55,2.25-1.92.56-3.9.92-5.91,1.08h-.18c-7.96.57-15.41-2.14-21.03-6.99-5.64-4.86-9.42-11.88-10.01-19.9-.59-8,2.13-15.49,7-21.13,4.86-5.64,11.88-9.42,19.9-10.01,8-.59,15.49,2.13,21.13,7,4.74,4.09,8.18,9.71,9.49,16.17h30.77l21.6-39.65c1.05-1.93,3.47-2.65,5.41-1.59s2.65,3.47,1.59,5.41l-19.52,35.83h16.34c1,.01,1.99.38,2.77,1.12,1.59,1.53,1.64,4.05.11,5.64l-43.59,45.4v38.52h25.35v-51.94c0-2.21,1.79-4,4-4s4,1.79,4,4v17.93h51.65v-79.06h-34.89c-2.21,0-4-1.79-4-4s1.79-4,4-4h34.89v-3.35c0-5.94-1.83-11.41-4.94-15.84-3.18-4.53-7.69-7.99-12.92-9.75-1.67-.56-2.72-2.11-2.72-3.78h-.01V20.82c0-2.21,1.79-4,4-4h5.28v-4.09c0-1.3-.53-2.48-1.39-3.34-.86-.86-2.04-1.39-3.34-1.39h-18.95c-1.3,0-2.48.53-3.34,1.39s-1.39,2.04-1.39,3.34v4.09h5.28c2.21,0,4,1.79,4,4v41.53c0,1.87-1.29,3.44-3.03,3.88-3.19,1.02-6.1,2.66-8.6,4.77-2.6,2.19-4.79,4.92-6.43,8.02-1.03,1.95-3.44,2.7-5.39,1.67-1.95-1.03-2.7-3.44-1.67-5.39,2.1-3.99,4.95-7.52,8.37-10.4,2.63-2.21,5.58-4.03,8.75-5.35V24.82h-3.1c-1.68,0-3.22-.69-4.35-1.8l-.02-.02c-1.12-1.13-1.81-2.67-1.81-4.35v-5.91c0-3.5,1.43-6.69,3.74-8.99,2.31-2.31,5.49-3.74,8.99-3.74h18.95c3.51,0,6.69,1.43,8.99,3.74s3.74,5.49,3.74,8.99v5.91c0,1.51-.56,2.9-1.48,3.99-.1.13-.22.26-.34.38-1.12,1.12-2.67,1.81-4.37,1.81h-3.1v35.01c5.7,2.5,10.6,6.58,14.19,11.69,4.03,5.75,6.41,12.8,6.41,20.4v124.42h46.19c2.76,0,5,2.24,5,5s-2.24,5-5,5H6.27ZM106.41,216.34h51.65v-26.01h-51.65v26.01h0ZM54.28,133.66c-.1,0-.21,0-.31,0h-21.82l9.52,9.52h53.6l9.14-9.52h-50.13ZM49.38,125.66c-1.15-4.01-3.45-7.51-6.5-10.14-4.08-3.52-9.52-5.49-15.35-5.06-5.81.43-10.9,3.17-14.43,7.26-3.52,4.08-5.49,9.52-5.06,15.35.43,5.81,3.17,10.9,7.26,14.43,4.07,3.51,9.48,5.47,15.28,5.06h.11c1.51-.12,2.94-.38,4.29-.77,1.01-.29,1.98-.65,2.91-1.08l-.69-.69-.05-.05-17.47-17.47c-.74-.73-1.19-1.73-1.19-2.85,0-2.21,1.79-4,4-4h26.88Z"/>
  </g>
</svg>