<?xml version="1.0" encoding="UTF-8"?>
<svg id="Capa_2" data-name="Capa 2" xmlns="http://www.w3.org/2000/svg" viewBox="0 0 260.01 196.46">
  <defs>
    <style>
      .cls-1 {
        fill: #231f20;
        fill-rule: evenodd;
        stroke-width: 0px;
      }
    </style>
  </defs>
  <g id="Layer_1" data-name="Layer 1">
    <path class="cls-1" d="M170.57,0c9.73,0,18.54,3.94,24.92,10.32,6.38,6.38,10.32,15.19,10.32,24.92s-3.94,18.54-10.32,24.92-15.19,10.32-24.92,10.32-18.54-3.94-24.92-10.32c-6.38-6.38-10.32-15.19-10.32-24.92s3.94-18.54,10.32-24.92S160.84,0,170.57,0h0ZM21.86,196.46c-2.75-.01-4.97-2.25-4.96-5,.01-2.75,2.25-4.97,5-4.96,3.73.03,7.9-.38,11.91-1.85,3.84-1.41,7.59-3.82,10.69-7.83l.09-.11h0c3.82-4.67,8.39-7.88,13.23-9.99,5.66-2.48,11.66-3.41,17.19-3.45,4.76-.04,10.11.51,15.38,2.44,5.4,1.98,10.66,5.37,15.06,11h0c2.75,3.35,6.03,5.65,9.48,7.16,4.31,1.89,8.94,2.6,13.25,2.63,3.73.03,7.9-.38,11.91-1.85,3.85-1.41,7.59-3.82,10.69-7.83l.09-.11h0c3.82-4.67,8.39-7.88,13.23-9.99,5.66-2.48,11.66-3.41,17.19-3.45,4.76-.04,10.11.51,15.38,2.44,5.43,1.99,10.73,5.42,15.15,11.12,3.11,4.01,6.85,6.43,10.69,7.83,4.01,1.47,8.17,1.88,11.91,1.85,2.75-.01,4.99,2.21,5,4.96.01,2.75-2.21,4.99-4.96,5-4.76.04-10.11-.51-15.38-2.44-5.43-1.99-10.73-5.42-15.15-11.12-3.11-4.01-6.85-6.43-10.69-7.83-4.01-1.47-8.17-1.88-11.91-1.85-4.3.03-8.93.75-13.25,2.63-3.45,1.51-6.73,3.81-9.48,7.17h0c-4.4,5.63-9.66,9.02-15.06,11-5.27,1.93-10.63,2.47-15.38,2.44-5.54-.04-11.53-.98-17.19-3.45-4.84-2.12-9.41-5.32-13.23-9.98h0s-.09-.12-.09-.12c-3.11-4.01-6.85-6.43-10.69-7.83-4.01-1.47-8.17-1.88-11.91-1.85-4.3.03-8.93.75-13.25,2.63-3.45,1.51-6.73,3.81-9.48,7.17h0c-4.4,5.63-9.66,9.02-15.06,11-5.27,1.93-10.63,2.47-15.38,2.44h0ZM21.86,158.38c-2.75-.01-4.97-2.25-4.96-5,.01-2.75,2.25-4.97,5-4.96,3.73.03,7.9-.38,11.91-1.85,3.84-1.41,7.59-3.82,10.69-7.83l.09-.11h0c3.82-4.67,8.39-7.87,13.23-9.99,5.66-2.48,11.66-3.41,17.19-3.45,4.76-.04,10.11.51,15.38,2.44,5.4,1.98,10.66,5.37,15.06,11.01h0c2.75,3.35,6.03,5.65,9.48,7.16,4.31,1.89,8.94,2.6,13.25,2.63,3.73.03,7.9-.38,11.91-1.85,3.85-1.41,7.59-3.82,10.69-7.83l.09-.11h0c3.82-4.67,8.39-7.87,13.23-9.99,5.66-2.48,11.66-3.41,17.19-3.45,4.76-.04,10.11.51,15.38,2.44,5.43,1.99,10.73,5.42,15.15,11.12,3.11,4.01,6.85,6.43,10.69,7.83,4.01,1.47,8.17,1.88,11.91,1.85,2.75-.01,4.99,2.21,5,4.96s-2.21,4.99-4.96,5c-4.76.04-10.11-.51-15.38-2.44-5.43-1.99-10.73-5.42-15.15-11.12-3.11-4.01-6.85-6.43-10.69-7.83-4.01-1.47-8.17-1.88-11.91-1.85-4.3.03-8.93.75-13.25,2.63-3.45,1.51-6.73,3.81-9.48,7.17h0c-4.4,5.63-9.66,9.02-15.06,11-5.27,1.93-10.63,2.47-15.38,2.44-5.54-.04-11.53-.98-17.19-3.45-4.84-2.12-9.41-5.32-13.23-9.98h0s-.09-.12-.09-.12c-3.11-4.01-6.85-6.43-10.69-7.83-4.01-1.47-8.17-1.88-11.91-1.85-4.3.03-8.93.75-13.25,2.63-3.45,1.51-6.73,3.81-9.48,7.17h0c-4.4,5.63-9.66,9.02-15.06,11-5.27,1.93-10.63,2.47-15.38,2.44h0ZM215.64,124.63l39.2-39.2c.12-.12.24-.25.35-.39,5.74-6.24,5.88-13.62,2.93-19.89-1.14-2.42-2.77-4.66-4.72-6.56-1.94-1.89-4.2-3.46-6.63-4.56-6.48-2.93-14.05-2.66-20.04,3.27h0s0,0,0,0l-30.02,30.02c-2.68,2.42-5.23,4.12-8.07,4.67-2.96.58-6.6.02-11.55-2.09l-87.95-44.8c-7.36-4.53-14.77-6.38-21.63-5.8-7.35.63-13.97,3.99-19.2,9.79L4.49,92.73C-.08,97.59-.84,103.25.78,108.19c.75,2.31,2.04,4.43,3.71,6.2,1.65,1.75,3.67,3.18,5.92,4.11,5.07,2.1,11.2,1.82,16.7-2.57.15-.12.29-.25.42-.38h0s27.14-27.13,27.14-27.13c3.45-2.98,6.65-4.43,9.61-4.34,3,.09,6.11,1.8,9.33,5.14l.07.07h0s6.06,6.07,6.06,6.07l.15.15c.19.22.3.35.3.38,0,.12-.05-.05-.16-.04l-.03-.03-15.48,15.48c-1.95,1.95-1.95,5.12,0,7.07s5.12,1.95,7.07,0l15.48-15.48h0s.07-.08.07-.08c2.18-2.26,3.11-4.71,3.01-7.28-.09-2.41-1.1-4.62-2.83-6.64-.15-.21-.32-.41-.51-.6l-6.06-6.06h0c-5.09-5.23-10.49-7.93-16.18-8.1-5.55-.17-11.03,2.11-16.44,6.8-.2.15-.4.32-.58.5l-26.89,26.89c-2.2,1.63-4.52,1.75-6.41.97-.94-.39-1.79-.99-2.49-1.73-.67-.72-1.19-1.56-1.48-2.45-.55-1.7-.23-3.71,1.49-5.53l43.56-43.39c.13-.12.26-.24.38-.38,3.49-3.87,7.83-6.11,12.61-6.52,4.8-.41,10.13.98,15.59,4.35.18.12.36.23.56.33l88.22,44.93c.1.05.19.09.29.14,7.03,3.03,12.61,3.75,17.57,2.78,4.94-.97,8.91-3.52,12.85-7.08.14-.11.27-.23.4-.36l30-30h0c2.55-2.53,5.93-2.57,8.89-1.24,1.38.62,2.67,1.52,3.78,2.61,1.1,1.07,2.01,2.33,2.65,3.67,1.31,2.79,1.27,6.07-1.22,8.84l-39.31,39.3c-1.95,1.95-1.95,5.12,0,7.07,1.95,1.95,5.12,1.95,7.07,0h0ZM188.42,17.39c-4.57-4.57-10.88-7.39-17.85-7.39s-13.28,2.83-17.85,7.39c-4.57,4.57-7.39,10.88-7.39,17.85s2.83,13.28,7.39,17.85c4.57,4.57,10.88,7.39,17.85,7.39s13.28-2.83,17.85-7.39c4.57-4.57,7.39-10.88,7.39-17.85s-2.83-13.28-7.39-17.85Z"/>
  </g>
</svg>