<?xml version="1.0" encoding="UTF-8"?>
<svg id="Capa_2" data-name="Capa 2" xmlns="http://www.w3.org/2000/svg" viewBox="0 0 233.13 227.33">
  <defs>
    <style>
      .cls-1 {
        fill: #231f20;
        fill-rule: evenodd;
        stroke-width: 0px;
      }
    </style>
  </defs>
  <g id="Layer_1" data-name="Layer 1">
    <path class="cls-1" d="M84.77,161.4c-2.76,0-5-2.24-5-5s2.24-5,5-5h57.56c2.5,0,4.78-1.03,6.43-2.68,1.65-1.65,2.68-3.93,2.68-6.43s-1.03-4.77-2.68-6.43c-1.65-1.65-3.93-2.68-6.43-2.68H62.02c-7.12,0-7.83.72-14.77,7.75-12.41,12.55-24.83,25.08-37.25,37.62v38.77h33.44l8.35-9.17c.73-.81,1.67-1.32,2.67-1.53l88.37-21.8h0c3.9-.86,7.62-2.33,11.14-4.45,3.58-2.16,6.98-5,10.18-8.57.11-.12.22-.23.34-.34l56.09-56.97c.25-.25.46-.49.64-.72,1.35-1.72,2.02-3.91,1.96-6.05-.05-2.01-.76-3.95-2.16-5.32-.2-.19-.39-.36-.56-.5-2.42-1.9-4.85-2.96-7.1-3-.65.23-1.35.33-2.07.27-1.4.4-2.79,1.27-4.12,2.66l-48.65,50.6c-.77,1.22-1.67,2.34-2.68,3.35-3.46,3.46-8.24,5.61-13.5,5.61h-57.56ZM95.52,56.27c-1.62-2.23-1.12-5.35,1.11-6.97,2.23-1.62,5.35-1.12,6.97,1.11l5.05,6.95,24-24.67c1.92-1.97,5.08-2.02,7.05-.1s2.02,5.08.1,7.05l-27.94,28.71c-.24.28-.52.54-.84.77-2.23,1.62-5.35,1.12-6.97-1.11l-8.54-11.74h0ZM120.52,102.85l-.49.25c-1.37.7-3.05.75-4.53,0l-.49-.25c-13.8-7.04-38.35-19.58-40.11-46.92-.03-.23-.05-.47-.05-.71v-29.36h0c0-1.76.94-3.47,2.59-4.38L115.32.64c1.45-.81,3.28-.88,4.85-.02l37.64,20.72c1.69.8,2.87,2.52,2.87,4.52v29.36h-.01v.25c-1.52,27.66-26.27,40.3-40.15,47.38h0ZM117.77,93.03c12.21-6.28,31.63-17.15,32.91-37.82v-26.41s-32.91-18.11-32.91-18.11l-32.91,18.11v26.44c1.3,20.65,20.71,31.52,32.91,37.79h0ZM206.69,90.23c-2.38.98-4.64,2.53-6.73,4.7l-39.58,41.16c-.96-2.77-2.54-5.26-4.57-7.29-1.04-1.04-2.2-1.96-3.46-2.74l38.82-40.38c1.74-1.81,4.06-2.74,6.4-2.79,2.25-.04,4.52.73,6.29,2.34l.13.13h0s.07.06.07.06c1.09,1.05,1.86,2.31,2.31,3.65.13.38.23.76.3,1.15h0ZM141.28,123.19l42.72-44.42c3.64-3.78,8.5-5.74,13.39-5.83,4.76-.09,9.56,1.57,13.3,5.01.13.11.26.23.39.35h0c2.25,2.19,3.84,4.81,4.78,7.61.37,1.1.63,2.24.8,3.38,3.41.67,6.77,2.3,9.93,4.78.52.41,1,.83,1.42,1.24,3.33,3.28,5.01,7.7,5.13,12.2.11,4.37-1.28,8.85-4.07,12.42-.45.57-.91,1.1-1.38,1.58l-56.11,57c-3.87,4.31-8.02,7.78-12.44,10.44-4.48,2.7-9.21,4.57-14.19,5.65h0s-86.78,21.4-86.78,21.4l-8.63,9.47c-.92,1.13-2.32,1.85-3.89,1.85H5c-2.76,0-5-2.24-5-5v-45.8h.01c0-1.27.48-2.54,1.45-3.52,12.89-13.02,25.8-26.03,38.68-39.07,9.64-9.76,10.62-10.76,21.88-10.76h79.26Z"/>
  </g>
</svg>