<?xml version="1.0" encoding="UTF-8"?>
<svg id="Capa_2" data-name="Capa 2" xmlns="http://www.w3.org/2000/svg" viewBox="0 0 247.98 210.84">
  <defs>
    <style>
      .cls-1 {
        fill: #231f20;
        fill-rule: evenodd;
        stroke-width: 0px;
      }
    </style>
  </defs>
  <g id="Layer_1" data-name="Layer 1">
    <path class="cls-1" d="M123.99,141.81c-32.43,0-61.68,3.78-82.75,9.89-19.3,5.6-31.24,12.58-31.24,19.62s11.94,14.02,31.24,19.62c21.08,6.11,50.32,9.89,82.75,9.89s61.68-3.78,82.75-9.89c19.3-5.6,31.24-12.58,31.24-19.62s-11.94-14.02-31.24-19.62c-21.08-6.11-50.32-9.89-82.75-9.89h0ZM122.64,10.27c-1.37-.1-2.51-.17-3.44-.21-9.93-.42-18.76.64-25.12,2.75-4.94,1.64-8.01,3.59-8.16,5.51-.02.22,0-.1-.01.05h0c-.06,2.23,3.29,4.93,8.78,7.51,6.84,3.22,16.5,5.62,27.34,6.44.66.05,1.26.09,1.82.13,2.37.02,4.7.08,7,.17,7.73-.09,14.56-1.11,19.74-2.84,4.94-1.64,8.01-3.59,8.16-5.51.02-.22,0,.1.01-.05h0c.06-2.23-3.29-4.93-8.78-7.51-6.84-3.22-16.5-5.62-27.34-6.44h0ZM119.59.1c1.46.06,2.73.13,3.8.21,12.02.91,22.92,3.67,30.82,7.38,9.16,4.31,14.72,10.25,14.52,16.8v.16c-.02.3-.01.28-.02.37-.35,4.57-3.38,8.41-8.38,11.31,3.33.75,6.44,1.6,9.31,2.53,13.85,4.5,22.41,11.4,22.41,19.62s-8.57,15.12-22.41,19.62l-.55.18c2.53.56,4.94,1.17,7.22,1.83,16.36,4.75,26.68,12.53,27.29,22.35,0,.08,0,.17,0,.25.45,10.09-9.64,19.36-26.29,26.19-4.27,1.75-9,3.37-14.11,4.82,17.59,1.76,33.38,4.67,46.32,8.42,23.77,6.89,38.46,17.17,38.46,29.19s-14.7,22.3-38.46,29.19c-21.99,6.38-52.24,10.32-85.53,10.32s-63.54-3.95-85.53-10.32C14.7,193.62,0,183.35,0,171.32s14.7-22.3,38.46-29.19c6.69-1.94,14.14-3.65,22.21-5.1-1.45-.36-2.85-.73-4.21-1.13-16.36-4.75-26.68-12.53-27.29-22.35,0-.08,0-.17,0-.25-.45-10.09,9.63-19.36,26.29-26.19,7.1-2.91,15.48-5.46,24.78-7.49-1.82-.48-3.56-.99-5.21-1.53-13.85-4.5-22.41-11.39-22.41-19.62s8.57-15.12,22.41-19.62c4.64-1.51,9.94-2.8,15.73-3.81l-.3-.14c-9.16-4.31-14.72-10.25-14.52-16.8v-.16c.02-.3.01-.28.02-.37.48-6.33,6.12-11.27,14.99-14.22C98.41.88,108.49-.37,119.59.1h0ZM130.04,42.6c-1.63,0-3.28-.03-4.96-.1-.35-.01-.69-.03-1.03-.05-.57,0-1.15,0-1.72,0-17.36,0-32.99,2.26-44.22,5.91-9.57,3.11-15.5,6.73-15.5,10.13s5.92,7.01,15.5,10.13c11.23,3.65,26.86,5.91,44.22,5.91s32.99-2.26,44.22-5.91c9.57-3.11,15.5-6.73,15.5-10.13s-5.92-7.01-15.5-10.13c-9.54-3.1-22.25-5.2-36.51-5.76h0ZM128.33,84.42c-1.58.05-3.18.07-4.79.08-1.28.04-2.57.08-3.87.14-1.25.05-2.66.13-4.23.23-22.16,1.37-42.01,5.65-56.19,11.46-12.62,5.17-20.33,11.08-20.12,16.5v.13c.33,5.12,7.94,9.83,20.11,13.36,13.77,4,32.76,5.96,53.86,5.03,1.25-.05,2.66-.13,4.23-.23,22.16-1.37,42.01-5.65,56.19-11.46,12.62-5.17,20.32-11.08,20.12-16.5v-.13c-.33-5.12-7.94-9.83-20.11-13.36-11.86-3.44-27.58-5.37-45.2-5.25Z"/>
  </g>
</svg>