<?xml version="1.0" encoding="UTF-8"?>
<svg id="Capa_2" data-name="Capa 2" xmlns="http://www.w3.org/2000/svg" viewBox="0 0 237.16 227.51">
  <defs>
    <style>
      .cls-1 {
        fill: #231f20;
        fill-rule: evenodd;
        stroke-width: 0px;
      }
    </style>
  </defs>
  <g id="Layer_1" data-name="Layer 1">
    <path class="cls-1" d="M123.75.87c8.97,0,17.63,1.31,25.8,3.75l.56-1.43c.99-2.57,3.88-3.84,6.45-2.85,2.57.99,3.84,3.88,2.85,6.45l-.48,1.22c10.71,4.55,20.35,11.12,28.46,19.22,16.29,16.29,26.36,38.79,26.36,63.64,0,5.64-.53,11.21-1.55,16.65-1.04,5.55-2.58,10.91-4.58,16.03-1,2.57-3.9,3.84-6.47,2.83-2.47-.97-3.74-3.69-2.93-6.18.17-.64.3-1.31.39-1.98.09-.67.14-1.42.14-2.25,0-4.56-1.83-8.69-4.8-11.66-2.96-2.97-7.05-4.8-11.58-4.8-3.57,0-6.86,1.14-9.53,3.06-2.58,1.86-4.61,4.45-5.77,7.47-.09.27-.18.54-.28.8h0c-.92,2.52-3.7,3.87-6.26,3.01-2.61-.87-4.02-3.7-3.14-6.31l.05-.13h0c.32-.88.57-1.81.75-2.78.16-.93.25-1.91.25-2.91,0-4.56-1.83-8.69-4.8-11.66-2.96-2.97-7.05-4.8-11.58-4.8-3.57,0-6.86,1.14-9.53,3.06-2.58,1.86-4.61,4.46-5.77,7.47-.09.27-.18.54-.28.8h0c-.03.08-.06.16-.1.24l-26.85,74.68h124.27c2.76,0,5,2.24,5,5s-2.24,5-5,5H72.09v-.02c-1.47,0-2.92-.65-3.91-1.89l-36.48-46.17c-1.7-2.16-1.34-5.29.82-6.99s5.29-1.34,6.99.82l34.96,44.26h14.41l28.14-78.27.03-.09h0c.32-.89.57-1.81.75-2.78.16-.93.25-1.91.25-2.91,0-4.57-1.83-8.69-4.8-11.66-2.96-2.97-7.05-4.8-11.58-4.8-3.57,0-6.87,1.13-9.53,3.05-2.62,1.89-4.66,4.52-5.81,7.6l-.08.24c-.58,2.13-2.52,3.69-4.83,3.69h0c-.52-.01-1.06-.1-1.58-.27-2.61-.87-4.02-3.7-3.14-6.31l.15-.42c.26-.77.47-1.6.63-2.48.16-.93.25-1.89.25-2.89,0-4.56-1.83-8.69-4.8-11.66-2.96-2.97-7.05-4.8-11.58-4.8-2.57,0-4.98.58-7.11,1.62-2.24,1.09-4.2,2.66-5.72,4.59-1.7,2.16-4.84,2.52-6.99.82-1.76-1.39-2.33-3.73-1.55-5.72h-.01c6.66-16.98,18.32-31.43,33.17-41.56C87.55,6.62,104.99.87,123.75.87h0ZM45.55,131.99l19.87,25.15c1.36,1.73,3.87,2.02,5.59.66,1.73-1.36,2.02-3.87.66-5.59l-19.87-25.15c-1.36-1.73-3.87-2.02-5.59-.66-1.73,1.36-2.02,3.87-.66,5.59h0ZM219.39,197.28h10.77c2.76,0,5-2.24,5-5s-2.24-5-5-5H66.46l-42.66-54.01c-1.7-2.16-4.84-2.52-6.99-.82-2.16,1.7-2.52,4.84-.82,6.99l37.79,47.84h-26.09c-1.73,0-3.26.88-4.16,2.22L1.01,219.32c-1.66,2.2-1.22,5.33.98,6.99s5.33,1.22,6.99-.98l21.18-28.06h49.47l-8.47,23.57c-.93,2.59.42,5.44,3.01,6.37,2.59.93,5.44-.42,6.37-3.01l9.68-26.93h116.67l21.34,28.06c1.66,2.19,4.78,2.62,6.97.96,2.19-1.66,2.62-4.78.96-6.97l-16.76-22.05h0ZM180.31,34.3c-14.48-14.48-34.48-23.43-56.57-23.43-16.7,0-32.2,5.11-45.01,13.84-8.72,5.95-16.21,13.57-21.99,22.41,1.49-.27,3.03-.4,4.59-.4,7.27,0,13.87,2.97,18.65,7.77,3.08,3.09,5.4,6.93,6.66,11.23,4.28-2.99,9.46-4.74,15.03-4.74,7.27,0,13.87,2.97,18.65,7.77,3.08,3.09,5.4,6.94,6.66,11.24,4.28-2.99,9.46-4.75,15.03-4.75,7.28,0,13.87,2.97,18.65,7.77,3.08,3.09,5.4,6.94,6.66,11.24,4.28-2.99,9.46-4.75,15.03-4.75,7.27,0,13.87,2.97,18.65,7.77.8.8,1.55,1.66,2.24,2.56.32-2.93.49-5.92.49-8.96,0-22.09-8.95-42.09-23.43-56.57Z"/>
  </g>
</svg>