<?xml version="1.0" encoding="UTF-8"?>
<svg id="Capa_2" data-name="Capa 2" xmlns="http://www.w3.org/2000/svg" viewBox="0 0 219.15 232.47">
  <defs>
    <style>
      .cls-1 {
        fill: #231f20;
        fill-rule: evenodd;
        stroke-width: 0px;
      }
    </style>
  </defs>
  <g id="Layer_1" data-name="Layer 1">
    <path class="cls-1" d="M207.05,203.2h-42.07c-6.44.22-10.36.18-14.42-1.25-4.14-1.45-7.64-4.07-13.23-9-.16-.14-.3-.28-.44-.43L23.35,86.19l-10.87,12.15c-1.82,2.03-2.64,4.64-2.49,7.19.14,2.56,1.25,5.05,3.28,6.87l105.56,94.42c9.73,7.99,14.73,12.06,19.51,13.93,4.64,1.81,10.02,1.82,20.53,1.72h.04s0-.02,0-.02h38.21c2.73,0,5.21-1.12,7.01-2.92,1.8-1.8,2.92-4.29,2.92-7.01v-9.31h0ZM155.33,99.81c.05.25.09.51.1.77l3.01,22.02c.05.25.09.5.1.76l2.86,20.95c5.92,6.54,15.23,10.74,24.53,14.93,5.12,2.31,10.24,4.62,15.07,7.42.1.06.2.12.3.19,16.22,9.71,15.87,24.97,15.74,30.48v.48c0,.13,0,.26,0,.39v14.31c0,5.49-2.24,10.47-5.85,14.08-3.61,3.61-8.6,5.85-14.08,5.85h-38.21v-.02c-11.8.12-17.88.08-24.2-2.38-6.18-2.41-11.64-6.85-22.25-15.56L6.63,119.83C2.54,116.17.31,111.18.03,106.09c-.28-5.09,1.37-10.29,5.03-14.38l14.08-15.75c.09-.12.19-.23.3-.34l51.71-53.8c.1-.12.22-.23.33-.34L90.66,1.53c1.91-1.98,5.07-2.05,7.05-.14,1.98,1.91,2.05,5.07.14,7.05l-17.79,18.51c1.94,24.79,5.64,40.8,14.71,48.4,9.03,7.56,24.45,7.41,50.16.07L210.61,8.73c1.93-1.96,5.09-1.99,7.05-.06,1.96,1.93,1.99,5.09.06,7.05l-64.88,65.88,2.49,18.21h0ZM146.09,105.88l1.75,12.78h-23.59c-2.76,0-5,2.24-5,5s2.24,5,5,5h24.95l1.75,12.78h-23.59c-2.76,0-5,2.24-5,5s2.24,5,5,5h27.06c7.27,7.82,17.35,12.37,27.41,16.91,4.92,2.22,9.83,4.44,14.17,6.95l.15.09c8.56,5.12,10.47,12.72,10.86,17.82h-41.81c-.2,0-.39.01-.58.03-5.21.18-8.3.18-10.78-.7-2.56-.9-5.28-3-9.91-7.09-.08-.07-.15-.13-.23-.19L30.12,78.9l40.79-42.43c2.44,22.63,7.16,37.92,17.45,46.54,11.28,9.45,28.28,10.27,55.04,3.17l1.32,9.7h-23.59c-2.76,0-5,2.24-5,5s2.24,5,5,5h24.95Z"/>
  </g>
</svg>