<?xml version="1.0" encoding="UTF-8"?>
<svg id="Capa_2" data-name="Capa 2" xmlns="http://www.w3.org/2000/svg" viewBox="0 0 239.63 214.47">
  <defs>
    <style>
      .cls-1 {
        fill: #231f20;
        fill-rule: evenodd;
        stroke-width: 0px;
      }
    </style>
  </defs>
  <g id="Layer_1" data-name="Layer 1">
    <path class="cls-1" d="M118.72,214.35c-2.27-.46-4.46-1.09-6.57-1.89-2.72-.27-5.45-.54-8.16-.85-5.73,1.38-11.84,2.37-18.67,2.6-7.08.24-14.86-.36-23.7-2.2-.21-.03-.43-.08-.64-.15-17.67-5.28-31.96-14.43-42.37-28.04C8.3,170.32,1.93,152.58,0,130.03h.01s-.01-.18-.01-.18c-.13-2.75,2-5.09,4.75-5.21,6.81-.34,13.7.64,20.61,3.03,3.27,1.13,6.53,2.57,9.78,4.32-2.07-10.05-4.65-19.65-8.5-28.15-5.07-11.22-12.42-20.62-23.87-26.73-2.43-1.29-3.35-4.31-2.05-6.74.63-1.19,1.68-2.02,2.87-2.4h0c13.26-4.3,26.44-5.23,39.5-2.34,10.66,2.36,21.17,7.24,31.52,14.89,6.06-30.27,19.61-59.25,41.87-79.23,1.93-1.74,4.84-1.69,6.72.03,22.23,19.99,35.77,48.94,41.83,79.2,10.35-7.65,20.86-12.53,31.52-14.89,13.07-2.89,26.24-1.96,39.5,2.34h0c1.19.39,2.24,1.21,2.87,2.4,1.29,2.43.38,5.44-2.05,6.74-11.46,6.11-18.8,15.52-23.87,26.73-3.85,8.5-6.43,18.1-8.5,28.15,3.25-1.75,6.51-3.19,9.78-4.32,6.91-2.39,13.8-3.37,20.61-3.03,2.75.13,4.88,2.46,4.75,5.21v.17s0,0,0,0c-1.92,22.55-8.3,40.3-18.61,53.79-10.41,13.61-24.7,22.77-42.37,28.04-.21.06-.43.11-.64.15-8.84,1.84-16.62,2.44-23.7,2.2-6.83-.23-12.94-1.22-18.67-2.6-2.71.32-5.43.59-8.16.85-2.14.81-4.37,1.45-6.69,1.92-.71.14-1.41.12-2.07-.02h0ZM104.61,196.18c4.37,4.02,9.44,6.85,15.21,8.18,5.77-1.34,10.83-4.16,15.21-8.18,5.12-4.7,9.34-11.04,12.69-18.56,10.94-24.56,14.21-59.32,8-92.71-5.13-27.63-16.76-54.2-35.91-73.06-19.14,18.86-30.77,45.43-35.91,73.06-6.2,33.39-2.94,68.15,8,92.71,3.35,7.52,7.58,13.86,12.69,18.56h0ZM94.39,200.02c-4.59-5.09-8.44-11.3-11.58-18.35-10.78-24.18-14.64-57.37-10.1-90-10.53-8.63-21.12-13.97-31.77-16.32-7.8-1.72-15.7-1.86-23.67-.52,8.25,6.74,14.11,15.27,18.47,24.9,5.71,12.63,8.78,27.05,11.35,41.81,6.01,28.13,15.68,42.72,27.2,50.53,6.11,4.14,12.93,6.47,20.1,7.95h0ZM166.92,91.68c4.54,32.63.68,65.82-10.1,90-3.14,7.05-6.99,13.25-11.58,18.35,7.16-1.48,13.99-3.81,20.1-7.95,11.52-7.81,21.2-22.4,27.2-50.53,2.57-14.76,5.64-29.18,11.35-41.81,4.36-9.64,10.22-18.16,18.47-24.9-7.97-1.33-15.87-1.2-23.67.52-10.65,2.35-21.25,7.69-31.77,16.32h0ZM217.51,137.08c-5.15,1.78-10.36,4.53-15.59,8.29-6.67,29.93-17.72,45.95-31,54.95-2.02,1.37-4.07,2.56-6.16,3.62,3.5-.32,7.2-.87,11.16-1.69,15.59-4.68,28.13-12.68,37.16-24.49,8.32-10.89,13.77-25.12,16.01-43.1-3.84.28-7.71,1.08-11.58,2.42h0ZM37.71,145.37c-5.24-3.76-10.45-6.51-15.59-8.29-3.87-1.34-7.74-2.14-11.58-2.42,2.24,17.98,7.69,32.21,16.01,43.1,9.03,11.81,21.57,19.81,37.16,24.49,3.96.82,7.66,1.37,11.16,1.69-2.09-1.05-4.14-2.25-6.16-3.62-13.28-9-24.32-25.02-31-54.95Z"/>
  </g>
</svg>