<?xml version="1.0" encoding="UTF-8"?>
<svg id="Capa_2" data-name="Capa 2" xmlns="http://www.w3.org/2000/svg" viewBox="0 0 74.87 64.21">
  <defs>
    <style>
      .cls-1 {
        fill: #020202;
      }

      .cls-1, .cls-2 {
        stroke-width: 0px;
      }

      .cls-2 {
        fill: #020303;
      }
    </style>
  </defs>
  <g id="Capa_1-2" data-name="Capa 1">
    <path class="cls-1" d="M74.38,46.92c-.43-.62-1.31-.19-1.93.06-.8.33-1.49.85-2.06,1.54-1.98,2.4-2.4,2.39-4.45,0-2-2.34-5.75-2.57-7.87-.48-3,2.95-3.33,2.9-5.69-.35-.53-.74-.43-1.47-.43-2.22-.02-4.51.07-9.03-.05-13.55-.05-1.78.39-2.38,2.27-2.33,5.21.13,10.43.03,15.64.05,1.09.01,1.94.13,1.96-1.52.01-1.69-.77-1.73-2.05-1.72-5.3.05-10.6-.02-15.89.06-1.46.02-1.98-.36-1.93-1.87.12-2.95-.02-5.91.05-8.86.09-3.86,2.5-6.47,5.95-6.57,3.58-.1,5.95,2.15,6.4,6.09.34,2.9,2.09,4.55,4.73,4.45,2.61-.1,4.26-1.98,4.27-4.86.03-7.88-6.6-14.51-14.81-14.82-7.93-.3-15.19,6.24-15.52,14.11-.14,3.47-.1,6.95-.02,10.42.04,1.44-.34,1.96-1.85,1.91-3.21-.12-6.43-.04-9.65-.04s-6.6-.03-9.9.02c-1.05.01-1.57-.19-1.54-1.41.07-3.39-.08-6.78.07-10.16.14-3.37,2.85-5.74,6.2-5.71,3.38.04,5.5,2.19,6.1,6.17.47,3.2,2.73,4.93,5.56,4.29,2.68-.6,3.99-3.35,3.3-6.94C39.77,5.02,32.78-.56,25.42.04c-8.39.69-14.26,6.86-14.42,15.21-.05,2.87-.12,5.74.03,8.6.1,1.95-.3,2.85-2.5,2.62-2.15-.22-4.34-.01-6.51-.06-1.15-.03-1.94-.03-1.92,1.57.02,1.44.52,1.73,1.8,1.68,2.26-.08,4.53.09,6.78-.06,1.76-.11,2.43.35,2.36,2.25-.16,3.82-.14,7.65-.01,11.47.06,1.96.05,3.53-2.48,3.8-.65.07-1.42.77-1.8,1.38-.97,1.56-1.96,2.21-3.84,1.27-.96-.48-2.36.2-2.81,1.07-.35.7.77,1.41,1.51,1.87,2.52,1.57,5.4,1,7.31-1.59,1.26-1.71,2.41-1.77,3.73-.19,2.94,3.53,6.2,3.59,9.05.1,1.31-1.6,2.43-1.68,3.76.01,2.65,3.37,6.35,3.39,8.94.12,1.4-1.76,2.42-1.77,3.85-.02,2.62,3.21,6.27,3.26,8.81.14,1.57-1.94,2.49-1.95,3.99-.04,2.41,3.04,6.28,3.11,8.66.16,1.69-2.09,2.48-2.11,4.16-.06,1.98,2.4,4.97,2.88,7.4,1.26,1.23-.81,1.64-2.37,3.12-3.04.56-.26.53-1.86-.01-2.64ZM16.83,15.3c-.05,10.86-.01,21.72-.03,32.58,0,.65.24,1.36-.41,2.23-1.5-1.3-2.2-2.64-2.18-4.57.09-10.08.01-20.16.06-30.24.03-6.35,4.75-11.48,10.79-11.87,6.74-.43,12.1,3.85,13.02,10.41.11.78.28,1.56-.37,2.22-.33.34-.73.53-1.16.36-.89-.34-.85-1.14-.96-1.94-.82-5.73-5.28-9.23-10.72-8.5-4.72.63-8.02,4.38-8.04,9.32ZM25.5,29.64h5.98c3.2,0,6.41.08,9.61-.04,1.52-.05,1.85.46,1.87,1.91.08,5.77.13,5.77-5.51,5.77-5.11,0-10.22-.07-15.33.04-1.75.04-2.15-.5-2.13-2.18.04-5.5-.03-5.5,5.51-5.5ZM42.46,50.15c-.61.15-1.16-.29-1.48-.85-.72-1.26-1.71-2.22-3.15-2.5-2.35-.46-4.49-.12-5.91,2.11-.99,1.56-2.44,2.1-3.52.5-2.21-3.27-4.97-3.26-8.28-1.92q-.27-6.98,6.44-6.98c4.85,0,9.7.06,14.55-.03,1.5-.03,1.92.45,1.84,1.89-.11,2.08,0,4.16-.04,6.23-.02.54.38,1.35-.45,1.55ZM48.72,15.25c-.07,9.64-.08,19.28.03,28.92.02,1.94-.44,2.94-2.58,2.87,0-10.82-.16-21.67.06-32.51.12-5.96,5.06-10.72,10.77-11.1,6.41-.42,11.65,3.47,12.91,9.61.09.43.11.86.14,1.29.07.9.1,1.93-1.01,2.07-1.3.18-1.42-.87-1.56-1.88-.63-4.72-3.53-7.85-7.77-8.51-5.89-.9-10.94,3.27-10.99,9.24Z"/>
    <path class="cls-2" d="M55.41,64.05c-2.02.09-3.47-.85-4.57-2.47-1.13-1.66-2.32-1.52-3.55-.07-3.08,3.62-6.03,3.59-9.23-.07-1.27-1.46-2.35-1.35-3.57.2-2.73,3.48-6.28,3.43-9.11-.09-1.25-1.55-2.34-1.5-3.57-.03-2.95,3.54-6.26,3.6-9.09.12-1.31-1.61-2.41-1.68-3.73.01-1.99,2.56-4.89,3.2-7.32,1.72-.79-.48-2.02-1.19-1.56-2.04.43-.8,1.81-1.56,2.88-1.01,1.74.9,2.59.27,3.64-1.13,2.16-2.89,6.19-2.79,8.53.05,1.8,2.17,2.34,2.18,4.1.03,2.41-2.95,6.31-2.91,8.7.08,1.6,2.01,2.41,2.02,3.98.05,2.52-3.16,6.29-3.19,8.81.06,1.38,1.77,2.45,1.87,3.86.06,2.63-3.36,6.26-3.3,8.95.04,1.44,1.79,2.34,1.75,3.85-.15,2.5-3.15,6.35-3.2,8.81.03,1.38,1.81,2.55,1.91,3.85.07.56-.8,1.21-1.48,2.11-1.86.77-.33,1.87-.99,2.29-.09.38.81.87,2.21-.52,2.94-.65.34-1,.9-1.44,1.45-2.4,3.01-6.28,2.96-8.69-.05-1.6-2.01-2.43-2.05-3.96-.03-1.14,1.5-2.56,2.28-4.45,2.2Z"/>
  </g>
</svg>