<?xml version="1.0" encoding="UTF-8"?>
<svg id="Capa_2" data-name="Capa 2" xmlns="http://www.w3.org/2000/svg" viewBox="0 0 75.6 65.52">
  <defs>
    <style>
      .cls-1 {
        stroke-width: 0px;
      }
    </style>
  </defs>
  <g id="Capa_1-2" data-name="Capa 1">
    <g>
      <path class="cls-1" d="M75.6,48v1.2c-.89.89-1.81,1.76-2.67,2.68-1.39,1.5-3.04,2.11-5.06,1.72-1.68-.32-2.79-1.44-3.87-2.65-1.14-1.27-1.81-1.24-2.98-.04-.2.2-.38.41-.56.62-2.68,3.01-6.11,2.97-8.74-.09-1.66-1.93-2.22-1.92-3.94.02-.11.12-.21.24-.32.36-2.29,2.47-5.36,2.59-7.84.29q-2.62-2.43-5.27.08c-2.13,2.01-4.76,2.12-7.03.25-.61-.5-1.09-1.16-1.66-1.72-.99-.98-1.8-.98-2.79,0-.57.56-1.06,1.2-1.66,1.72-2.1,1.81-4.36,1.82-6.51.06-.46-.38-.88-.82-1.28-1.26-1.58-1.73-2.36-1.72-3.82.1-2.23,2.8-5.11,3.21-7.99,1.13-1.29-.93-1.21-1.95.28-2.52.54-.21,1.27-.2,1.83-.02,1.82.57,2.39.37,3.57-1.16.49-.63,1.19-1.39,1.88-1.51,2.01-.33,2.52-1.22,2.51-3.65-.02-3.83-.04-7.66,0-11.5.02-1.73-.49-2.36-2.2-2.34-2.36.02-4.71.04-7.07.07-1.03.01-1.68-.35-1.7-1.5-.03-1.33.29-1.87,1.42-1.89,2.32-.03,4.64-.05,6.95.07,2.04.11,2.64-.49,2.6-2.52-.06-3.39-.15-6.79.09-10.17.44-6.29,4.73-11.37,10.78-13.08C23.59.45,24.64.24,25.68,0c1.04,0,2.08,0,3.12,0,.14.07.27.18.41.21,6.04,1.11,10,4.68,12.15,10.34.79,2.07,1.21,4.23.4,6.43-.66,1.8-1.97,2.77-3.86,2.92-1.97.16-3.44-.67-4.27-2.44-.38-.82-.54-1.74-.74-2.63-.54-2.38-1.54-4.41-4.06-5.2-4.13-1.3-7.92,1.45-8.01,5.81-.06,3.19-.07,6.38-.11,9.57-.01,1.13.55,1.48,1.65,1.47,6.48-.04,12.95-.01,19.43-.02,1.48,0,1.83-.47,1.81-1.99-.04-3.35-.13-6.71.03-10.06.3-6.35,3.73-10.62,9.38-13.17,1.36-.61,2.89-.84,4.34-1.24.88,0,1.76,0,2.64,0,.22.07.44.18.66.21,7.54,1.01,12.98,6.86,13.38,14.43.15,2.8-1.32,4.77-3.87,5.2-2.32.39-4.44-1.01-5.06-3.39-.14-.54-.21-1.1-.29-1.65-.55-3.63-3.02-5.67-6.63-5.46-3,.17-5.35,2.76-5.44,6.1-.08,2.91-.08,5.82-.12,8.74-.03,2.02.22,2.28,2.24,2.28,5.28,0,10.56-.04,15.84-.03,1.38,0,1.79.46,1.77,1.81-.02,1.28-.28,1.52-1.7,1.52-5.24,0-10.47,0-15.71,0-2.03,0-2.44.39-2.43,2.46.03,4.68.06,9.35.11,14.03.02,1.79,1.17,3.04,2.54,3.81,1.19.67,1.95-.71,2.8-1.36.22-.17.39-.4.6-.59,1.33-1.19,2.85-1.65,4.64-1.37,1.65.27,2.81,1.2,3.87,2.41,1.41,1.62,1.85,1.56,3.32.03.74-.77,1.53-1.55,2.44-2.06,1.55-.87,1.89-.69,2.63.88ZM17.2,50.11c.12-.62.28-1.03.28-1.45,0-3.92-.03-7.84-.02-11.75.01-7.44-.02-14.87.1-22.31.06-3.96,2.85-7.29,6.62-8.3,4.15-1.12,8.33.24,10.39,3.71.93,1.56,1.23,3.49,1.91,5.21.2.51.74.88,1.13,1.32.39-.45.9-.85,1.15-1.38.16-.34-.03-.85-.08-1.29-.7-5.66-5.44-10.07-11.06-10.28-6.22-.24-11.12,3.38-12.26,9.3-.39,2.02-.37,4.13-.37,6.2-.04,8.92-.02,17.83,0,26.75,0,1.68.65,3.08,2.24,4.27ZM32.9,29.76c0,.07,0,.13,0,.2-3.39,0-6.78-.02-10.17.01-1.2.01-1.77.79-1.86,1.93-.07.95-.14,1.91-.15,2.87-.02,2.32.28,2.6,2.62,2.6,4.91,0,9.81,0,14.72,0,1.12,0,2.23-.07,3.35-.15,1.38-.1,1.95-.61,2.07-1.99.11-1.27.12-2.55.11-3.82,0-1.17-.61-1.68-1.82-1.66-2.95.05-5.9.02-8.86.02ZM20.85,47.38c.3-.05.43-.05.54-.09,3.17-1.13,5.89-.73,7.84,2.29.04.07.1.12.15.18.79.84,1.52.88,2.39.1.32-.29.62-.63.84-1.01,1.83-3.1,7.32-2.86,8.92.2.15.28.32.6.57.75.31.19.76.39,1.06.29.21-.07.36-.62.37-.96.02-2.11-.06-4.23.01-6.34.06-1.74-.22-2.17-1.97-2.16-2.95.01-5.9.08-8.86.1-3.07.03-6.14-.01-9.21.06-1.83.04-2.57.81-2.65,2.55-.06,1.31-.01,2.62-.01,4.03ZM47,46.99c1.76.07,2.36-.55,2.36-2.53,0-3.72-.1-7.43-.09-11.15.02-6.27-.02-12.55.19-18.82.14-4.35,3.56-7.85,7.8-8.45,4.63-.65,8.59,1.53,10.21,5.72.43,1.1.62,2.3.87,3.47.16.75.43,1.29,1.32,1.21.91-.08,1.06-.77,1.06-1.47,0-.67-.07-1.36-.21-2.02-1.36-6.13-7.05-10.11-13.31-9.33-5.84.72-10.12,5.53-10.2,11.43-.04,3.28-.14,6.55-.15,9.83,0,7.28.04,14.55.06,21.83,0,.07.05.15.1.28Z"/>
      <path class="cls-1" d="M0,62.64c.99-1.15,2.12-1.59,3.59-.89,1.25.59,2.14-.07,2.86-1.05,1.2-1.62,2.75-2.52,4.82-2.37,1.61.12,2.86.89,3.93,2.06,2.1,2.29,2.17,2.29,4.18.03,2.52-2.82,6.02-2.83,8.54-.02,2.06,2.29,2.2,2.29,4.28-.03,2.54-2.83,5.89-2.82,8.4.02.03.03.05.06.08.09,1.85,2.12,2.36,2.12,4.19.03,1.21-1.38,2.63-2.51,4.55-2.14,1.19.23,2.3.95,3.4,1.52.33.17.56.56.83.86,1.61,1.81,2.2,1.8,3.76-.05,2.75-3.26,6.19-3.26,8.95,0,1.56,1.85,2.31,1.79,3.87-.03.67-.79,1.6-1.4,2.5-1.96.57-.36,1.36-.78,1.86.14.47.87.81,1.87-.06,2.65-1.59,1.4-3.28,2.69-4.93,4.02h-2.4c-1.6-.54-2.8-1.59-3.88-2.87-1.05-1.25-1.9-1.26-2.83-.01-1.07,1.43-2.37,2.44-4.09,2.89h-1.68c-1.59-.4-2.89-1.19-3.86-2.57-1.07-1.54-1.94-1.5-3.31-.25-1.13,1.03-2.42,1.89-3.63,2.83h-2.16c-1.28-.98-2.61-1.9-3.82-2.95-1.14-.99-1.88-1-2.98.02-1.12,1.03-2.34,1.96-3.51,2.94h-2.64c-1.22-.98-2.5-1.91-3.66-2.96-1.11-1.01-1.8-1-2.97.03-1.17,1.04-2.46,1.95-3.69,2.92h-2.4c-1.2-.95-2.46-1.82-3.58-2.85-1.21-1.12-2.03-1.23-3.1.04-1.07,1.28-2.32,2.24-3.88,2.81h-2.16C2.24,64.8,1.12,64.08,0,63.36c0-.24,0-.48,0-.72Z"/>
    </g>
  </g>
</svg>