<?xml version="1.0" encoding="UTF-8"?>
<svg id="Capa_2" data-name="Capa 2" xmlns="http://www.w3.org/2000/svg" viewBox="0 0 66.47 71.83">
  <defs>
    <style>
      .cls-1 {
        fill: #020202;
        stroke-width: 0px;
      }
    </style>
  </defs>
  <g id="Capa_1-2" data-name="Capa 1">
    <path class="cls-1" d="M65.33,4.14c.69-.7,1.91-1.19.47-2.57-1.49-1.43-1.91,0-2.55.65-5.66,5.68-11.41,11.28-16.84,17.18-2.52,2.74-5.42,4.1-8.92,4.78-8.21,1.59-12.13-.82-13.72-8.28-1-4.71-.96-8.95,3.64-11.9.5-.31.83-.88,1.29-1.26.85-.69,1.06-1.22.13-2.13-.87-.84-1.3-.8-2.13.04C18.45,8.97,10.13,17.24,1.88,25.57c-2.55,2.57-2.47,5.33.06,7.97,3.39,3.55,6.77,7.12,10.18,10.67,7.28,7.58,14.52,15.2,22.6,21.96,4.53,3.79,9.31,6.51,15.5,5.42,3.55-.19,7.1-.34,10.64-.58,3.08-.21,4.62-1.91,4.64-4.97.01-1.82-.07-3.64.02-5.45.22-4.66-2.16-7.7-6.04-9.77-2.8-1.49-5.61-2.96-8.52-4.18-2.13-.88-2.91-2.37-3.18-4.49-.67-5.32-1.4-10.63-2.2-15.93-.2-1.34.13-2.24,1.08-3.2,6.26-6.25,12.46-12.57,18.67-18.88ZM60.5,68.22c-2.94.19-5.88.32-8.83.45-.75.04-1.51.01-2.26.01-5.35,1.03-9.32-1.62-13.12-4.82-9.15-7.73-17.22-16.54-25.47-25.18-2.14-2.24-4.27-4.49-6.43-6.72-2.02-2.09-2.03-2.81-.02-4.87,2.37-2.43,2.35-2.41,4.77-.02,10.87,10.73,21.32,21.86,31.81,32.96,2.17,2.3,4.7,3.44,7.83,3.32,3.85-.16,7.7-.37,11.55-.43.88-.01,2.49-.91,2.37,1.23-.09,1.71.65,3.89-2.2,4.07ZM50.55,49.51c2.35,1.68,5.23,2.63,7.85,3.94,2.06,1.03,3.43,2.71,4.16,4.87.32.94.36,1.73-1.11,1.76-4.31.09-8.61.32-12.91.45-2.06.06-3.79-.66-5.25-2.19-11.04-11.62-21.99-23.32-33.4-34.58-.45-.44-1.41-.81-.46-1.74,3.59-3.53,7.14-7.09,10.81-10.74,1.48,15.75,8.44,18.55,22.32,14.62.07.13.16.26.18.41.54,3.39.54,3.38-2.89,3.44-.98.02-1.97.11-2.94.04-1.24-.09-1.48.46-1.5,1.6-.02,1.35.62,1.45,1.67,1.38,1.59-.12,3.18-.06,4.76-.22,1.28-.14,1.76.2,2.06,1.57.4,1.89-.14,2.4-1.93,2.28-1.36-.1-2.72.08-4.08.04-1.07-.03-1.6.15-1.59,1.45.02,1.34.61,1.44,1.65,1.38,1.36-.08,2.72-.04,4.09-.06,2.25-.03,3.45,1.51,3.02,3.75-.15.78-.64.7-1.15.71-1.67.04-3.33.1-4.99.07-1-.02-1.55.16-1.46,1.36.08.96.18,1.63,1.38,1.46,4.3-.62,8.1.36,11.71,2.95Z"/>
  </g>
</svg>