<?xml version="1.0" encoding="UTF-8"?>
<svg id="Capa_2" data-name="Capa 2" xmlns="http://www.w3.org/2000/svg" viewBox="0 0 77.54 76.35">
  <defs>
    <style>
      .cls-1 {
        fill: #fefefe;
      }

      .cls-1, .cls-2, .cls-3, .cls-4, .cls-5, .cls-6, .cls-7, .cls-8 {
        stroke-width: 0px;
      }

      .cls-2 {
        fill: #020202;
      }

      .cls-3 {
        fill: #09090a;
      }

      .cls-4 {
        fill: #fff;
      }

      .cls-5 {
        fill: #f9f9fa;
      }

      .cls-6 {
        fill: #575757;
      }

      .cls-7 {
        fill: #0b0c0d;
      }

      .cls-8 {
        fill: #fcfcfc;
      }
    </style>
  </defs>
  <g id="Capa_1-2" data-name="Capa 1">
    <path class="cls-2" d="M72.81,61.79c-5.14-4.32-10.82-6.9-17.59-5.04-.97-2.68.03-3.52,2.54-3.9,7.36-1.1,11.97-5.71,13.7-12.71,3.16-12.75.34-24.39-7.69-34.75-1.33-1.71-3.06-3.02-4.98-4.07-3.13-1.71-6.1-1.92-9.13.36-2.51,1.89-4.75,3.98-6.62,6.5-2.69,3.64-4.4,7.76-5.91,12.31-2.24-4.52-4.46-8.5-8.23-11.33-4.85-3.64-9.78-3.06-13.65,1.62-1.67,2.01-2.72,4.36-3.78,6.72-.55,1.21-.06,1.68,1.01,1.99.87.25,1.64.8,2.13-.69.72-2.21,1.8-4.29,3.34-6.07,2.71-3.12,5.7-3.67,8.8-.93,5.63,4.95,9.31,11.01,8.83,18.88-.17,2.86-.08,5.72.52,8.49.43,2.01.09,3.68-.91,5.4-2.02,3.43-5.2,5.12-8.81,6.31-1.15.38-1.25-.03-1.33-1.02-.37-4.69-.24-9.15,4.37-12,.07-.05.12-.13.18-.19,1.04-.83,1.58-1.47.27-2.79-1.36-1.35-1.82-.3-2.62.39-.65.57-1.08,1.48-2.18,1.68,0-3.2-.04-6.21.02-9.22.02-1.22-.15-1.89-1.65-1.88-1.43.01-1.73.53-1.69,1.82.08,2.76.02,5.53.02,8.29v7.9c-1.46-1.53-2.47-2.48-3.34-3.55-.88-1.07-1.47-.67-2.23.13-.71.74-1.25,1.24-.17,2.2,1.8,1.61,3.43,3.4,5.15,5.09.97.94.85,2.27.47,3.13-.45,1.01-1.67.25-2.49,0-3.3-1.03-5.66-3.2-7.23-6.25-2.09-4.06-2.64-8.37-1.68-12.8.37-1.7-.35-2.07-1.67-2.4-1.76-.44-1.55,1-1.69,1.84-.47,2.73-.48,5.5-.11,8.25.98,7.44,5.79,13.33,12.54,14.75,2.28.48,2.43,1.5,2.52,3.41.13,2.54-.08,4.33-3.26,4.09-.55-.04-1.22.22-1.7.54-2.79,1.85-5.97,2.36-9.15,3.07-4.53.99-7.15,4.04-7.66,8.05-.27,2.07.1,2.95,2.61,2.94,23.39-.12,46.78-.07,70.17-.07,3.53,0,4.86-1.5,4.67-5.07-.22-3.84-1.79-6.97-4.71-9.42ZM15.67,72.95H3.54c.97-3.17,3.25-4.32,5.74-4.59,2.97-.33,5.68-.99,8.13-2.72.61-.43,1.44-.54,2.17-.79,1.64-.54,2.23-.08,2.24,1.78.01,6.32.08,6.32-6.15,6.32ZM45.7,10.18c1.54-2.22,3.5-4.01,5.66-5.63,1.99-1.49,3.92-1.43,6-.27,2.31,1.29,4.15,3.1,5.54,5.31,5.68,9.05,8.11,18.78,5.48,29.33-1.7,6.83-6.21,10.32-13.45,10.86,0-3.37.03-6.72-.02-10.08-.01-.94.63-1.36,1.15-1.9,1.14-1.18,2.27-2.36,3.48-3.47.93-.84,1.44-1.42.25-2.63-1.22-1.22-1.86-.67-2.62.29-.53.66-1.04,1.35-1.55,2.03-.23-.11-.46-.22-.69-.33,0-2.09-.07-4.19.03-6.29.06-1.36-.59-1.51-1.71-1.53-1.22-.03-1.67.33-1.66,1.6.07,4.27.03,8.55.03,13.62-2.02-2.09-3.6-3.62-5.05-5.27-.86-.97-1.37-.61-2.03.15-.6.69-1.55,1.15-.38,2.24,2.08,1.94,4.05,4,6.05,6.03.53.54,1.34.98,1.35,1.81.02,1.27.62,2.84-.31,3.72-.77.72-2.14-.09-3.18-.39-6.34-1.85-8.59-6.72-9.06-12.72-.77-9.57,1.16-18.5,6.69-26.48ZM45.94,72.85c-6.85.06-13.69.06-20.54.08-.8-2.14-.01-4.34-.52-7.05,1.65,1.27,2.56,1.17,3.39-.36,1.2-2.19,3.17-3.6,5.75-2.89,2.53.69,5.15,1.61,5.57,4.87.11.86.68,1.39,1.46,1.64.95.32,1.52-.36,1.81-1.04.51-1.2,1.5-1.51,2.5-1.27,1.18.28,1.85,1.37,1.8,2.54-.05,1.22.28,2.16,1.1,3-.61.95-1.55.47-2.32.48ZM55.17,72.84c-1.99-.13-4.05.62-5.95-.47.7-.77,1.15-1.68,1.54-2.64,1.21-2.94,2.86-3.52,5.69-2.15,2.28,1.11,3.77,2.9,4.66,5.24-1.98.02-3.97.15-5.94.02ZM71.75,72.97c-.75-.12-1.54-.02-2.32-.02s-1.56-.1-2.32.02c-1.73.3-2.6-.44-3.26-2.02-1.35-3.23-3.74-5.52-7.02-6.8-2.32-.9-4.53-.84-6.58.73-.41.31-.76,1.18-1.43.42-.75-.84.2-1.25.64-1.6,3.2-2.59,6.73-4.66,11-4.22,5.31.55,9.51,3.24,12.59,7.59.65.91.89,2.02,1.09,3.14.35,1.96,0,3.16-2.39,2.76ZM53.47,23.93c1.72-.01,2.92-1.1,2.98-2.89.07-1.91-1.04-2.97-2.83-3.19-2.07.06-3.21,1.18-3.24,3.02-.02,1.87,1.21,3.08,3.09,3.06ZM52.28,24.94c.57.41,1.09.37,1.75,0-.68-.32-1.2-.33-1.75,0ZM50.46,38.02h.2v-11.19c-.07,0-.13,0-.2.01v11.18Z"/>
    <path class="cls-7" d="M11.08,21.45c1.98.2,3.05,1.21,3.04,3.15,0,1.86-1.17,2.91-2.87,2.96-1.84.05-3.08-1.03-3.1-2.99-.02-1.93,1.09-2.94,2.93-3.13Z"/>
    <path class="cls-4" d="M50.46,26.84c.07-.01.13-.01.2-.01v11.19h-.2v-11.18Z"/>
    <path class="cls-4" d="M54.03,24.94c-.66.37-1.18.41-1.75,0,.55-.33,1.07-.32,1.75,0Z"/>
    <path class="cls-4" d="M56.45,21.04c-.06,1.79-1.26,2.88-2.98,2.89-1.88.02-3.11-1.19-3.09-3.06.03-1.84,1.17-2.96,3.24-3.02,1.79.22,2.9,1.28,2.83,3.19Z"/>
    <path class="cls-4" d="M38.17,46.1c3.22,4.24,7.25,6.62,12.32,7.12.73.07,1.25.28,1.11,1.02-.28,1.52.92,3.4-.85,4.52-1.91,1.21-3.52,2.73-5.23,4.15-1.15.96-2.8,1.8-4.46.16-4.8-4.74-8.82-4.99-14.3-.97-1.1.81-1.6.53-1.65-.66-.08-1.89.03-3.8-.04-5.69-.04-1.24.79-1.29,1.65-1.52,4.7-1.3,8.75-3.56,11.46-8.12Z"/>
    <path class="cls-4" d="M48.26,72.37c.01.53-.28.77-.78.76-7.36-.09-14.72.3-22.08-.2,6.85-.02,13.69-.02,20.54-.08.77,0,1.71.47,2.32-.48Z"/>
    <path class="cls-1" d="M61.11,72.82c-3.78.74-7.59.17-11.39.29-.37.01-.54-.35-.5-.74,1.9,1.09,3.96.34,5.95.47,1.97.13,3.96,0,5.94-.02Z"/>
    <path class="cls-6" d="M61.11,72.82c-.45.75-1.2.53-1.85.53-10.73.01-21.45.01-32.18.01-.59,0-1.21.09-1.68-.43,6.85-.02,13.69-.02,20.54-.08.77,0,1.71.47,2.32-.48h.96c1.9,1.09,3.96.34,5.95.47,1.97.13,3.96,0,5.94-.02Z"/>
    <path class="cls-3" d="M56.45,21.04c-.06,1.79-1.26,2.88-2.98,2.89-1.88.02-3.11-1.19-3.09-3.06.03-1.84,1.17-2.96,3.24-3.02,1.79.22,2.9,1.28,2.83,3.19Z"/>
    <path class="cls-8" d="M50.66,26.83v11.19h-.2v-11.18c.07-.01.13-.01.2-.01Z"/>
    <path class="cls-5" d="M54.03,24.94c-.66.37-1.18.41-1.75,0,.55-.33,1.07-.32,1.75,0Z"/>
  </g>
</svg>