<?xml version="1.0" encoding="UTF-8"?>
<svg id="Capa_2" data-name="Capa 2" xmlns="http://www.w3.org/2000/svg" viewBox="0 0 77.76 76.56">
  <defs>
    <style>
      .cls-1 {
        stroke-width: 0px;
      }
    </style>
  </defs>
  <g id="Capa_1-2" data-name="Capa 1">
    <g>
      <path class="cls-1" d="M0,73.2c.58-1.77,1.11-3.55,2.46-4.96,1.81-1.9,4.12-2.66,6.58-3.14,2.87-.57,5.65-1.32,8.18-2.9.59-.37,1.44-.39,2.18-.44,1.65-.1,2.39-.8,2.45-2.45,0-.16,0-.32,0-.48.12-4.12-.81-3.92-3.49-4.71-6.12-1.82-9.55-6.26-11.13-12.24-.99-3.77-.85-7.59-.24-11.41.14-.86.62-1.23,1.53-1.06,1.48.28,2.11.91,1.96,2.08-.14,1.11-.37,2.2-.45,3.31-.35,4.39.81,8.37,3.35,11.94,1.76,2.47,4.29,3.75,7.1,4.59.73.22,1.18-.12,1.33-.81.22-1.02.12-1.97-.7-2.76-1.64-1.58-3.24-3.21-4.87-4.79-1.06-1.04-1.05-1.51.15-2.64.96-.9,1.39-.84,2.36.23.93,1.03,1.89,2.03,2.91,3.12.1-.25.17-.34.17-.44,0-5.12,0-10.24-.03-15.35-.01-1.72,1.08-2.58,2.62-1.83.41.2.74,1.01.75,1.55.07,3.07.03,6.14.03,9.62,1-.91,1.76-1.62,2.53-2.31.94-.86,1.52-.82,2.41.15.85.92.83,1.59-.07,2.46-.12.11-.22.24-.35.32-3.97,2.46-4.85,6.22-4.6,10.57.17,2.97-.06,3.1,3.06,1.86,3.22-1.27,5.87-3.2,7.43-6.41.68-1.39.73-2.82.6-4.32-.24-2.97-.67-5.96-.58-8.93.15-4.99-1.11-9.5-4.08-13.45-1.43-1.9-3.11-3.65-4.87-5.26-2.65-2.44-5.36-2.28-7.93.25-1.83,1.8-3.03,3.99-3.88,6.39-.54,1.51-.93,1.67-2.52,1.04-1.16-.46-1.35-.96-.75-2.27,1.27-2.8,2.59-5.57,4.87-7.76,3.05-2.92,6.79-3.54,10.55-1.61,2.96,1.52,5.16,3.89,6.92,6.65,1.14,1.77,2.13,3.64,3.27,5.62.18-.47.34-.85.48-1.25,2.25-6.64,5.62-12.53,11.41-16.74,1.26-.92,2.78-1.48,4.18-2.21.8,0,1.6,0,2.4,0,.09.07.17.18.27.21,3.41.91,6.14,2.83,8.26,5.62,7.42,9.78,10.29,20.64,7.78,32.79-.73,3.53-1.94,6.83-4.44,9.53-2.68,2.88-6.06,4.34-9.89,4.89-2.45.35-3.26,1.62-2.27,3.59.17,0,.37.04.55,0,5.08-1.23,9.63.08,13.88,2.86,3.59,2.35,6.66,5.12,7.56,9.6.12.58.25,1.15.38,1.72v2.16c-1.12,2.96-1.82,3.43-5.15,3.43-.32,0-.64,0-.96,0-17.82,0-35.64,0-53.46,0-.46,0-.93.11-1.39.16H0v-3.36ZM51.56,40.96c.03-.5.05-.69.05-.87,0-4.16-.03-8.32.04-12.48,0-.54.34-1.35.76-1.56,1.62-.8,2.82.17,2.72,1.99-.09,1.67-.09,3.35-.08,5.03,0,.26.24.52.37.79.25-.16.54-.27.73-.49.42-.48.77-1.02,1.19-1.5.9-1.06,1.57-1.1,2.51-.21,1.03.97,1.03,1.61.03,2.62-1.33,1.33-2.72,2.6-3.95,4.01-.48.54-.83,1.38-.85,2.1-.1,2.79-.04,5.59-.03,8.38,0,.3.07.6.11.88,6.41-.13,10.74-3.6,12.51-8.33,1.72-4.58,2.09-9.35,1.64-14.16-.61-6.44-3.05-12.27-6.51-17.68-1.43-2.23-3.32-3.98-5.67-5.22-1.81-.95-3.61-1-5.31.21-2.36,1.68-4.46,3.63-6.1,6.04-5.85,8.56-7.59,18.07-6.31,28.2.79,6.21,4.51,10.02,10.6,11.28.85.18,1.53,0,1.65-.87.21-1.52.36-3.08-.92-4.33-2.15-2.09-4.26-4.22-6.38-6.34-1-1-.93-1.39.4-2.62.87-.81,1.24-.75,2.17.24,1.47,1.57,2.97,3.12,4.66,4.89ZM38.28,46.6c-1.06,1.17-2.1,2.5-3.33,3.62-2.37,2.19-5.31,3.33-8.36,4.24-.52.16-1.3.68-1.33,1.08-.13,2.03-.1,4.08-.02,6.11.04.95.53,1.11,1.39.57.88-.55,1.72-1.17,2.63-1.67,3.43-1.88,6.73-1.67,9.84.76.75.59,1.45,1.25,2.18,1.87,1.23,1.05,2.23,1.13,3.59.24.5-.33.94-.74,1.41-1.11,1.44-1.14,2.85-2.32,4.34-3.4.93-.67,1.26-1.48,1.09-2.57-.07-.43-.16-.89-.09-1.31.21-1.29-.43-1.67-1.59-1.77-2.93-.27-5.6-1.3-7.9-3.12-1.39-1.11-2.63-2.41-3.85-3.54ZM69.51,72.98s0,0,0,0c.72,0,1.44-.06,2.15.01,2.71.29,2.69-.61,2.49-2.84-.01-.16-.07-.31-.1-.47-.65-3.08-2.77-5.15-5.16-6.8-7.54-5.2-13.5-4.02-19.77,1.35-.21.18-.16.66-.24,1,.34.02.81.2.99.04,2.51-2.25,5.21-2.01,8.01-.69,2.87,1.35,4.87,3.53,6.14,6.43.78,1.78,1.28,2.05,3.22,1.98.76-.03,1.52,0,2.28,0ZM47.97,72.83c-.29-1.36-.58-2.49-.77-3.63-.19-1.13-.69-1.98-1.85-2.23-1.13-.24-1.84.32-2.43,1.29-.3.49-1.1,1.1-1.49,1-.66-.18-1.62-.82-1.7-1.38-.43-3.06-2.55-4.23-5.13-4.98-2.55-.74-4.39-.04-5.86,2.2q-1.32,2.01-3.54,1.34c0,1.72-.02,3.43,0,5.14.02,1.02.44,1.47,1.6,1.46,6.75-.06,13.5-.01,20.24-.02.37,0,.74-.16.91-.19ZM3.86,72.95c5.08,0,10.06,0,15.05,0,.35,0,.71-.13,1.06-.19.93-.17,1.55-.7,1.65-1.64.14-1.3.22-2.62.24-3.93.03-2.44-.35-2.71-2.63-2.04-.46.13-.97.2-1.34.47-2.8,1.98-6.01,2.61-9.32,3.05-2.38.32-4.18,2.02-4.69,4.3ZM61.09,73c-1.08-3.04-3.05-4.85-5.84-5.77-1.71-.56-2.92-.04-3.82,1.56-.67,1.2-1.24,2.46-1.98,3.95,3.87.6,7.66.1,11.64.27Z"/>
      <path class="cls-1" d="M11.13,27.66c-1.88-.02-2.97-1.17-2.95-3.12.02-1.79,1.24-3.04,2.98-3.04,1.89,0,3.08,1.25,3.05,3.2-.03,1.94-1.11,2.98-3.09,2.96Z"/>
      <path class="cls-1" d="M53.48,24.06c-1.94-.02-3.1-1.23-3.06-3.18.04-1.8,1.32-3.01,3.18-3.01,1.74,0,3.06,1.39,3.02,3.18-.04,1.85-1.27,3.03-3.13,3.02Z"/>
    </g>
  </g>
</svg>