<?xml version="1.0" encoding="UTF-8"?>
<svg id="Capa_2" data-name="Capa 2" xmlns="http://www.w3.org/2000/svg" viewBox="0 0 64.27 63.27">
  <defs>
    <style>
      .cls-1 {
        fill: #020303;
        stroke-width: 0px;
      }
    </style>
  </defs>
  <g id="Capa_1-2" data-name="Capa 1">
    <path class="cls-1" d="M31.96,0C14.24.04-.1,14.31,0,31.8c.1,17.57,14.44,31.55,32.26,31.47,17.79-.08,32.15-14.33,32.01-31.77C64.12,13.99,49.72-.05,31.96,0ZM50.21,8.67c-11.91,2.64-21.02,8.39-28.2,17.16-.76.92-1.33.96-2.38.57-7.38-2.77-7.5-3.25-1.93-8.7,6.83-6.68,15.03-10.7,24.39-12.39,3.11-.56,5.04,1.79,8.12,3.36ZM6.79,16.94C13.64,6.46,23.35,1.92,35.77,2.96c0,.33.01.67.01,1.01-9.76,2.98-17.89,8.39-24.15,16.44-2.01,2.59-2.99-.19-4.37-.62-1.79-.56-1.21-1.71-.47-2.85ZM4.29,22.4c.74-1.68,1.64-.11,2.22.24,6.21,3.8,12.71,6.94,19.73,8.95,5.44,1.56,5.8,2.12,5.33,8.3-9.82-2.17-18.95-5.68-26.65-12.41-1.97-1.71-1.38-3.35-.63-5.08ZM30.17,56.24c-.7,1.4.22,3.79-1.53,4.02-8.45-.18-20.41-8.74-22.8-15.68-.12-.33-.48-.62-.13-1,.47-.52.84-.1,1.19.18,6.58,5.26,14.11,8.56,22.23,10.58,1.28.31,1.61.77,1.04,1.9ZM31.85,44.58c-.7,9.5.27,7.77-7.38,5.47-6.84-2.06-12.88-5.64-18.21-10.39-3.55-3.16-4.04-4.66-3.24-10.23,7.94,7.03,17.17,10.66,27.01,12.93,1.41.33,1.93.78,1.82,2.22ZM28.12,29.3c-1.31-.54-2.7-.86-4.3-1.35,7.35-9.01,16.44-14.7,27.72-16.63,2.92-.5,3.2,2.72,5.18,4.21-3.69,1.51-7.16,2.7-10.41,4.39-4.34,2.25-8.5,4.8-12.07,8.11-1.94,1.79-3.75,2.26-6.12,1.27ZM42.42,48.25c-.15,2.85-.65,5.68-.81,8.53-.11,1.83-.82,2.6-2.66,3.01-6.91,1.54-6.86,1.63-5.55-5.07,1.3-6.59,1.89-13.24.62-19.88-.42-2.22.16-3.57,1.89-4.76,1.24-.86,2.37-1.86,3.76-2.97,2.39,7.1,3.13,14.05,2.75,21.14ZM52.14,51.4c-.22,1.33-.78,2.26-1.86,3.01-1.8,1.24-3.56,2.53-5.89,3.42.26-3.24.54-6.18.71-9.13.42-7.3-.2-14.5-2.49-21.47-.46-1.4-.21-2.03,1-2.68,8.4-4.49,6.61-5.16,8.56,3.5,1.73,7.72,1.26,15.56-.03,23.35ZM56.29,48.09c-.15.22-.38.37-1.03.98,1.28-9.73.95-18.84-1.92-27.71-.64-1.98.74-1.94,1.65-2.16,1.32-.32,2.82-2.07,3.95.6,3.76,8.84,3.44,17.43-1.15,25.86-.45.84-.98,1.63-1.5,2.43Z"/>
  </g>
</svg>