<?xml version="1.0" encoding="UTF-8"?>
<svg id="Capa_2" data-name="Capa 2" xmlns="http://www.w3.org/2000/svg" viewBox="0 0 67.08 66.88">
  <defs>
    <style>
      .cls-1 {
        fill: #1b1b1b;
      }

      .cls-1, .cls-2, .cls-3, .cls-4, .cls-5, .cls-6, .cls-7, .cls-8, .cls-9, .cls-10, .cls-11, .cls-12, .cls-13, .cls-14, .cls-15, .cls-16 {
        stroke-width: 0px;
      }

      .cls-2 {
        fill: #1d1e1e;
      }

      .cls-3 {
        fill: #030303;
      }

      .cls-4 {
        fill: #171717;
      }

      .cls-5 {
        fill: #1a1b1b;
      }

      .cls-6 {
        fill: #191a1a;
      }

      .cls-7 {
        fill: #1a1a1a;
      }

      .cls-8 {
        fill: #171818;
      }

      .cls-9 {
        fill: #fff;
      }

      .cls-10 {
        fill: #141415;
      }

      .cls-11 {
        fill: #131414;
      }

      .cls-12 {
        fill: #050606;
      }

      .cls-13 {
        fill: #181818;
      }

      .cls-14 {
        fill: #19191a;
      }

      .cls-15 {
        fill: #161617;
      }

      .cls-16 {
        fill: #303030;
      }
    </style>
  </defs>
  <g id="Capa_1-2" data-name="Capa 1">
    <path class="cls-3" d="M32.25,23.54c-1.24.1-2.03.83-2.01,2.09.02,1.39.87,2.17,2.26,2.16,1.44,0,2.06-.91,2.17-2.2-.21-1.44-1.03-2.15-2.42-2.05ZM32.57,15.27c-1.39-.03-2.29.67-2.33,2.07-.03,1.4.86,2.1,2.12,2.21,1.54-.07,2.3-.9,2.27-2.24-.02-1.21-.75-2.01-2.06-2.04ZM27.29,27.38c-1.11,5.69-2.12,10.92-3.17,16.36,1.71-.47,3.03-.82,4.34-1.18.04-.11.08-.21.12-.3.58-1.27,1.62-1.21,2.79-.81.04.01.08.03.12.04,2.39-.89,5.01-1.23,6.81-2.29-3.61-3.87-7.14-7.66-11.01-11.82ZM27.74,39.75c.48-2.36.86-4.25,1.28-6.35,1.53,1.62,2.88,3.04,4.27,4.52-1.55.51-3.31,1.09-5.55,1.83ZM36.41,11.2c-1.39.07-2.15.9-2.07,2.31.07,1.29.9,1.93,2.13,1.95,1.4.02,2.16-.74,2.24-2.2-.15-1.34-.9-2.14-2.3-2.06ZM36.48,28.02c-1.28.26-2.25.85-2.15,2.32.1,1.41,1.03,2.15,2.35,2.06,1.17-.08,1.98-.84,2-2.13.03-1.47-.93-2.03-2.2-2.25ZM36.3,19.76c-1.15.1-2,.81-1.97,2.14.03,1.45.95,2.22,2.24,2.18,1.3-.04,2.14-.87,2.13-2.38-.19-1.34-1.07-2.07-2.4-1.94ZM40.57,15.27c-1.24.04-2.04.7-2.09,1.98-.06,1.42.71,2.23,2.1,2.28,1.4.04,2.15-.75,2.28-2.19-.13-1.35-.88-2.12-2.29-2.07ZM40.33,23.52c-1.18.2-1.98.91-1.85,2.35.12,1.26.94,1.94,2.16,1.93,1.39-.01,2.21-.8,2.18-2.21-.03-1.44-.94-2.05-2.49-2.07ZM40.71,7.26c-1.25.22-2.25.73-2.24,2.22.01,1.44.94,2.2,2.24,2.19,1.15-.02,2.03-.74,2.11-2.03.1-1.45-.81-2.09-2.11-2.38ZM45.19,11.19c-1.45-.01-2.23.92-2.2,2.22.02,1.17.78,2,2.09,2.04,1.41.03,2.17-.71,2.4-2.07-.17-1.36-.89-2.18-2.29-2.19ZM45.22,19.67c-1.31.22-2.27.92-2.24,2.26.02,1.32.94,2.2,2.26,2.16,1.27-.03,2.2-.79,2.2-2.2s-1.01-1.96-2.22-2.22ZM49.06,7.31c-1.25.02-2.24.74-2.22,2.17.01,1.4.93,2.17,2.21,2.2,1.33.02,2.08-.87,2.29-2.18-.18-1.34-.97-2.21-2.28-2.19ZM48.99,23.53c-1.25.05-2.09.71-2.14,1.98-.06,1.39.76,2.21,2.14,2.29,1.45.08,2.09-.85,2.35-2.14-.24-1.31-.9-2.18-2.35-2.13ZM49.03,15.27c-1.26.03-2.09.72-2.17,1.95-.1,1.4.73,2.21,2.11,2.31,1.45.1,2.1-.82,2.37-2.11-.23-1.29-.86-2.19-2.31-2.15ZM52.97,11.19c-1.4.07-2.15.9-2.08,2.31.07,1.3.89,1.94,2.13,1.96,1.39.01,2.16-.74,2.25-2.19-.15-1.34-.91-2.14-2.3-2.08ZM53.85,19.7c-1.27.05-2.27.85-2.22,2.26.05,1.37,1.01,2.18,2.32,2.16,1.33-.03,2.08-.95,2.31-2.24-.28-1.33-1.08-2.23-2.41-2.18ZM58.28,23.55c-1.29-.06-2.12.68-2.26,1.86-.16,1.34.6,2.25,1.99,2.39,1.4.13,2.16-.68,2.48-1.97-.12-1.39-.81-2.21-2.21-2.28ZM58.14,15.25c-1.44.14-2.24.98-2.14,2.32.09,1.16.87,1.98,2.17,1.96,1.4-.03,2.28-.8,2.27-2.17-.02-1.38-.95-2.06-2.3-2.11ZM58.17,19.53c1.4-.03,2.28-.8,2.27-2.17-.02-1.38-.95-2.06-2.3-2.11-1.44.14-2.24.98-2.14,2.32.09,1.16.87,1.98,2.17,1.96ZM58.28,23.55c-1.29-.06-2.12.68-2.26,1.86-.16,1.34.6,2.25,1.99,2.39,1.4.13,2.16-.68,2.48-1.97-.12-1.39-.81-2.21-2.21-2.28ZM53.85,19.7c-1.27.05-2.27.85-2.22,2.26.05,1.37,1.01,2.18,2.32,2.16,1.33-.03,2.08-.95,2.31-2.24-.28-1.33-1.08-2.23-2.41-2.18ZM55.27,13.27c-.15-1.34-.91-2.14-2.3-2.08-1.4.07-2.15.9-2.08,2.31.07,1.3.89,1.94,2.13,1.96,1.39.01,2.16-.74,2.25-2.19ZM49.03,15.27c-1.26.03-2.09.72-2.17,1.95-.1,1.4.73,2.21,2.11,2.31,1.45.1,2.1-.82,2.37-2.11-.23-1.29-.86-2.19-2.31-2.15ZM48.99,23.53c-1.25.05-2.09.71-2.14,1.98-.06,1.39.76,2.21,2.14,2.29,1.45.08,2.09-.85,2.35-2.14-.24-1.31-.9-2.18-2.35-2.13ZM49.05,11.68c1.33.02,2.08-.87,2.29-2.18-.18-1.34-.97-2.21-2.28-2.19-1.25.02-2.24.74-2.22,2.17.01,1.4.93,2.17,2.21,2.2ZM45.22,19.67c-1.31.22-2.27.92-2.24,2.26.02,1.32.94,2.2,2.26,2.16,1.27-.03,2.2-.79,2.2-2.2s-1.01-1.96-2.22-2.22ZM45.08,15.45c1.41.03,2.17-.71,2.4-2.07-.17-1.36-.89-2.18-2.29-2.19-1.45-.01-2.23.92-2.2,2.22.02,1.17.78,2,2.09,2.04ZM40.71,11.67c1.15-.02,2.03-.74,2.11-2.03.1-1.45-.81-2.09-2.11-2.38-1.25.22-2.25.73-2.24,2.22.01,1.44.94,2.2,2.24,2.19ZM40.33,23.52c-1.18.2-1.98.91-1.85,2.35.12,1.26.94,1.94,2.16,1.93,1.39-.01,2.21-.8,2.18-2.21-.03-1.44-.94-2.05-2.49-2.07ZM40.57,15.27c-1.24.04-2.04.7-2.09,1.98-.06,1.42.71,2.23,2.1,2.28,1.4.04,2.15-.75,2.28-2.19-.13-1.35-.88-2.12-2.29-2.07ZM36.3,19.76c-1.15.1-2,.81-1.97,2.14.03,1.45.95,2.22,2.24,2.18,1.3-.04,2.14-.87,2.13-2.38-.19-1.34-1.07-2.07-2.4-1.94ZM36.48,28.02c-1.28.26-2.25.85-2.15,2.32.1,1.41,1.03,2.15,2.35,2.06,1.17-.08,1.98-.84,2-2.13.03-1.47-.93-2.03-2.2-2.25ZM36.47,15.46c1.4.02,2.16-.74,2.24-2.2-.15-1.34-.9-2.14-2.3-2.06-1.39.07-2.15.9-2.07,2.31.07,1.29.9,1.93,2.13,1.95ZM24.12,43.74c1.71-.47,3.03-.82,4.34-1.18.04-.11.08-.21.12-.3.58-1.27,1.62-1.21,2.79-.81.04.01.08.03.12.04,2.39-.89,5.01-1.23,6.81-2.29-3.61-3.87-7.14-7.66-11.01-11.82-1.11,5.69-2.12,10.92-3.17,16.36ZM27.74,39.75c.48-2.36.86-4.25,1.28-6.35,1.53,1.62,2.88,3.04,4.27,4.52-1.55.51-3.31,1.09-5.55,1.83ZM32.36,19.55c1.54-.07,2.3-.9,2.27-2.24-.02-1.21-.75-2.01-2.06-2.04-1.39-.03-2.29.67-2.33,2.07-.03,1.4.86,2.1,2.12,2.21ZM32.5,27.79c1.44,0,2.06-.91,2.17-2.2-.21-1.44-1.03-2.15-2.42-2.05-1.24.1-2.03.83-2.01,2.09.02,1.39.87,2.17,2.26,2.16ZM67.08,22.45c.01-9.29-6.24-18.1-15.09-21.27-8.39-3-16.74-.2-23.17,7.3-4.92,5.74-6.4,12.59-6.79,19.7-.36,6.49-2.57,11.73-7.44,16.09-4.69,4.22-9.01,8.83-13.58,13.19-1.11,1.07-1.5,1.73-.15,2.95,1.91,1.71,3.68,3.58,5.34,5.54,1.15,1.35,1.82,1.13,2.93-.06,4.72-5.04,9.82-9.75,14.24-15.03,4.43-5.29,10.14-6.28,16.38-6.56,1.32-.06,1.55.61,2.02,1.56,2.33,4.77,7,6.92,11.74,5.52,4.54-1.34,7.58-6.04,6.82-11.08-.22-1.51.2-2.33,1.07-3.34,3.57-4.17,5.75-8.91,5.68-14.51ZM20.83,49.57c-3.95,4.11-7.95,8.16-11.8,12.36-1.23,1.34-1.83,1.03-2.9-.11-2.61-2.8-2.67-2.75.07-5.44,3.57-3.51,7.13-7.04,10.74-10.51.52-.5.92-1.81,2.07-.87,1.13.92,2.2,1.92,3.33,2.91-.72.79-1.11,1.23-1.51,1.66ZM50.57,48.97c-3.75-.08-6.75-3.25-6.76-7.16-.02-4.1,3.04-7.23,6.99-7.17,3.82.06,6.76,3.14,6.77,7.1.02,4.02-3.17,7.32-7,7.23ZM59.78,34.57c-.84.96-1.39,1.2-2.24.09-.93-1.21-3.65-1.62-1.47-4.12.62-.72-.33-1.83-1.33-2.26-1.18-.5-2.06-.05-2.8.93-.64.86,0,1.7-.06,2.65h-5.01c.2-.53.53-1.05.56-1.58.08-1.28-.75-1.98-1.89-2.18-1.2-.21-2.07.39-2.45,1.54-.42,1.24.22,2.09,1.27,2.56.58.26,1.3.21,1.96.3-1.24,1.11-2.48,2.22-3.73,3.33.07-.48.14-.97.2-1.46.15-1.38-.37-2.32-1.82-2.52-1.22-.16-2.2.31-2.44,1.58-.29,1.5.4,2.52,1.98,2.65.62.05,1.14.18,1.61.57-.34,4.42-3.16,5.53-7.03,5.31-.96-.06-1.94.08-2.92.13-.1.03-.19.06-.29.09-.94.3-1.89.6-2.84.9-.79.4-1.6.75-2.35,1.21-2.64,1.6-3.91,1.29-5.7-1.29-.41-.58-.49-.99-.07-1.53,3.47-4.48,3.52-9.87,4.07-15.14.71-6.69,2.59-12.85,7.6-17.78,7.53-7.4,17.69-7.63,25.34-.38,7.63,7.23,8.42,18.92,1.85,26.4ZM58.17,19.53c1.4-.03,2.28-.8,2.27-2.17-.02-1.38-.95-2.06-2.3-2.11-1.44.14-2.24.98-2.14,2.32.09,1.16.87,1.98,2.17,1.96ZM58.28,23.55c-1.29-.06-2.12.68-2.26,1.86-.16,1.34.6,2.25,1.99,2.39,1.4.13,2.16-.68,2.48-1.97-.12-1.39-.81-2.21-2.21-2.28ZM53.85,19.7c-1.27.05-2.27.85-2.22,2.26.05,1.37,1.01,2.18,2.32,2.16,1.33-.03,2.08-.95,2.31-2.24-.28-1.33-1.08-2.23-2.41-2.18ZM55.27,13.27c-.15-1.34-.91-2.14-2.3-2.08-1.4.07-2.15.9-2.08,2.31.07,1.3.89,1.94,2.13,1.96,1.39.01,2.16-.74,2.25-2.19ZM49.03,15.27c-1.26.03-2.09.72-2.17,1.95-.1,1.4.73,2.21,2.11,2.31,1.45.1,2.1-.82,2.37-2.11-.23-1.29-.86-2.19-2.31-2.15ZM48.99,23.53c-1.25.05-2.09.71-2.14,1.98-.06,1.39.76,2.21,2.14,2.29,1.45.08,2.09-.85,2.35-2.14-.24-1.31-.9-2.18-2.35-2.13ZM49.05,11.68c1.33.02,2.08-.87,2.29-2.18-.18-1.34-.97-2.21-2.28-2.19-1.25.02-2.24.74-2.22,2.17.01,1.4.93,2.17,2.21,2.2ZM45.22,19.67c-1.31.22-2.27.92-2.24,2.26.02,1.32.94,2.2,2.26,2.16,1.27-.03,2.2-.79,2.2-2.2s-1.01-1.96-2.22-2.22ZM45.08,15.45c1.41.03,2.17-.71,2.4-2.07-.17-1.36-.89-2.18-2.29-2.19-1.45-.01-2.23.92-2.2,2.22.02,1.17.78,2,2.09,2.04ZM40.71,11.67c1.15-.02,2.03-.74,2.11-2.03.1-1.45-.81-2.09-2.11-2.38-1.25.22-2.25.73-2.24,2.22.01,1.44.94,2.2,2.24,2.19ZM40.33,23.52c-1.18.2-1.98.91-1.85,2.35.12,1.26.94,1.94,2.16,1.93,1.39-.01,2.21-.8,2.18-2.21-.03-1.44-.94-2.05-2.49-2.07ZM40.57,15.27c-1.24.04-2.04.7-2.09,1.98-.06,1.42.71,2.23,2.1,2.28,1.4.04,2.15-.75,2.28-2.19-.13-1.35-.88-2.12-2.29-2.07ZM36.3,19.76c-1.15.1-2,.81-1.97,2.14.03,1.45.95,2.22,2.24,2.18,1.3-.04,2.14-.87,2.13-2.38-.19-1.34-1.07-2.07-2.4-1.94ZM36.48,28.02c-1.28.26-2.25.85-2.15,2.32.1,1.41,1.03,2.15,2.35,2.06,1.17-.08,1.98-.84,2-2.13.03-1.47-.93-2.03-2.2-2.25ZM36.47,15.46c1.4.02,2.16-.74,2.24-2.2-.15-1.34-.9-2.14-2.3-2.06-1.39.07-2.15.9-2.07,2.31.07,1.29.9,1.93,2.13,1.95ZM24.12,43.74c1.71-.47,3.03-.82,4.34-1.18.04-.11.08-.21.12-.3.58-1.27,1.62-1.21,2.79-.81.04.01.08.03.12.04,2.39-.89,5.01-1.23,6.81-2.29-3.61-3.87-7.14-7.66-11.01-11.82-1.11,5.69-2.12,10.92-3.17,16.36ZM27.74,39.75c.48-2.36.86-4.25,1.28-6.35,1.53,1.62,2.88,3.04,4.27,4.52-1.55.51-3.31,1.09-5.55,1.83ZM32.36,19.55c1.54-.07,2.3-.9,2.27-2.24-.02-1.21-.75-2.01-2.06-2.04-1.39-.03-2.29.67-2.33,2.07-.03,1.4.86,2.1,2.12,2.21ZM32.5,27.79c1.44,0,2.06-.91,2.17-2.2-.21-1.44-1.03-2.15-2.42-2.05-1.24.1-2.03.83-2.01,2.09.02,1.39.87,2.17,2.26,2.16ZM32.25,23.54c-1.24.1-2.03.83-2.01,2.09.02,1.39.87,2.17,2.26,2.16,1.44,0,2.06-.91,2.17-2.2-.21-1.44-1.03-2.15-2.42-2.05ZM32.57,15.27c-1.39-.03-2.29.67-2.33,2.07-.03,1.4.86,2.1,2.12,2.21,1.54-.07,2.3-.9,2.27-2.24-.02-1.21-.75-2.01-2.06-2.04ZM27.29,27.38c-1.11,5.69-2.12,10.92-3.17,16.36,1.71-.47,3.03-.82,4.34-1.18.04-.11.08-.21.12-.3.58-1.27,1.62-1.21,2.79-.81.04.01.08.03.12.04,2.39-.89,5.01-1.23,6.81-2.29-3.61-3.87-7.14-7.66-11.01-11.82ZM27.74,39.75c.48-2.36.86-4.25,1.28-6.35,1.53,1.62,2.88,3.04,4.27,4.52-1.55.51-3.31,1.09-5.55,1.83ZM36.41,11.2c-1.39.07-2.15.9-2.07,2.31.07,1.29.9,1.93,2.13,1.95,1.4.02,2.16-.74,2.24-2.2-.15-1.34-.9-2.14-2.3-2.06ZM36.48,28.02c-1.28.26-2.25.85-2.15,2.32.1,1.41,1.03,2.15,2.35,2.06,1.17-.08,1.98-.84,2-2.13.03-1.47-.93-2.03-2.2-2.25ZM36.3,19.76c-1.15.1-2,.81-1.97,2.14.03,1.45.95,2.22,2.24,2.18,1.3-.04,2.14-.87,2.13-2.38-.19-1.34-1.07-2.07-2.4-1.94ZM40.57,15.27c-1.24.04-2.04.7-2.09,1.98-.06,1.42.71,2.23,2.1,2.28,1.4.04,2.15-.75,2.28-2.19-.13-1.35-.88-2.12-2.29-2.07ZM40.33,23.52c-1.18.2-1.98.91-1.85,2.35.12,1.26.94,1.94,2.16,1.93,1.39-.01,2.21-.8,2.18-2.21-.03-1.44-.94-2.05-2.49-2.07ZM40.71,7.26c-1.25.22-2.25.73-2.24,2.22.01,1.44.94,2.2,2.24,2.19,1.15-.02,2.03-.74,2.11-2.03.1-1.45-.81-2.09-2.11-2.38ZM45.19,11.19c-1.45-.01-2.23.92-2.2,2.22.02,1.17.78,2,2.09,2.04,1.41.03,2.17-.71,2.4-2.07-.17-1.36-.89-2.18-2.29-2.19ZM45.22,19.67c-1.31.22-2.27.92-2.24,2.26.02,1.32.94,2.2,2.26,2.16,1.27-.03,2.2-.79,2.2-2.2s-1.01-1.96-2.22-2.22ZM49.06,7.31c-1.25.02-2.24.74-2.22,2.17.01,1.4.93,2.17,2.21,2.2,1.33.02,2.08-.87,2.29-2.18-.18-1.34-.97-2.21-2.28-2.19ZM48.99,23.53c-1.25.05-2.09.71-2.14,1.98-.06,1.39.76,2.21,2.14,2.29,1.45.08,2.09-.85,2.35-2.14-.24-1.31-.9-2.18-2.35-2.13ZM49.03,15.27c-1.26.03-2.09.72-2.17,1.95-.1,1.4.73,2.21,2.11,2.31,1.45.1,2.1-.82,2.37-2.11-.23-1.29-.86-2.19-2.31-2.15ZM52.97,11.19c-1.4.07-2.15.9-2.08,2.31.07,1.3.89,1.94,2.13,1.96,1.39.01,2.16-.74,2.25-2.19-.15-1.34-.91-2.14-2.3-2.08ZM53.85,19.7c-1.27.05-2.27.85-2.22,2.26.05,1.37,1.01,2.18,2.32,2.16,1.33-.03,2.08-.95,2.31-2.24-.28-1.33-1.08-2.23-2.41-2.18ZM58.28,23.55c-1.29-.06-2.12.68-2.26,1.86-.16,1.34.6,2.25,1.99,2.39,1.4.13,2.16-.68,2.48-1.97-.12-1.39-.81-2.21-2.21-2.28ZM58.14,15.25c-1.44.14-2.24.98-2.14,2.32.09,1.16.87,1.98,2.17,1.96,1.4-.03,2.28-.8,2.27-2.17-.02-1.38-.95-2.06-2.3-2.11ZM58.14,15.25c-1.44.14-2.24.98-2.14,2.32.09,1.16.87,1.98,2.17,1.96,1.4-.03,2.28-.8,2.27-2.17-.02-1.38-.95-2.06-2.3-2.11ZM58.28,23.55c-1.29-.06-2.12.68-2.26,1.86-.16,1.34.6,2.25,1.99,2.39,1.4.13,2.16-.68,2.48-1.97-.12-1.39-.81-2.21-2.21-2.28ZM53.85,19.7c-1.27.05-2.27.85-2.22,2.26.05,1.37,1.01,2.18,2.32,2.16,1.33-.03,2.08-.95,2.31-2.24-.28-1.33-1.08-2.23-2.41-2.18ZM52.97,11.19c-1.4.07-2.15.9-2.08,2.31.07,1.3.89,1.94,2.13,1.96,1.39.01,2.16-.74,2.25-2.19-.15-1.34-.91-2.14-2.3-2.08ZM49.03,15.27c-1.26.03-2.09.72-2.17,1.95-.1,1.4.73,2.21,2.11,2.31,1.45.1,2.1-.82,2.37-2.11-.23-1.29-.86-2.19-2.31-2.15ZM48.99,23.53c-1.25.05-2.09.71-2.14,1.98-.06,1.39.76,2.21,2.14,2.29,1.45.08,2.09-.85,2.35-2.14-.24-1.31-.9-2.18-2.35-2.13ZM49.06,7.31c-1.25.02-2.24.74-2.22,2.17.01,1.4.93,2.17,2.21,2.2,1.33.02,2.08-.87,2.29-2.18-.18-1.34-.97-2.21-2.28-2.19ZM45.22,19.67c-1.31.22-2.27.92-2.24,2.26.02,1.32.94,2.2,2.26,2.16,1.27-.03,2.2-.79,2.2-2.2s-1.01-1.96-2.22-2.22ZM45.19,11.19c-1.45-.01-2.23.92-2.2,2.22.02,1.17.78,2,2.09,2.04,1.41.03,2.17-.71,2.4-2.07-.17-1.36-.89-2.18-2.29-2.19ZM40.71,7.26c-1.25.22-2.25.73-2.24,2.22.01,1.44.94,2.2,2.24,2.19,1.15-.02,2.03-.74,2.11-2.03.1-1.45-.81-2.09-2.11-2.38ZM40.33,23.52c-1.18.2-1.98.91-1.85,2.35.12,1.26.94,1.94,2.16,1.93,1.39-.01,2.21-.8,2.18-2.21-.03-1.44-.94-2.05-2.49-2.07ZM40.57,15.27c-1.24.04-2.04.7-2.09,1.98-.06,1.42.71,2.23,2.1,2.28,1.4.04,2.15-.75,2.28-2.19-.13-1.35-.88-2.12-2.29-2.07ZM36.3,19.76c-1.15.1-2,.81-1.97,2.14.03,1.45.95,2.22,2.24,2.18,1.3-.04,2.14-.87,2.13-2.38-.19-1.34-1.07-2.07-2.4-1.94ZM36.48,28.02c-1.28.26-2.25.85-2.15,2.32.1,1.41,1.03,2.15,2.35,2.06,1.17-.08,1.98-.84,2-2.13.03-1.47-.93-2.03-2.2-2.25ZM36.41,11.2c-1.39.07-2.15.9-2.07,2.31.07,1.29.9,1.93,2.13,1.95,1.4.02,2.16-.74,2.24-2.2-.15-1.34-.9-2.14-2.3-2.06ZM27.29,27.38c-1.11,5.69-2.12,10.92-3.17,16.36,1.71-.47,3.03-.82,4.34-1.18.04-.11.08-.21.12-.3.58-1.27,1.62-1.21,2.79-.81.04.01.08.03.12.04,2.39-.89,5.01-1.23,6.81-2.29-3.61-3.87-7.14-7.66-11.01-11.82ZM27.74,39.75c.48-2.36.86-4.25,1.28-6.35,1.53,1.62,2.88,3.04,4.27,4.52-1.55.51-3.31,1.09-5.55,1.83ZM32.57,15.27c-1.39-.03-2.29.67-2.33,2.07-.03,1.4.86,2.1,2.12,2.21,1.54-.07,2.3-.9,2.27-2.24-.02-1.21-.75-2.01-2.06-2.04ZM32.25,23.54c-1.24.1-2.03.83-2.01,2.09.02,1.39.87,2.17,2.26,2.16,1.44,0,2.06-.91,2.17-2.2-.21-1.44-1.03-2.15-2.42-2.05Z"/>
    <path class="cls-9" d="M30.24,25.63c-.02-1.26.77-1.99,2.01-2.09,1.39-.1,2.21.61,2.42,2.05-.11,1.29-.73,2.2-2.17,2.2-1.39.01-2.24-.77-2.26-2.16Z"/>
    <path class="cls-9" d="M30.24,17.34c.04-1.4.94-2.1,2.33-2.07,1.31.03,2.04.83,2.06,2.04.03,1.34-.73,2.17-2.27,2.24-1.26-.11-2.15-.81-2.12-2.21Z"/>
    <path class="cls-9" d="M38.3,39.2c-1.8,1.06-4.42,1.4-6.81,2.29.23.2.46.4.68.6-.1.03-.19.06-.29.09-.35.04-.5-.23-.58-.63,0-.01,0-.01,0-.02.02-.03.04-.06.06-.08,1.03-1.49,2.78-1.52,4.3-1.98,1.37-.43,1.56-1.03.55-2.03-2.63-2.61-5.18-5.32-8.41-8.28-1.14,4.57-1.78,8.83-2.71,13.03,1.2.61,2.22-.35,3.26-.02.08.03.15.05.22.09.06.02.12.05.17.09.22.15.36.36.29.73-.19-.17-.39-.35-.58-.52-1.31.36-2.63.71-4.34,1.18,1.05-5.44,2.06-10.67,3.17-16.36,3.87,4.16,7.4,7.95,11.01,11.82Z"/>
    <path class="cls-9" d="M34.34,13.51c-.08-1.41.68-2.24,2.07-2.31,1.4-.08,2.15.72,2.3,2.06-.08,1.46-.84,2.22-2.24,2.2-1.23-.02-2.06-.66-2.13-1.95Z"/>
    <path class="cls-9" d="M36.48,28.02c1.27.22,2.23.78,2.2,2.25-.02,1.29-.83,2.05-2,2.13-1.32.09-2.25-.65-2.35-2.06-.1-1.47.87-2.06,2.15-2.32Z"/>
    <path class="cls-9" d="M38.7,21.7c.01,1.51-.83,2.34-2.13,2.38-1.29.04-2.21-.73-2.24-2.18-.03-1.33.82-2.04,1.97-2.14,1.33-.13,2.21.6,2.4,1.94Z"/>
    <path class="cls-9" d="M42.86,17.34c-.13,1.44-.88,2.23-2.28,2.19-1.39-.05-2.16-.86-2.1-2.28.05-1.28.85-1.94,2.09-1.98,1.41-.05,2.16.72,2.29,2.07Z"/>
    <path class="cls-9" d="M42.79,34.37c-.06.49-.13.98-.2,1.46-.61-.57-.52-1.43-.86-2.11-.23-.45-.57-.78-1.12-.76-.41.01-.76.18-.92.57-.25.62-.05,1.13.47,1.51.68.51,1.63.68,1.96,1.61-.47-.39-.99-.52-1.61-.57-1.58-.13-2.27-1.15-1.98-2.65.24-1.27,1.22-1.74,2.44-1.58,1.45.2,1.97,1.14,1.82,2.52Z"/>
    <path class="cls-9" d="M42.82,25.59c.03,1.41-.79,2.2-2.18,2.21-1.22.01-2.04-.67-2.16-1.93-.13-1.44.67-2.15,1.85-2.35,1.55.02,2.46.63,2.49,2.07Z"/>
    <path class="cls-9" d="M38.47,9.48c-.01-1.49.99-2,2.24-2.22,1.3.29,2.21.93,2.11,2.38-.08,1.29-.96,2.01-2.11,2.03-1.3.01-2.23-.75-2.24-2.19Z"/>
    <path class="cls-9" d="M42.99,13.41c-.03-1.3.75-2.23,2.2-2.22,1.4,0,2.12.83,2.29,2.19-.23,1.36-.99,2.1-2.4,2.07-1.31-.04-2.07-.87-2.09-2.04Z"/>
    <path class="cls-9" d="M42.98,21.93c-.03-1.34.93-2.04,2.24-2.26,1.21.26,2.22.78,2.22,2.22s-.93,2.17-2.2,2.2c-1.32.04-2.24-.84-2.26-2.16Z"/>
    <path class="cls-9" d="M47.43,30.28c-.03.53-.36,1.05-.56,1.58-.55-.91.15-2.51-1.47-2.82-.63-.13-1.18.23-1.31.86-.39,1.8,1.62,1.61,2.23,2.6-.66-.09-1.38-.04-1.96-.3-1.05-.47-1.69-1.32-1.27-2.56.38-1.15,1.25-1.75,2.45-1.54,1.14.2,1.97.9,1.89,2.18Z"/>
    <path class="cls-9" d="M46.84,9.48c-.02-1.43.97-2.15,2.22-2.17,1.31-.02,2.1.85,2.28,2.19-.21,1.31-.96,2.2-2.29,2.18-1.28-.03-2.2-.8-2.21-2.2Z"/>
    <path class="cls-9" d="M51.34,25.66c-.26,1.29-.9,2.22-2.35,2.14-1.38-.08-2.2-.9-2.14-2.29.05-1.27.89-1.93,2.14-1.98,1.45-.05,2.11.82,2.35,2.13Z"/>
    <path class="cls-9" d="M51.34,17.42c-.27,1.29-.92,2.21-2.37,2.11-1.38-.1-2.21-.91-2.11-2.31.08-1.23.91-1.92,2.17-1.95,1.45-.04,2.08.86,2.31,2.15Z"/>
    <path class="cls-9" d="M53.02,15.46c-1.24-.02-2.06-.66-2.13-1.96-.07-1.41.68-2.24,2.08-2.31,1.39-.06,2.15.74,2.3,2.08-.09,1.45-.86,2.2-2.25,2.19Z"/>
    <path class="cls-9" d="M56.26,21.88c-.23,1.29-.98,2.21-2.31,2.24-1.31.02-2.27-.79-2.32-2.16-.05-1.41.95-2.21,2.22-2.26,1.33-.05,2.13.85,2.41,2.18Z"/>
    <path class="cls-9" d="M60.49,25.83c-.32,1.29-1.08,2.1-2.48,1.97-1.39-.14-2.15-1.05-1.99-2.39.14-1.18.97-1.92,2.26-1.86,1.4.07,2.09.89,2.21,2.28Z"/>
    <path class="cls-9" d="M56,17.57c-.1-1.34.7-2.18,2.14-2.32,1.35.05,2.28.73,2.3,2.11.01,1.37-.87,2.14-2.27,2.17-1.3.02-2.08-.8-2.17-1.96Z"/>
    <path class="cls-1" d="M47.43,30.28c-.03.53-.36,1.05-.56,1.58-.18.21-.36.43-.55.64-.66-.09-1.38-.04-1.96-.3-1.05-.47-1.69-1.32-1.27-2.56.38-1.15,1.25-1.75,2.45-1.54,1.14.2,1.97.9,1.89,2.18Z"/>
    <path class="cls-7" d="M42.79,34.37c-.06.49-.13.98-.2,1.46-.16.27-.31.55-.47.82-.47-.39-.99-.52-1.61-.57-1.58-.13-2.27-1.15-1.98-2.65.24-1.27,1.22-1.74,2.44-1.58,1.45.2,1.97,1.14,1.82,2.52Z"/>
    <path class="cls-12" d="M27.29,27.38c-1.11,5.69-2.12,10.92-3.17,16.36,1.71-.47,3.03-.82,4.34-1.18.09-.08.19-.15.29-.21.76-.51,1.68-.62,2.56-.82.06-.01.12-.03.18-.04,2.39-.89,5.01-1.23,6.81-2.29-3.61-3.87-7.14-7.66-11.01-11.82ZM33.29,37.92c-1.55.51-3.31,1.09-5.55,1.83.48-2.36.86-4.25,1.28-6.35,1.53,1.62,2.88,3.04,4.27,4.52Z"/>
    <path class="cls-16" d="M56.26,21.88c-.23,1.29-.98,2.21-2.31,2.24-1.31.02-2.27-.79-2.32-2.16-.05-1.41.95-2.21,2.22-2.26,1.33-.05,2.13.85,2.41,2.18Z"/>
    <path class="cls-2" d="M51.34,9.5c-.21,1.31-.96,2.2-2.29,2.18-1.28-.03-2.2-.8-2.21-2.2-.02-1.43.97-2.15,2.22-2.17,1.31-.02,2.1.85,2.28,2.19Z"/>
    <path class="cls-5" d="M47.44,21.89c0,1.41-.93,2.17-2.2,2.2-1.32.04-2.24-.84-2.26-2.16-.03-1.34.93-2.04,2.24-2.26,1.21.26,2.22.78,2.22,2.22Z"/>
    <path class="cls-1" d="M38.71,13.26c-.08,1.46-.84,2.22-2.24,2.2-1.23-.02-2.06-.66-2.13-1.95-.08-1.41.68-2.24,2.07-2.31,1.4-.08,2.15.72,2.3,2.06Z"/>
    <path class="cls-1" d="M55.27,13.27c-.09,1.45-.86,2.2-2.25,2.19-1.24-.02-2.06-.66-2.13-1.96-.07-1.41.68-2.24,2.08-2.31,1.39-.06,2.15.74,2.3,2.08Z"/>
    <path class="cls-5" d="M42.86,17.34c-.13,1.44-.88,2.23-2.28,2.19-1.39-.05-2.16-.86-2.1-2.28.05-1.28.85-1.94,2.09-1.98,1.41-.05,2.16.72,2.29,2.07Z"/>
    <path class="cls-6" d="M42.82,25.59c.03,1.41-.79,2.2-2.18,2.21-1.22.01-2.04-.67-2.16-1.93-.13-1.44.67-2.15,1.85-2.35,1.55.02,2.46.63,2.49,2.07Z"/>
    <path class="cls-13" d="M34.63,17.31c.03,1.34-.73,2.17-2.27,2.24-1.26-.11-2.15-.81-2.12-2.21.04-1.4.94-2.1,2.33-2.07,1.31.03,2.04.83,2.06,2.04Z"/>
    <path class="cls-8" d="M34.67,25.59c-.11,1.29-.73,2.2-2.17,2.2-1.39.01-2.24-.77-2.26-2.16-.02-1.26.77-1.99,2.01-2.09,1.39-.1,2.21.61,2.42,2.05Z"/>
    <path class="cls-14" d="M51.34,25.66c-.26,1.29-.9,2.22-2.35,2.14-1.38-.08-2.2-.9-2.14-2.29.05-1.27.89-1.93,2.14-1.98,1.45-.05,2.11.82,2.35,2.13Z"/>
    <path class="cls-4" d="M42.82,9.64c-.08,1.29-.96,2.01-2.11,2.03-1.3.01-2.23-.75-2.24-2.19-.01-1.49.99-2,2.24-2.22,1.3.29,2.21.93,2.11,2.38Z"/>
    <path class="cls-10" d="M47.48,13.38c-.23,1.36-.99,2.1-2.4,2.07-1.31-.04-2.07-.87-2.09-2.04-.03-1.3.75-2.23,2.2-2.22,1.4,0,2.12.83,2.29,2.19Z"/>
    <path class="cls-4" d="M51.34,17.42c-.27,1.29-.92,2.21-2.37,2.11-1.38-.1-2.21-.91-2.11-2.31.08-1.23.91-1.92,2.17-1.95,1.45-.04,2.08.86,2.31,2.15Z"/>
    <path class="cls-15" d="M38.7,21.7c.01,1.51-.83,2.34-2.13,2.38-1.29.04-2.21-.73-2.24-2.18-.03-1.33.82-2.04,1.97-2.14,1.33-.13,2.21.6,2.4,1.94Z"/>
    <path class="cls-11" d="M60.44,17.36c.01,1.37-.87,2.14-2.27,2.17-1.3.02-2.08-.8-2.17-1.96-.1-1.34.7-2.18,2.14-2.32,1.35.05,2.28.73,2.3,2.11Z"/>
    <path class="cls-11" d="M60.49,25.83c-.32,1.29-1.08,2.1-2.48,1.97-1.39-.14-2.15-1.05-1.99-2.39.14-1.18.97-1.92,2.26-1.86,1.4.07,2.09.89,2.21,2.28Z"/>
    <path class="cls-11" d="M38.68,30.27c-.02,1.29-.83,2.05-2,2.13-1.32.09-2.25-.65-2.35-2.06-.1-1.47.87-2.06,2.15-2.32,1.27.22,2.23.78,2.2,2.25Z"/>
  </g>
</svg>