<?xml version="1.0" encoding="UTF-8"?>
<svg id="Capa_2" data-name="Capa 2" xmlns="http://www.w3.org/2000/svg" viewBox="0 0 66.95 66.78">
  <defs>
    <style>
      .cls-1 {
        stroke-width: 0px;
      }
    </style>
  </defs>
  <g id="Capa_1-2" data-name="Capa 1">
    <g>
      <path class="cls-1" d="M46.95,0c2.56.81,5.31,1.26,7.64,2.49,7.19,3.82,11.32,9.91,12.23,18.07.68,6.15-1.38,11.42-5.28,16.06-1.03,1.23-1.49,2.45-1.28,4.13.58,4.71-2.41,9.24-6.77,10.57-4.56,1.39-9.25-.48-11.5-4.88-.92-1.81-1.97-2.29-3.93-2.09-3.59.38-7.14.82-10.26,2.75-1.44.89-2.79,2-3.97,3.22-4.97,5.16-9.85,10.41-14.78,15.61-1.1,1.16-1.8,1.1-2.89-.06-1.75-1.85-3.51-3.69-5.29-5.51-1.13-1.16-1.19-1.76-.02-2.9,4.59-4.48,9.14-8.99,13.81-13.38,4.46-4.19,6.85-9.28,7.21-15.36.32-5.35,1-10.64,3.62-15.43C29.07,6.77,34.2,2.11,41.65.38c.57-.13,1.14-.25,1.71-.38,1.2,0,2.39,0,3.59,0ZM51.63,31.77c-.05-.71-.32-1.43-.08-1.87.37-.71.98-1.48,1.68-1.78,1.01-.44,1.9.25,2.59,1.04.62.71.24,1.29-.22,1.9-.68.89-.55,1.7.37,2.36.29.21.59.41.87.63q1.95,1.53,3.48-.46c.07-.09.14-.19.21-.29,5.72-7.8,4.12-19.2-3.57-25.69-4.13-3.49-8.81-5.27-14.23-4.33-6.32,1.1-10.74,4.94-13.94,10.29-2.9,4.84-3.62,10.29-4.08,15.79-.36,4.31-1.01,8.54-3.75,12.13-.18.24-.29.74-.17.96,1.33,2.32,2.71,3.51,5.25,2.07,1.14-.64,2.33-1.19,3.53-1.72,2.17-.96,4.47-.96,6.79-.94,2.68.03,4.44-1.13,5.19-3.23.72-2.02.64-2.16-1.44-2.55-1.33-.25-1.93-1.12-1.74-2.52.17-1.21.92-1.79,2.27-1.73,1.37.05,2.04.72,2.06,2.08,0,.46,0,.92,0,1.63,1.15-1.03,2.15-1.93,3.24-2.91-2.51-.45-3.31-1.2-3.05-2.71.21-1.26,1.28-2.1,2.48-1.84.55.12,1.36.4,1.5.8.32.89.29,1.9.41,2.91h4.37ZM57.29,41.76c.01-3.99-2.87-7.06-6.66-7.09-3.88-.03-6.84,3-6.86,7.02-.01,3.99,2.96,7.11,6.78,7.11,3.75,0,6.72-3.1,6.73-7.04ZM22.24,47.86c-1.18-1.02-2.21-2-3.35-2.84-.28-.2-1.06-.15-1.31.09-3.78,3.69-7.49,7.47-11.27,11.16-2.63,2.57-2.68,2.76-.13,5.37,1.27,1.3,1.65,1.32,2.9.01,2.31-2.42,4.6-4.85,6.9-7.27,2.05-2.15,4.11-4.29,6.26-6.53Z"/>
      <path class="cls-1" d="M38.44,39.31c-4.92,1.54-9.58,2.99-14.45,4.51,1.08-5.58,2.12-10.94,3.2-16.57,3.75,4.02,7.36,7.89,11.25,12.06ZM33.07,37.86c-1.38-1.46-2.65-2.81-4.08-4.33-.43,2.14-.81,4.02-1.23,6.08,1.83-.6,3.46-1.14,5.3-1.75Z"/>
      <path class="cls-1" d="M53.74,24.14c-1.38,0-2.25-.85-2.27-2.21-.01-1.3.92-2.23,2.27-2.25,1.21-.02,2.32,1.05,2.32,2.25,0,1.23-1.03,2.21-2.33,2.21Z"/>
      <path class="cls-1" d="M45.1,24.14c-1.36.02-2.24-.83-2.27-2.18-.02-1.24,1-2.29,2.23-2.3,1.2-.02,2.27,1.05,2.28,2.26,0,1.34-.86,2.19-2.24,2.22Z"/>
      <path class="cls-1" d="M48.92,7.37c1.29,0,2.34,1,2.31,2.22-.03,1.2-1.03,2.17-2.25,2.17-1.42,0-2.24-.79-2.27-2.18-.03-1.4.77-2.2,2.21-2.21Z"/>
      <path class="cls-1" d="M45.08,11.25c1.36,0,2.32.91,2.31,2.17-.01,1.22-1.05,2.14-2.39,2.12-1.34-.02-2.16-.83-2.17-2.14,0-1.39.8-2.16,2.24-2.15Z"/>
      <path class="cls-1" d="M40.58,11.76c-1.39.01-2.23-.82-2.23-2.22,0-1.3.99-2.28,2.27-2.24,1.09.03,2.14,1.08,2.17,2.17.04,1.33-.88,2.28-2.21,2.29Z"/>
      <path class="cls-1" d="M40.6,15.31c1.33,0,2.22.88,2.19,2.12-.04,1.29-.91,2.15-2.19,2.16-1.44.01-2.25-.76-2.25-2.17,0-1.42.75-2.13,2.25-2.12Z"/>
      <path class="cls-1" d="M48.91,15.31c1.31,0,2.26.84,2.31,2.06.05,1.16-.98,2.21-2.17,2.23-1.48.03-2.32-.73-2.34-2.09-.02-1.44.73-2.19,2.19-2.2Z"/>
      <path class="cls-1" d="M58.05,19.6c-1.39.02-2.24-.81-2.24-2.19,0-1.3.82-2.11,2.18-2.14,1.39-.03,2.32.83,2.33,2.13.01,1.32-.87,2.18-2.27,2.2Z"/>
      <path class="cls-1" d="M36.32,24.14c-1.33-.03-2.13-.92-2.09-2.33.03-1.31.97-2.15,2.34-2.11,1.23.04,2.09,1.01,2.05,2.29-.04,1.34-.94,2.18-2.3,2.15Z"/>
      <path class="cls-1" d="M58.02,23.51c1.34.02,2.32.93,2.31,2.19,0,1.16-1.03,2.18-2.21,2.19-1.37.01-2.31-.87-2.32-2.15,0-1.36.87-2.24,2.21-2.23Z"/>
      <path class="cls-1" d="M46.72,25.64c0-1.35.86-2.17,2.25-2.17,1.2,0,2.23,1,2.25,2.16.02,1.13-1.03,2.21-2.17,2.24-1.44.03-2.33-.82-2.33-2.23Z"/>
      <path class="cls-1" d="M36.39,15.54c-1.42-.02-2.19-.82-2.16-2.24.03-1.37.84-2.08,2.34-2.05,1.27.03,2.05.82,2.06,2.1.01,1.38-.82,2.2-2.23,2.18Z"/>
      <path class="cls-1" d="M52.91,11.25c1.37,0,2.18.76,2.21,2.08.03,1.37-.81,2.21-2.22,2.21-1.39,0-2.15-.73-2.17-2.1-.02-1.44.72-2.19,2.19-2.19Z"/>
      <path class="cls-1" d="M32.43,15.31c1.42,0,2.14.72,2.14,2.11,0,1.39-.84,2.2-2.26,2.18-1.35-.02-2.15-.82-2.15-2.17,0-1.42.75-2.13,2.27-2.12Z"/>
      <path class="cls-1" d="M42.74,25.68c0,1.33-.79,2.13-2.16,2.14-1.43.02-2.23-.76-2.24-2.17-.01-1.3.86-2.2,2.13-2.18,1.4.02,2.26.87,2.27,2.2Z"/>
      <path class="cls-1" d="M32.31,27.79c-1.44-.03-2.18-.81-2.15-2.25.03-1.29.89-2.07,2.26-2.07,1.29,0,2.24,1,2.18,2.31-.06,1.3-.91,2.05-2.28,2.02Z"/>
      <path class="cls-1" d="M38.6,30.2c0,1.36-.86,2.25-2.21,2.25-1.34,0-2.17-.88-2.16-2.29,0-1.22.98-2.17,2.22-2.16,1.24.01,2.15.94,2.16,2.2Z"/>
    </g>
  </g>
</svg>