<?xml version="1.0" encoding="UTF-8"?>
<svg id="Capa_2" data-name="Capa 2" xmlns="http://www.w3.org/2000/svg" viewBox="0 0 77.35 82.76">
  <defs>
    <style>
      .cls-1 {
        fill: #020202;
      }

      .cls-1, .cls-2 {
        stroke-width: 0px;
      }

      .cls-2 {
        fill: #0a0b0b;
      }
    </style>
  </defs>
  <g id="Capa_1-2" data-name="Capa 1">
    <g>
      <path class="cls-1" d="M77.34,68.48c.01-1-.33-1.34-1.35-1.39-1.7-.09-4.07.87-4.91-.43-.84-1.29-.24-3.51-.27-5.32,0-.26-.03-.53.01-.78.28-1.79-.4-2.37-2.26-2.33-5.54.12-11.08.04-16.21.04.87-1.11,1.68-2.35,2.7-3.39,4.91-4.99,4.37-11.18,3.87-17.34-.16-2.05-.23-5.08-1.85-5.63-1.91-.65-4.17,1.28-5.69,2.95-1.31,1.45-2.34,1.84-3.78.27-1.71-1.86-1.85-3.34-.3-4.82,3.58-3.39,4.35-6.94,2.52-11.52-1.32-3.29-3.43-6.05-6.1-8.3-1.8-1.52-3.09-3.04-2.98-5.58.06-1.57-.87-2.95-1.87-4.19-.54-.67-1.01-.9-1.97-.56-5.11,1.79-7.75,6.05-6.85,11.35.33,1.96.77,3.9,1.14,5.85.25,1.32.3,2.7-.88,3.58-1.5,1.13-.52,2.28.06,3.09.7.98,1.54-.1,2.17-.52,1.38-.91,2.04-2.26,2.07-3.96.04-2.2-.57-4.27-.94-6.4-.44-2.56-.9-5.19.96-7.45.59-.72,1.27-1.83,2.21-1.56,1.01.29.93,1.61.81,2.5-.3,2.32.71,3.72,2.53,5.11,3.12,2.38,5.67,5.31,6.93,9.18.88,2.72.31,5.09-1.86,6.77-2.06,1.59-2.9,3.45-2.19,5.86.86,2.87,2.57,5.12,5.67,5.86,1.59.39,3.05.24,4.1-1.37.54-.82,1.27-1.64,2.38-1.88,1.88,9.67.79,15.48-7.02,19.92.3-1.12.69-2.16.87-3.24.68-4.23-1.74-6.84-4.9-8.99-1.55-1.06-2.65-2.08-2.53-4.31.13-2.37-1.48-3.46-3.92-3.29-6.66.47-11.01,5.76-10.7,12.86.13,2.8,1.15,5.38,2.1,8.33-7.82-5.28-10.84-15.61-6.84-23.01.84-1.55-.26-1.68-.89-2.33-1.03-1.06-1.44-.18-1.91.56-2.98,4.76-3.01,9.8-1.35,14.97,1.24,3.9,3.47,7.25,6.52,10.63-4.97,0-9.46.12-13.93-.05-2.28-.08-3.3.41-3.02,2.92.2,1.86.61,4.31-.33,5.52-1.01,1.31-3.56.43-5.43.42-1.49-.02-1.93.43-1.89,1.91.1,3.81.18,7.63-.03,11.43-.11,2.09.66,2.34,2.48,2.34,24.14-.06,48.27-.04,72.41-.04.34,0,.69-.03,1.04,0,.93.09,1.42-.15,1.41-1.25-.06-4.33-.04-8.66-.01-12.99ZM30.81,44.86c.81-2.48,2.52-4.03,4.95-4.9,1.72-.61,3.01-.84,2.6,1.8-.21,1.39.84,2.38,1.88,3.21,1.27,1.03,2.66,1.95,3.8,3.11,2.29,2.36,1.82,8.13-.89,9.83-1.4.88-3.23.11-4.47.31-5.49,0-6.38-.68-7.8-5.72-.72-2.54-.9-5.08-.07-7.64ZM28.52,61.67c7.29-.07,14.58.13,21.86-.1,2.85-.09,2.11,1.58,2.3,3.1.23,1.9-.33,2.56-2.36,2.46-3.9-.18-7.81-.05-11.71-.05s-7.98-.06-11.97.03c-1.38.04-1.77-.4-1.72-1.74.16-4.68-.6-3.66,3.6-3.7ZM13.66,78.36c.03.96-.46,1.14-1.28,1.12-1.3-.03-2.6-.01-3.9-.01q-5.2,0-5.2-5.24c.01-.61.09-1.23-.01-1.82-.29-1.71.54-2.12,2.05-1.92.59.08,1.22-.05,1.81.02,2.13.25,5.32-.97,6.14.5,1.07,1.92.31,4.85.39,7.35ZM10.99,63.12c.05-1.06.24-1.54,1.43-1.5,2.59.09,5.19.09,7.78,0,1.23-.04,1.36.49,1.41,1.53.16,3.93.2,3.93-3.63,3.93h-3.38c-3.82,0-3.78,0-3.61-3.96ZM60.33,77.56c.17,1.7-.54,1.95-2.06,1.95-13.1-.06-26.19-.07-39.29,0-1.7.01-2.33-.42-2.14-2.14.25-2.21-.94-5.16.49-6.44,1.21-1.1,4.11-.37,6.26-.38,4.95-.02,9.89-.01,14.84-.01,6.59,0,13.18.06,19.77-.04,1.7-.02,2.29.42,2.13,2.13-.16,1.63-.16,3.3,0,4.93ZM58.92,67.1c-2.41.39-3.31-.37-3.14-2.96.12-1.92.42-2.75,2.53-2.54,1.97.21,3.97-.02,5.96.07,1.04.05,2.62-.64,3.03.49.47,1.3.2,2.9.08,4.36-.07.86-.93.53-1.47.55-1.47.04-2.94.01-4.4.01-.87,0-1.75-.11-2.59.02ZM70.93,79.49c-.67-.11-1.38-.02-2.08-.02q-5.22,0-5.22-5.2,0-3.73,4.62-3.73c5.86,0,5.69.01,5.93,5.82.12,2.7-.69,3.56-3.25,3.13Z"/>
      <path class="cls-2" d="M22.91,27.16c.22-1.7,1.17-2.87,3.02-2.77,1.82.1,2.84,1.36,2.74,3.12-.1,1.63-1.16,2.74-2.89,2.71-1.86-.02-2.79-1.14-2.87-3.07Z"/>
    </g>
  </g>
</svg>