<?xml version="1.0" encoding="UTF-8"?>
<svg id="Capa_2" data-name="Capa 2" xmlns="http://www.w3.org/2000/svg" viewBox="0 0 77.52 82.86">
  <defs>
    <style>
      .cls-1 {
        stroke-width: 0px;
      }
    </style>
  </defs>
  <g id="Capa_1-2" data-name="Capa 1">
    <g>
      <path class="cls-1" d="M0,68.47c.31-1.14,1.07-1.56,2.23-1.44,1.15.12,2.31.23,3.46.25,1.44.03,2.18-.62,2.24-2.07.05-1.27-.01-2.56-.16-3.82-.29-2.36.4-3.22,2.74-3.22,4.6,0,9.19,0,13.99,0-.83-1.06-1.6-1.99-2.32-2.96-3.28-4.42-5.22-9.32-5.06-14.89.08-2.68.89-5.19,2.33-7.46.37-.59.6-1.71,1.73-1.11,1.6.85,1.88,1.53,1.24,2.81-1.2,2.36-1.8,4.87-1.68,7.51.28,6.32,3.17,11.24,8.34,15.24-.57-1.96-1.18-3.63-1.54-5.34-.97-4.56-.47-8.86,2.89-12.4,2.36-2.48,5.34-3.58,8.76-3.27,1.7.16,2.69,1.16,2.61,2.84-.1,2.25.97,3.66,2.72,4.82,2.4,1.58,4.51,3.5,4.75,6.55.14,1.7-.3,3.44-.48,5.21,3.37-1.95,5.98-4.61,6.9-8.65.81-3.58.3-7.13-.44-11.08-.81.73-1.52,1.22-2.02,1.86-1.38,1.76-2.4,2.15-4.57,1.57-3.21-.86-5.73-4.12-5.75-7.44-.01-1.8.94-3.08,2.24-4.18,2.46-2.08,3-4.06,1.94-7.14-1.21-3.52-3.44-6.31-6.38-8.5-2.12-1.58-3.38-3.42-3.01-6.2.07-.54-.44-1.16-.68-1.75-.56.29-1.23.47-1.66.9-2.02,1.97-2.07,4.45-1.66,7.03.38,2.4.83,4.79,1.08,7.21.25,2.39-1.24,3.85-3.12,4.95-.25.15-.95.07-1.03-.11-.38-.77-.66-1.61-.87-2.45-.05-.2.3-.55.53-.74,1.08-.9,1.27-2,1.04-3.34-.49-2.86-1.12-5.73-1.26-8.62-.2-4.04,3.07-7.97,7.01-8.97.86-.22,1.53-.03,2.1.71,1.11,1.43,1.85,2.93,1.83,4.81-.03,2.17,1.4,3.57,2.92,4.86,2.39,2.01,4.28,4.4,5.62,7.23.95,2.01,1.56,4.09,1.36,6.36-.21,2.41-1.41,4.28-3.06,5.94-2.02,2.04-1.71,4.32.76,5.82.84.51,1.54.24,2.18-.33.68-.61,1.26-1.36,1.98-1.92.81-.63,1.68-1.24,2.62-1.63,1.54-.63,2.74-.04,3.13,1.58.35,1.46.5,2.99.62,4.49.26,3.18.54,6.36-.09,9.55-.55,2.79-1.76,5.18-3.68,7.26-.92.99-1.73,2.07-2.83,3.4.74,0,1.15,0,1.55,0,4.84-.01,9.68-.03,14.52-.04,2.1,0,2.46.36,2.41,2.43-.04,1.28-.18,2.55-.21,3.83-.07,2.4.83,3.17,3.25,2.8,1.18-.18,2.36-.42,3.47.29v15.35H0C0,81.83,0,80.79,0,79.75c.08-1.5.23-3,.22-4.5C.21,73.23.08,71.21,0,69.19v-.72ZM38.76,79.51s0-.05,0-.07c5.68,0,11.35,0,17.03,0,.96,0,1.92.1,2.87.03,1.57-.1,1.87-.62,1.77-2.17-.1-1.47-.11-2.95,0-4.42.13-1.77-.31-2.31-2.12-2.31-11.63.01-23.26.03-34.89.02-1.35,0-2.71-.21-4.06-.2-1.75.02-2.56.87-2.54,2.62.02,1.31.2,2.63.22,3.94.03,2.22.33,2.54,2.55,2.54,6.39,0,12.79,0,19.18,0ZM30.46,49.18c.06,1.79.72,4.2,1.76,6.51.56,1.24,1.57,2.07,2.93,2.2,2.18.21,4.37.37,6.56.35.75,0,1.65-.45,2.2-.99,2.36-2.31,2.25-7.23-.17-9.46-1.11-1.03-2.34-1.92-3.54-2.86-1.23-.97-1.98-2.1-1.78-3.8.16-1.37-.37-1.71-1.71-1.36-4.05,1.07-6.25,4.11-6.25,9.41ZM38.63,61.69v.04c-3.36,0-6.71,0-10.07,0q-3.38,0-3.42,3.37c-.02,1.74.17,1.94,1.9,1.94,7.47,0,14.94-.02,22.41,0,3.38,0,3.39.04,3.27-3.38-.05-1.63-.39-1.97-2-1.97-4.03,0-8.07,0-12.1,0ZM9.63,79.5s0-.04,0-.06c.84,0,1.68-.05,2.51.01,1.18.08,1.68-.36,1.58-1.59-.06-.78.15-1.59.14-2.38-.01-1.19-.04-2.39-.2-3.56-.14-1.03-.8-1.59-1.91-1.55-2.39.09-4.77.15-7.16.2-.82.02-1.21.51-1.2,1.2.02,1.91.09,3.81.21,5.71.07,1.1.72,1.74,1.85,1.81,1.39.08,2.78.14,4.18.21ZM68.74,70.53s0,.07,0,.11c-1,0-2-.05-2.99.01-.93.06-1.81.4-1.85,1.49-.06,1.79-.03,3.58.07,5.37.06,1.16.8,1.76,1.98,1.8,2.1.06,4.2.17,6.31.21,1.16.02,1.89-.56,1.9-1.69.02-1.79-.09-3.58-.23-5.36-.07-.93-.67-1.54-1.62-1.64-1.18-.13-2.37-.2-3.56-.3ZM62.14,67.09v-.04c.84,0,1.67,0,2.51,0,3.02-.01,3.12-.12,3.03-3.19-.06-2.02-.44-2.35-2.42-2.16-.4.04-.8.03-1.19.03-2.07,0-4.15-.09-6.22,0-.56.03-1.39.46-1.57.91-.32.82-.36,1.8-.28,2.69.13,1.35.71,1.75,2.07,1.76,1.35,0,2.71,0,4.06,0ZM16.37,67.03c1.08,0,2.16.02,3.23,0,1.69-.03,2.12-.45,2.15-2.14.01-.71-.09-1.43-.12-2.15-.04-.76-.48-1.04-1.18-1.04-2.67,0-5.35,0-8.02,0-.7,0-1.15.28-1.19,1.03-.04.8-.14,1.59-.12,2.39.05,1.42.48,1.85,1.89,1.9,1.12.04,2.24,0,3.35,0Z"/>
      <path class="cls-1" d="M23.04,27.35c0-1.8,1.12-3.01,2.81-3.02,1.83,0,3,1.15,3,2.97,0,1.85-1.13,3-2.95,2.99-1.79-.01-2.85-1.1-2.86-2.94Z"/>
    </g>
  </g>
</svg>