<?xml version="1.0" encoding="UTF-8"?>
<svg id="Capa_2" data-name="Capa 2" xmlns="http://www.w3.org/2000/svg" viewBox="0 0 4.36 4.41">
  <defs>
    <style>
      .cls-1 {
        fill: #4e525b;
        stroke-width: 0px;
      }
    </style>
  </defs>
  <g id="Layer_1" data-name="Layer 1">
    <path class="cls-1" d="M2.18.11c2.76.07,2.76,4.12,0,4.19-2.76-.07-2.76-4.12,0-4.19ZM2.18,0c-2.9.08-2.9,4.33,0,4.41,2.9-.08,2.9-4.33,0-4.41h0ZM3.01,1.07h-1.67c-.2,0-.3.11-.3.3,0,.55,0,1.11,0,1.66,0,.19.11.3.29.3h1.68c.19,0,.3-.1.3-.3v-1.67c0-.19-.11-.3-.3-.3ZM2.83,1.33q.22,0,.22.22t-.22.22-.22-.22.22-.22ZM2.18,1.76c.57,0,.56.88,0,.88-.58-.02-.56-.87,0-.88ZM3.05,2.94c0,.11-.03.13-.13.13-.49,0-.99,0-1.48,0-.1,0-.13-.03-.13-.13,0-.27,0-.55,0-.83,0-.08.02-.09.09-.09.1,0,.11,0,.09.11-.07,1.06,1.53.98,1.37-.05,0-.04,0-.05.04-.05.16-.01.16-.01.16.15v.77Z"/>
  </g>
</svg>