<?xml version="1.0" encoding="UTF-8"?>
<svg id="Capa_2" data-name="Capa 2" xmlns="http://www.w3.org/2000/svg" viewBox="0 0 75.84 72.38">
  <defs>
    <style>
      .cls-1 {
        stroke-width: 0px;
      }
    </style>
  </defs>
  <g id="Capa_1-2" data-name="Capa 1">
    <g>
      <path class="cls-1" d="M75.84,29.85c-.16.81-.29,1.63-.5,2.43-1.12,4.39-3.45,7.95-7.26,10.47-2.54,1.68-5.28,2.15-8.23,1.33-.61-.17-1.22-.32-2.08-.55,1.07,2.24,1.89,4.44,3.1,6.4,3.92,6.34,1.28,13.8-2.52,17.89-3.22,3.47-7.23,4.68-11.88,4.53-4.75-.15-9.51.1-14.26.03-3.86-.06-7.8.09-11.57-.6-6.95-1.29-10.69-7.31-9.73-14.61.55-4.19,2.61-7.65,5.2-10.86.72-.89,1.43-1.79,2.03-2.95-.3.05-.63.04-.91.15-4.15,1.63-7.76.58-10.97-2.24-3.13-2.75-5.53-5.97-6.13-10.25,0-.07-.09-.12-.14-.19,0-.96,0-1.92,0-2.88.15-.57.3-1.14.44-1.71,1.14-4.64,5.18-7.09,9.78-5.74,6.24,1.84,9.73,6.28,11.07,12.48.32,1.48.08,3.09.08,4.63,0,.51-.05,1.01-.08,1.52.09.05.19.11.28.16.64-.77,1.32-1.52,1.9-2.33,1.06-1.45,1.97-3.02,3.11-4.4,3.03-3.68,6.83-5.77,11.74-5.07,3.81.55,6.94,2.53,9.77,5.01,2.22,1.95,4.37,3.97,6.56,5.96-.05.12-.1.24-.15.36,0-.97.03-1.93,0-2.9-.25-6.81,4.69-13.74,11.03-15.45,4.93-1.33,9.45,1.73,10.07,6.81.04.31.16.6.24.9v1.68ZM45.32,68.98c0,.06.02.12.02.18,1.77-.22,3.6-.25,5.31-.7,6.38-1.71,10.32-8.4,8.32-14.25-2.99-8.75-8.23-15.89-15.83-21.24-1.83-1.29-3.88-2.08-6.12-2.15-3.72-.11-6.39,1.71-8.53,4.65-3.17,4.35-6.38,8.68-9.74,12.89-1.88,2.35-3.48,4.81-4.16,7.71-.37,1.56-.54,3.28-.28,4.84.82,4.75,4.93,8,10.05,8.05,6.98.07,13.97.02,20.95.02ZM57.8,34.6c-.11,5.7,3.61,8.04,7.89,5.59,4.12-2.36,6.39-6.08,6.73-10.81.14-2.02-.43-4.04-2.32-5.22-1.86-1.17-3.82-.75-5.56.27-4.16,2.43-6.28,6.18-6.73,10.18ZM18.3,35.38c0-5.01-4.15-10.41-8.94-11.65-2.96-.76-5.26.73-5.77,3.74-.87,5.15,2.95,11.34,8.07,12.97.85.27,1.82.46,2.68.34,2.6-.36,3.96-2.31,3.96-5.4Z"/>
      <path class="cls-1" d="M27.32,25.78c-2.73-.02-4.75-1.17-6.47-2.87-4.27-4.22-5.67-12.04-3.19-17.47,2.78-6.11,9.13-7.26,13.86-2.51,5.11,5.12,5.89,14.71,1.61,19.91-1.56,1.89-3.53,2.95-5.8,2.94ZM32.47,14.49c-.08-3.58-.92-6.89-3.62-9.44-2.89-2.74-6.25-2.08-8.01,1.5-1.06,2.15-1.26,4.44-.91,6.77.49,3.3,1.7,6.25,4.58,8.21,2.27,1.54,4.68,1.06,6.29-1.16,1.27-1.75,1.78-3.72,1.67-5.87Z"/>
      <path class="cls-1" d="M39.59,14.44c-.04-4.02.92-7.39,3.19-10.3,4.15-5.33,10.67-4.9,14.13.9,3.26,5.47,2.27,13.92-2.18,18.49-4.18,4.3-10.15,3.56-13.19-1.66-1.4-2.4-2.03-5.01-1.95-7.43ZM55.48,13.18c-.01-2.97-.54-5.37-2.14-7.4-1.97-2.5-4.75-2.66-7.06-.49-1.57,1.47-2.48,3.31-2.95,5.38-.79,3.47-.63,6.84,1.4,9.9,1.9,2.85,4.87,3.17,7.34.84,2.49-2.35,3.3-5.38,3.42-8.23Z"/>
    </g>
  </g>
</svg>