<?xml version="1.0" encoding="UTF-8"?>
<svg id="Capa_2" data-name="Capa 2" xmlns="http://www.w3.org/2000/svg" viewBox="0 0 75.58 72.29">
  <defs>
    <style>
      .cls-1 {
        fill: #040404;
      }

      .cls-1, .cls-2, .cls-3, .cls-4 {
        stroke-width: 0px;
      }

      .cls-2 {
        fill: #040505;
      }

      .cls-3 {
        fill: #030404;
      }

      .cls-4 {
        fill: #020303;
      }
    </style>
  </defs>
  <g id="Capa_1-2" data-name="Capa 1">
    <g>
      <path class="cls-4" d="M61.29,51.06c-1.41-2.5-2.51-5.17-3.75-7.76-.36-1.88-1.06-3.5-3.09-4.11-3.02-3.33-5.92-6.78-9.81-9.2-7.28-4.52-13.83-3.24-18.97,3.6-1.51,2.02-2.54,4.42-4.61,6.01-1.57.76-2.67,1.85-2.63,3.74-2.59,3.26-5.4,6.35-6.76,10.44-3.24,9.78,2.1,18.08,12.29,18.42,8.02.27,16.07-.21,24.09-.02,11.02.25,17.62-13.3,13.24-21.12ZM48.41,68.9c-1.87.17-3.77.03-5.65.03-5.82-.45-11.64.14-17.46.1-9.48-.07-14.05-7.77-9.68-16.27.7-1.37,1.45-2.78,2.47-3.89,3.78-4.11,7.07-8.6,10.1-13.26,4.02-6.21,10.53-5.9,15.15-2.58,7.37,5.29,12.53,12.4,15.54,20.88,2.41,6.79-3.05,14.33-10.47,14.99Z"/>
      <path class="cls-2" d="M10.1,20.44c-4.5-1.17-8.57,1.1-9.68,5.59-1.37,5.54.78,10.12,4.54,13.94,3.43,3.49,7.48,5.42,12.49,3.25.26-.11.65.08.98.12.88-1.24,1.76-2.49,2.63-3.74.05-.59.03-1.19.14-1.78,1.39-7.25-3.88-15.51-11.1-17.38ZM10.98,40.28c-4.93-1.99-8.54-8.22-7.54-12.99.64-3.06,2.82-4.44,5.85-3.69,4.79,1.19,9.04,6.78,8.99,11.84-.04,4.4-3.21,6.5-7.3,4.84Z"/>
      <path class="cls-1" d="M30.41,2.03c-4.15-3.36-9.3-2.48-12.1,2.08-1.38,2.24-1.93,4.72-1.92,7.34.02,4.68,1.96,9.27,5.05,11.94,4.34,3.73,9.75,2.81,12.59-2.15,3.35-5.86,1.63-14.97-3.62-19.21ZM31.04,19.95c-1.72,2.69-4.47,3.21-7.03,1.34-4.28-3.14-5.77-11.1-2.91-15.59,1.77-2.78,4.6-3.25,7.22-1.19,2.51,1.97,4.1,5.64,4.15,10.05.05,1.6-.29,3.59-1.43,5.39Z"/>
      <path class="cls-3" d="M75.5,27.48c-.68-5.56-5.55-8.7-10.83-6.78-5.2,1.9-8.14,5.92-9.76,11.11-.77,2.45-.18,4.93-.46,7.38,1.03,1.37,2.06,2.74,3.09,4.11,2.78.95,5.53,1.57,8.44.37,5.87-2.42,10.29-9.85,9.52-16.19ZM63.19,41.12c-3.19.56-5.59-1.9-5.58-5.71.02-4.51,3.47-9.78,7.49-11.45,3.61-1.48,6.35-.08,7.13,3.65,1.11,5.26-3.79,12.58-9.04,13.51Z"/>
      <path class="cls-3" d="M56.12,4.04c-3.16-4.35-8.32-4.83-12.24-1.18-5.08,4.73-5.88,14.58-1.61,20.06,3.13,4.02,8.14,4.44,11.88.93,3.26-3.07,4.44-7,4.48-11.35.04-3.09-.69-5.95-2.51-8.46ZM52.39,21.04c-2.64,2.8-5.86,2.51-7.95-.66-2.73-4.15-2.1-11.24,1.31-14.83,2.62-2.75,5.9-2.48,7.96.69,1.25,1.91,1.71,4.07,1.76,6.58-.16,2.9-.85,5.85-3.08,8.22Z"/>
    </g>
  </g>
</svg>