<?xml version="1.0" encoding="UTF-8"?>
<svg id="Capa_2" data-name="Capa 2" xmlns="http://www.w3.org/2000/svg" viewBox="0 0 69.12 67.2">
  <defs>
    <style>
      .cls-1 {
        stroke-width: 0px;
      }
    </style>
  </defs>
  <g id="Capa_1-2" data-name="Capa 1">
    <g>
      <path class="cls-1" d="M69.12,32.88c-1.36,1.69-2.59,3.51-4.1,5.04-5.32,5.41-10.73,10.73-16.11,16.09-1.54,1.53-3.37,2.46-5.49,2.98-8.21,2.01-16.4,4.09-24.58,6.22-.98.26-1.91.92-2.73,1.56-.89.71-1.63,1.61-2.44,2.43H0C0,62,0,56.8,0,51.6c4.22-4.24,8.47-8.45,12.66-12.72,1.64-1.67,3.49-2.46,5.87-2.43,7.15.08,14.3,0,21.45.05,1.17,0,2.04-.33,2.86-1.17,3.89-3.96,7.81-7.9,11.75-11.81,2.33-2.32,5.36-2.44,7.71-.27.61.56.92,1.45,1.4,2.16.25.37.54.92.88.99,2.24.43,3.61,1.76,4.29,3.88.03.09.17.14.25.2v2.4ZM29.95,38.84c-3.92,0-7.84-.07-11.76.05-.95.03-2.13.39-2.79,1.03-4.18,4.02-8.25,8.15-12.32,12.28-.35.35-.6.96-.61,1.46-.05,3.28,0,6.56-.05,9.84-.01.86.31,1.11,1.12,1.11,2.6-.03,5.2.08,7.79-.05.87-.05,2-.43,2.5-1.07,1.34-1.67,3-2.38,5.04-2.86,7.66-1.8,15.27-3.79,22.89-5.72,2.16-.54,4.14-1.39,5.75-3.02,5.02-5.1,10.09-10.16,15.14-15.23,1.04-1.05,2.18-2.01,3.18-3.09,1.05-1.14.96-2.86-.09-3.9-1.14-1.13-2.81-1.19-3.98-.02-5.19,5.22-10.32,10.49-15.54,15.67-.78.77-1.92,1.61-2.92,1.64-5.99.16-12,.12-17.99.07-.4,0-1.02-.6-1.14-1.03-.21-.71.28-1.19,1.06-1.27.2-.02.4-.04.6-.04,4.92.02,9.84.05,14.75.07.64,0,1.28-.04,1.91-.12,1.52-.19,2.61-1.35,2.65-2.78.04-1.45-1.08-2.74-2.61-2.96-.47-.07-.96-.06-1.44-.06-3.72,0-7.44,0-11.16,0ZM47.66,40.03c.21-.19.5-.45.78-.72,2.52-2.51,5.01-5.05,7.55-7.53,1.68-1.64,3.44-3.21,5.13-4.84.18-.18.25-.63.17-.89-.63-1.84-3.24-2.44-4.71-.91-3.69,3.82-7.49,7.53-11.24,11.29-.16.16-.29.35-.35.42.92,1.1,1.78,2.11,2.68,3.18Z"/>
      <path class="cls-1" d="M47.4,12.72c0,.48-.05.96,0,1.44.65,5.45-2.08,9.26-6.12,12.34-1.44,1.1-3.09,1.99-4.75,2.73-.79.35-1.95.39-2.75.07-4.55-1.77-8.14-4.72-10.25-9.2-.44-.94-.7-2.06-.73-3.1-.09-3.15-.01-6.31-.05-9.47-.01-.88.33-1.4,1.09-1.8,3.39-1.79,6.76-3.6,10.13-5.42.82-.44,1.5-.38,2.34.09,3.28,1.82,6.59,3.58,9.92,5.3.88.45,1.21,1.05,1.19,1.99-.04,1.68,0,3.36,0,5.03ZM44.88,12.94c0-1.36-.04-2.72.02-4.07.03-.74-.21-1.15-.88-1.49-2.7-1.38-5.34-2.87-8.06-4.22-.48-.24-1.27-.25-1.74-.01-2.71,1.35-5.36,2.83-8.07,4.2-.73.37-.93.85-.92,1.61.03,2.48-.09,4.96.06,7.43.07,1.19.39,2.47.97,3.5,1.84,3.28,4.67,5.52,8.11,6.97.41.17,1.07.17,1.44-.05,1.71-1.01,3.48-1.97,5-3.24,2.79-2.32,4.6-5.19,4.09-9.06-.07-.51,0-1.04,0-1.56Z"/>
      <path class="cls-1" d="M32.28,16.95c2.16-2.14,4.23-4.18,6.29-6.23.31-.31.62-.63.94-.92.56-.52,1.27-.6,1.67,0,.27.42.23,1.17.08,1.69-.12.41-.62.7-.96,1.04-2.29,2.29-4.57,4.58-6.86,6.86-1.22,1.21-1.72,1.18-2.76-.2-.62-.83-1.24-1.67-1.82-2.53-.48-.7-.55-1.42.21-2,.72-.56,1.27-.16,1.74.41.48.58.93,1.18,1.48,1.88Z"/>
    </g>
  </g>
</svg>