<?xml version="1.0" encoding="UTF-8"?>
<svg id="Capa_2" data-name="Capa 2" xmlns="http://www.w3.org/2000/svg" viewBox="0 0 68.85 67.1">
  <defs>
    <style>
      .cls-1 {
        fill: #fefefe;
      }

      .cls-1, .cls-2, .cls-3 {
        stroke-width: 0px;
      }

      .cls-2 {
        fill: #f7f7f7;
      }
    </style>
  </defs>
  <g id="Capa_1-2" data-name="Capa 1">
    <g>
      <path class="cls-3" d="M68.71,30.34c-.62-2.12-1.93-3.5-4.18-3.83-.55-.09-.82-.41-.93-.93-.25-1.24-1.03-2.13-2.03-2.82-2.27-1.55-4.97-1.28-6.93.67-4.14,4.14-8.29,8.27-12.4,12.43-.5.5-.99.68-1.68.67-7.6-.02-15.21.02-22.82-.03-1.88-.02-3.34.64-4.63,1.94-4.06,4.09-8.14,8.15-12.22,12.23-.3.3-.57.63-.86.95v14.75c.16.53.61.6,1.06.7h12.46c1.18-.86,2.04-2.05,3.11-3.02.34-.32.68-.56,1.16-.68,5.35-1.32,10.7-2.68,16.04-4.03,3.45-.87,6.9-1.77,10.35-2.62,2.06-.5,3.63-1.77,5.07-3.19,5.75-5.7,11.45-11.46,17.2-17.16,1.04-1.03,1.92-2.13,2.37-3.54v-2.28c-.05-.07-.12-.13-.14-.21ZM45.03,36.54c3.88-3.85,7.74-7.72,11.6-11.59.79-.79,1.74-.9,2.73-.62,1.08.3,1.73,1.07,2.04,2.16.09.32-.05.33-.22.43-1.09.6-1.9,1.53-2.77,2.39-3.45,3.46-6.9,6.91-10.35,10.36-.23.23-.46.44-.72.69-.39-1.31-1.16-2.3-2.25-3.01-.46-.3-.41-.46-.06-.81ZM65.48,33.93c-3.49,3.28-6.8,6.75-10.21,10.12-2.7,2.67-5.41,5.33-8.04,8.07-1.59,1.65-3.57,2.32-5.7,2.85-7.84,1.94-15.67,3.94-23.5,5.92-.17.04-.35.05-.52.07-1.55.13-2.52,1.16-3.39,2.28-.79,1.01-1.68,1.48-3.04,1.41-2.66-.13-5.32-.05-7.98-.02-.59,0-.81-.12-.8-.76.03-3.51.02-7.02.01-10.53-.01-.41.11-.71.4-1,4.21-4.19,8.41-8.39,12.61-12.59.7-.7,1.57-.94,2.51-.94,3.98-.02,7.95-.01,11.93-.01s8.02-.02,12.02.01c1.89.02,2.91,1.01,3.25,2.42.34,1.41-.71,3.04-2.04,3.34-.64.15-1.31.22-1.98.21-5.24-.02-10.47,0-15.71-.02-.56,0-1.01.16-1.17.68-.16.5-.14,1.03.36,1.42.24.19.48.19.73.19,5.85,0,11.7.03,17.55-.01,1.61-.02,2.82-.96,3.77-2.2.23-.3.46-.6.73-.86,4.75-4.76,9.52-9.51,14.26-14.28.84-.85,1.81-1.12,2.92-.78,1.28.39,1.95,1.36,2.09,2.62.1.92-.38,1.75-1.06,2.39Z"/>
      <path class="cls-3" d="M41.09,9.77c.45.37.54.95.24,1.49-.12.23-.33.41-.51.6-2.57,2.56-5.13,5.13-7.7,7.69-.95.96-1.53.93-2.34-.14-.7-.92-1.35-1.87-2.02-2.81-.19-.26-.39-.52-.27-.82-.09-.68.22-.99.76-1.25.57-.28.93.01,1.22.33.51.56.95,1.17,1.38,1.79.22.31.33.48.68.12,1.92-1.97,3.87-3.91,5.81-5.86.41-.41.81-.83,1.25-1.22.5-.43,1.08-.28,1.5.08Z"/>
      <path class="cls-3" d="M47.26,7.2c0-.59-.24-.98-.76-1.25-2.09-1.1-4.2-2.17-6.26-3.33-1.57-.89-3.27-1.55-4.74-2.62h-1.06c-.12.22-.36.25-.56.35-3.48,1.87-6.95,3.75-10.44,5.59-.57.3-.78.68-.77,1.31.02,3.22.02,6.43,0,9.65-.01,1.15.28,2.23.78,3.24,2.07,4.2,5.44,7.04,9.64,8.94,1,.45,1.96.74,3.13.26,3.73-1.52,6.75-3.89,9.09-7.14,1.03-1.44,1.87-3.04,1.92-4.83.1-3.39.03-6.78.03-10.17ZM44.77,17.27c-.05,1.5-.92,2.78-1.81,3.96-2,2.61-4.53,4.54-7.57,5.78-.18.07-.36.21-.65.1-3.75-1.51-6.74-3.91-8.79-7.42-.59-1.02-.89-2.1-.83-3.3.07-1.2.02-2.4.02-3.6,0-1.49.01-2.98,0-4.47-.01-.37.1-.58.42-.75,2.99-1.57,5.97-3.14,8.95-4.72.29-.16.55-.21.87-.04,3.02,1.62,6.05,3.23,9.09,4.82.28.15.35.32.35.6-.01,3.01.06,6.03-.04,9.04Z"/>
      <path class="cls-2" d="M.03,66.37c.35.23.7.47,1.05.7-.45-.09-1.26.37-1.05-.7Z"/>
      <path class="cls-1" d="M41.33,11.26c-.12.23-.33.41-.51.6-2.57,2.56-5.13,5.13-7.7,7.69-.95.96-1.53.93-2.34-.14-.7-.92-1.35-1.87-2.02-2.81-.19-.26-.39-.52-.27-.82-.09-.68.22-.99.76-1.25.57-.28.93.01,1.22.33.51.56.95,1.17,1.38,1.79.22.31.33.48.68.12,1.92-1.97,3.87-3.91,5.81-5.86.41-.41.81-.83,1.25-1.22.5-.43,1.08-.28,1.5.08.45.37.54.95.24,1.49Z"/>
      <path class="cls-3" d="M41.33,11.26c-.12.23-.33.41-.51.6-2.57,2.56-5.13,5.13-7.7,7.69-.95.96-1.53.93-2.34-.14-.7-.92-1.35-1.87-2.02-2.81-.19-.26-.39-.52-.27-.82-.09-.68.22-.99.76-1.25.57-.28.93.01,1.22.33.51.56.95,1.17,1.38,1.79.22.31.33.48.68.12,1.92-1.97,3.87-3.91,5.81-5.86.41-.41.81-.83,1.25-1.22.5-.43,1.08-.28,1.5.08.45.37.54.95.24,1.49Z"/>
    </g>
  </g>
</svg>