<?xml version="1.0" encoding="UTF-8"?>
<svg id="Capa_2" data-name="Capa 2" xmlns="http://www.w3.org/2000/svg" viewBox="0 0 60.15 60.1">
  <defs>
    <style>
      .cls-1 {
        stroke-width: 0px;
      }
    </style>
  </defs>
  <g id="Capa_1-2" data-name="Capa 1">
    <g>
      <path class="cls-1" d="M30.08.01c4.45,0,8.89,0,13.34,0,9.36.01,16.64,7.2,16.69,16.56.05,8.96.04,17.92,0,26.88-.05,9.43-7.29,16.62-16.72,16.64-8.93.02-17.85.02-26.78,0C7.35,60.07.05,52.78.02,43.51c-.03-8.99-.02-17.98,0-26.98C.04,7.38,7.28.09,16.45.02c4.54-.04,9.09,0,13.63,0ZM29.97,57.22c4.51,0,9.02.01,13.54,0,7.76-.02,13.73-6.02,13.74-13.79,0-8.86,0-17.72,0-26.59,0-8.06-5.96-14-14.04-14.01-8.76-.01-17.53-.01-26.29,0-1,0-2.02.08-3,.27-6.53,1.32-11.02,6.78-11.03,13.44-.02,8.93-.01,17.85,0,26.78,0,7.9,5.95,13.86,13.84,13.88,4.41.01,8.83,0,13.24,0Z"/>
      <path class="cls-1" d="M16.25,23.1c-.2-1.48.41-2.77,2.07-3.51.53-.24,1-.6,1.51-.88,1.17-.63,2.37-.4,3.08.7,1.02,1.58,1.99,3.19,2.9,4.84.6,1.08.22,2.27-.83,2.97-.46.31-.93.6-1.42.85-.65.34-.79.76-.45,1.43,1.7,3.36,4.24,5.86,7.59,7.55.58.29.98.16,1.28-.41.26-.49.55-.95.85-1.41.78-1.2,1.97-1.53,3.19-.83,1.52.87,3.03,1.76,4.51,2.69,1.24.78,1.52,2.01.82,3.28-.28.51-.65.98-.88,1.51-.69,1.56-1.92,2.06-3.53,2.02-2.53-.07-4.85-.81-6.97-2.15-4.84-3.08-8.8-7.03-11.79-11.93-1.21-1.97-1.89-4.11-1.93-6.71Z"/>
      <path class="cls-1" d="M43.85,29.75c0,.16.02.32.03.49.02.65-.13,1.21-.9,1.24-.77.03-.95-.49-.97-1.16-.1-2.66-.88-5.11-2.53-7.23-2.33-3.01-5.39-4.69-9.22-4.94-.73-.05-1.68.07-1.63-1.03.05-1.09.99-.9,1.72-.87,7.15.28,13.08,6.21,13.5,13.51Z"/>
      <path class="cls-1" d="M39.5,30.12c.02.66-.05,1.3-.89,1.35-.83.05-.98-.54-1.03-1.23-.3-4.37-3.38-7.44-7.78-7.74-.67-.04-1.19-.23-1.18-.97.01-.75.57-.94,1.22-.93,5.05.04,9.51,4.44,9.65,9.52Z"/>
      <path class="cls-1" d="M35.08,30.71c-.17.15-.48.63-.89.73-.6.14-.88-.33-.97-.94-.37-2.35-1.24-3.16-3.62-3.63-.38-.08-.89-.6-.94-.97-.09-.65.47-.9,1.11-.9,2.73-.02,5.33,2.57,5.31,5.71Z"/>
    </g>
  </g>
</svg>