<?xml version="1.0" encoding="UTF-8"?>
<svg id="Capa_2" data-name="Capa 2" xmlns="http://www.w3.org/2000/svg" viewBox="0 0 4.41 4.41">
  <defs>
    <style>
      .cls-1 {
        fill: #4e525b;
        stroke-width: 0px;
      }
    </style>
  </defs>
  <g id="Layer_1" data-name="Layer 1">
    <path class="cls-1" d="M2.2.11c1.16,0,2.09.94,2.09,2.1s-.94,2.1-2.09,2.1S.11,3.36.11,2.2,1.05.11,2.2.11M2.2,0C.99,0,0,.99,0,2.2s.99,2.2,2.2,2.2,2.2-.99,2.2-2.2S3.42,0,2.2,0h0ZM.95,3.06c.34.21.7.27,1.1.21.37-.06.68-.23.92-.52.26-.31.39-.67.38-1.08,0-.02,0-.03.02-.04.09-.07.16-.15.23-.23,0-.01.02-.02.01-.03-.09.04-.19.07-.3.08.12-.08.19-.17.23-.3,0,0-.02.01-.02.01-.09.05-.19.09-.29.11-.02,0-.04,0-.06-.01-.17-.16-.44-.2-.65-.08-.21.12-.31.34-.27.58,0,.02,0,.03-.03.03-.04,0-.08,0-.12-.02-.38-.06-.7-.24-.96-.54-.02-.02-.02-.02-.04,0-.1.2-.07.46.09.62.03.03.06.05.09.08-.08,0-.15-.02-.22-.06-.02-.01-.03,0-.03.02.02.21.11.37.3.47.04.02.08.03.13.05-.05.02-.11.02-.2.01t-.02.03c.05.13.14.23.26.29.07.04.15.06.24.06-.07.06-.15.1-.23.14-.18.08-.38.11-.57.1,0,0,0,0,.01,0Z"/>
  </g>
</svg>