<?xml version="1.0" encoding="UTF-8"?>
<svg id="Capa_2" data-name="Capa 2" xmlns="http://www.w3.org/2000/svg" viewBox="0 0 4.41 4.41">
  <defs>
    <style>
      .cls-1 {
        fill: #4e525b;
        stroke-width: 0px;
      }
    </style>
  </defs>
  <g id="Layer_1" data-name="Layer 1">
    <path class="cls-1" d="M2.2.11c1.16,0,2.1.94,2.1,2.1s-.94,2.1-2.1,2.1S.11,3.36.11,2.2,1.05.11,2.2.11M2.2,0C.99,0,0,.99,0,2.2s.99,2.2,2.2,2.2,2.2-.99,2.2-2.2S3.42,0,2.2,0h0ZM3.45,1.9c-.14-.58-.64-.98-1.24-.98-.08,0-.17,0-.24.02-.85.17-1.28,1.1-.87,1.86.01.02.01.04.01.06-.06.2-.11.4-.17.59t.02.03c.21-.06.41-.11.62-.16.02,0,.03,0,.05,0,.26.13.54.17.84.12.7-.13,1.16-.85.99-1.54ZM2.38,3.24c-.06.01-.12.02-.15.01-.23,0-.41-.05-.57-.15-.02-.01-.04-.02-.06,0-.12.03-.23.06-.34.09-.02,0-.03,0-.02-.02.03-.11.06-.21.09-.32,0-.03,0-.05-.01-.08-.23-.38-.22-.84.04-1.19.27-.36.64-.51,1.08-.41.43.09.71.37.81.8.14.59-.26,1.18-.85,1.27ZM2.62,2.8c.12-.03.22-.1.23-.23,0-.07,0-.07-.06-.1-.01,0-.03-.01-.04-.02-.06-.03-.12-.06-.18-.08-.03-.01-.05,0-.07.02-.03.04-.06.08-.1.12-.02.02-.04.03-.07.01-.19-.07-.33-.2-.44-.37-.02-.03-.02-.05,0-.07.03-.03.06-.07.08-.11,0-.02.01-.04,0-.05-.04-.09-.08-.17-.11-.26,0-.01-.02-.02-.03-.03-.04-.02-.14,0-.17.03-.1.09-.14.21-.11.34.02.11.08.21.15.3.18.24.4.42.69.51.04.01.09.02.13.02.03,0,.05,0,.08,0Z"/>
  </g>
</svg>